<ttFont>
          <CharString index="0">
            rmoveto
            8 5 3 8 7 vvcurveto
            11 -7 12 -12 -3 -3 -1 -1 -2 vhcurveto
            -107 -61 rlineto
            -7 -3 -2 -21 callsubr
            10 -11 12 -47 callsubr
            2 3 vhcurveto
            return
          </CharString>
          <CharString index="1">
            51 hmoveto
            10 8 4 11 4 hvcurveto
            48 159 rlineto
            288 hlineto
            49 -159 rlineto
            -11 3 8 -4 9 hhcurveto
            14 15 10 12 hvcurveto
            3 -1 1 2 vvcurveto
            -212 691 rlineto
            12 -4 -12 6 -12 hhcurveto
            -13 -11 -6 -12 -4 hvcurveto
            -214 -691 2 callgsubr
            -2 -2 vvcurveto
            -14 15 15 callgsubr
            83 220 rmoveto
            132 427 129 -427 rlineto
            return
          </CharString>
          <CharString index="2">
            rmoveto
            -2 4 3 -1 3 hhcurveto
            12 10 11 12 6 -2 6 -7 3 hvcurveto
            -107 61 rlineto
            1 -2 -3 1 -2 hhcurveto
            -12 -8 -12 -11 -7 3 -8 8 -5 hvcurveto
            endchar
          </CharString>
          <CharString index="3">
            -91 rmoveto
            8 5 4 8 7 vvcurveto
            11 -8 12 -12 -2 -3 -1 -1 -3 vhcurveto
            -106 -61 rlineto
            -7 -3 -3 -21 callsubr
            11 -11 12 3 3 1 2 3 vhcurveto
            return
          </CharString>
          <CharString index="4">
            rmoveto
            2 3 2 7 5 vvcurveto
            14 -14 8 -13 -9 -8 -4 -8 -2 vhcurveto
            -138 -380 -106 349 rlineto
            11 -3 -8 4 -10 hhcurveto
            -11 -8 -4 -11 -3 hvcurveto
            -109 -344 -135 375 rlineto
            8 -4 -8 4 -8 hhcurveto
            -14 -14 -10 -13 -3 3 -8 1 -3 hvcurveto
            156 -425 rlineto
            -14 5 6 -4 11 hhcurveto
            10 8 6 12 4 hvcurveto
            110 347 111 -352 rlineto
            -9 4 5 -4 11 hhcurveto
            9 7 4 10 4 hvcurveto
            return
          </CharString>
          <CharString index="5">
            rmoveto
            -61 -47 -23 -66 -44 21 -25 30 -11 hvcurveto
            -37 -13 -25 -29 -52 vvcurveto
            -7 vlineto
            -75 53 -29 66 67 52 29 75 vhcurveto
            7 vlineto
            52 -24 29 -38 13 vhcurveto
            31 11 20 25 44 vvcurveto
            66 -46 23 -62 vhcurveto
            78 -266 rmoveto
            -49 -28 -24 -49 -49 -29 24 49 vhcurveto
            8 vlineto
            49 29 22 48 49 29 -22 -49 vhcurveto
            -78 222 rmoveto
            43 24 -16 -42 -40 -24 -17 -43 -42 -25 17 40 42 25 16 42 hvcurveto
            return
          </CharString>
          <CharString index="6">
            235 22 rmoveto
            -37 callgsubr
            13 12 13 -8 callsubr
            254 vlineto
            3 0 2 1 2 vhcurveto
            208 407 rlineto
            4 8 0 7 4 vvcurveto
            14 -11 8 -11 -9 -8 -6 -12 -6 vhcurveto
            -193 -385 -192 385 rlineto
            12 -7 -8 6 -8 hhcurveto
            -12 -12 -8 -14 -4 2 -7 3 -8 hvcurveto
            207 -407 rlineto
            1 -2 1 -2 -3 vvcurveto
            return
          </CharString>
          <CharString index="7">
            rmoveto
            6 5 3 6 7 vvcurveto
            11 -8 10 -11 -3 -3 -1 -2 -3 vhcurveto
            -99 -64 rlineto
            -6 -3 -2 -5 -5 vvcurveto
            -11 11 -10 11 4 3 1 3 4 vhcurveto
            241 58 rmoveto
            7 5 3 6 7 vvcurveto
            11 -8 10 -12 -2 -4 -1 -2 -2 vhcurveto
            -100 -64 rlineto
            -5 -3 -2 -5 -5 vvcurveto
            -11 10 -10 12 -47 callsubr
            3 3 vhcurveto
            return
          </CharString>
          <CharString index="8">
            181 16 rmoveto
            -99 -30 -48 -106 -67 hhcurveto
            -13 -5 -11 -12 -16 11 -7 12 100 52 148 103 38 hvcurveto
            158 431 rlineto
            1 3 0 2 3 vvcurveto
            14 -16 10 -12 -8 -7 -5 -8 -4 vhcurveto
            -137 -385 -141 385 rlineto
            8 -2 -9 5 -8 hhcurveto
            -14 -15 -11 -13 -3 1 -2 1 -3 hvcurveto
            return
          </CharString>
          <CharString index="9">
            vlineto
            -12 callgsubr
            14 14 11 11 11 vhcurveto
            return
          </CharString>
          <CharString index="10">
            14 27 28 64 hhcurveto
            91 35 -77 -70 hvcurveto
            -26 -54 vlineto
            -139 -94 -27 -107 -90 61 -42 77 66 50 37 39 34 hvcurveto
            -48 vlineto
            return
          </CharString>
          <CharString index="11">
            79 -52 31 -67 -67 -52 -31 -79 vhcurveto
            -154 vlineto
            -80 52 -30 67 vhcurveto
            78 110 rmoveto
            -50 -29 -22 -49 -48 -29 22 50 vhcurveto
            154 vlineto
            50 29 22 48 49 29 -22 -50 vhcurveto
            return
          </CharString>
          <CharString index="12">
            -45 callgsubr
            217 hlineto
            11 11 8 12 12 -12 callgsubr
            hvcurveto
            -217 hlineto
            -13 -8 -10 -12 hvcurveto
            return
          </CharString>
          <CharString index="13">
            -107 callsubr
            endchar
          </CharString>
          <CharString index="14">
            244 -6 -103 callgsubr
            return
          </CharString>
          <CharString index="15">
            662 -105 callgsubr
            return
          </CharString>
          <CharString index="16">
            86 65 51 64 73 61 -68 -69 vhcurveto
            -273 vlineto
            -37 callgsubr
            12 12 13 -8 callsubr
            273 9 callsubr
            -97 -67 return
          </CharString>
          <CharString index="17">
            55 25 -36 51 hhcurveto
            30 54 18 36 9 -7 10 -10 hvcurveto
            -17 -5 -31 -45 hhcurveto
            return
          </CharString>
          <CharString index="18">
            129 683 -104 callgsubr
            return
          </CharString>
          <CharString index="19">
            -41 -34 36 46 hvcurveto
            -38 hlineto
            -61 53 -52 60 58 54 52 61 vhcurveto
            endchar
          </CharString>
          <CharString index="20">
            rmoveto
            257 388 rlineto
            4 5 2 5 7 vvcurveto
            13 -10 8 -11 vhcurveto
            -280 35 callsubr
            -12 9 -10 12 hvcurveto
            232 hlineto
            -256 -388 rlineto
            -4 -5 -3 -8 -6 vvcurveto
            -10 9 -10 13 vhcurveto
            300 hlineto
            12 9 10 12 13 -9 11 -12 hvcurveto
            return
          </CharString>
          <CharString index="21">
            rmoveto
            4 7 2 8 6 vvcurveto
            11 -7 7 -14 vhcurveto
            -359 hlineto
            -14 -7 -12 -12 -12 7 -12 14 hvcurveto
            315 hlineto
            -342 -646 rlineto
            -4 -6 -1 -6 -5 vvcurveto
            -45 callgsubr
            381 hlineto
            14 7 12 12 12 -7 12 -14 hvcurveto
            -337 hlineto
            return
          </CharString>
          <CharString index="22">
            181 -314 -99 96 vvcurveto
            24 18 11 18 9 vhcurveto
            -13 23 27 -6 29 hhcurveto
            120 166 rmoveto
            -72 -45 -53 -73 -75 -44 54 72 vhcurveto
            40 vlineto
            70 43 53 75 75 44 -53 -70 vhcurveto
            return
          </CharString>
          <CharString index="23">
            -111 -57 -51 -95 -95 -56 -25 callgsubr
            -14 callsubr
            return
          </CharString>
          <CharString index="24">
            rmoveto
            -19 callgsubr
            17 -6 hvcurveto
            -19 -51 rlineto
            -2 -2 0 -3 -2 vvcurveto
            -11 11 -7 9 6 7 4 7 3 vhcurveto
            21 44 16 38 callgsubr
            -19 18 -21 vhcurveto
            return
          </CharString>
          <CharString index="25">
            rmoveto
            -101 -83 -82 -98 hvcurveto
            -119 vlineto
            -111 86 -74 122 89 55 40 21 10 -11 14 -12 vhcurveto
            return
          </CharString>
          <CharString index="26">
            -2 callgsubr
            -50 22 -48 35 -34 vhcurveto
            -28 -52 rlineto
            -2 -3 -1 -4 -3 vvcurveto
            -10 9 -7 9 7 6 3 8 4 vhcurveto
            24 45 rlineto
            -19 29 33 -11 36 hhcurveto
            -12 callsubr
            hvcurveto
            -13 callgsubr
            53 -24 48 -37 33 vhcurveto
            26 47 rlineto
            3 5 1 3 5 vvcurveto
            11 -11 9 -9 -5 -6 -2 -6 -3 vhcurveto
            -27 -49 rlineto
            16 -27 -32 10 -33 hhcurveto
            135 -299 rmoveto
            -71 -61 -68 -74 -28 -26 9 16 -21 vhcurveto
            174 320 rlineto
            22 -25 14 -33 -32 vvcurveto
            -269 -116 rmoveto
            -13 callgsubr
            69 59 68 75 26 24 -8 -13 20 vhcurveto
            -172 -320 rlineto
            -20 25 -12 31 32 vvcurveto
            return
          </CharString>
          <CharString index="27">
            33 -2 rlineto
            41 -3 26 -12 -29 vvcurveto
            -21 -14 -19 -40 vhcurveto
            -33 -16 13 -7 hhcurveto
            -8 -6 -14 -7 -17 51 -7 25 56 29 37 37 35 -27 34 -68 2 hvcurveto
            return
          </CharString>
          <CharString index="28">
            vstem
            -89 callsubr
            return
          </CharString>
          <CharString index="29">
            hstem
            76 50 305 50 vstem
            431 204 rmoveto
            -111 -58 -51 -95 -95 -57 -25 callgsubr
            506 -97 callgsubr
            -506 vlineto
            -153 88 -18 callgsubr
            114 -21 callgsubr
            506 vlineto
            15 -13 6 -12 -13 -12 -6 -15 vhcurveto
            return
          </CharString>
          <CharString index="30">
            688 -97 callgsubr
            return
          </CharString>
          <CharString index="31">
            -19 callsubr
            -93 callsubr
            return
          </CharString>
          <CharString index="32">
            29 -29 -41 16 -48 hhcurveto
            -100 -66 -68 -96 hvcurveto
            -41 vlineto
            -52 20 -45 33 -29 vhcurveto
            -30 -15 -19 -19 -37 vvcurveto
            -41 24 -18 34 -11 vhcurveto
            return
          </CharString>
          <CharString index="33">
            230 478 rmoveto
            -100 -83 -85 -98 hvcurveto
            -116 vlineto
            -98 85 -87 98 -12 callsubr
            vhcurveto
            -13 callgsubr
            101 -86 82 -98 vhcurveto
            -77 callgsubr
            -56 callgsubr
            return
          </CharString>
          <CharString index="34">
            50 -41 callsubr
            8 -13 -42 callsubr
            -430 -98 callsubr
            return
          </CharString>
          <CharString index="35">
            111 56 51 95 95 57 -51 -111 vhcurveto
            return
          </CharString>
          <CharString index="36">
            371 -102 callsubr
            return
          </CharString>
          <CharString index="37">
            vvcurveto
            -54 49 -17 42 18 6 5 10 11 -7 5 -11 return
          </CharString>
          <CharString index="38">
            -10 hvcurveto
            -159 hlineto
            -8 -3 -6 -9 -1 hvcurveto
            -12 -133 rlineto
            -1 -9 0 -6 -7 vvcurveto
            -5 2 -10 19 vhcurveto
            78 hlineto
            49 29 -23 -47 hvcurveto
            -10 vlineto
            -51 -30 -20 -51 -49 -24 18 34 -1 vhcurveto
            return
          </CharString>
          <CharString index="39">
            rmoveto
            92 170 rlineto
            2 3 1 4 3 vvcurveto
            11 -12 13 -14 -8 -8 -4 -6 -4 vhcurveto
            -92 -172 rlineto
            -5 -8 -3 -7 -7 vvcurveto
            -8 3 -6 5 -8 vhcurveto
            92 -171 rlineto
            -7 return
          </CharString>
          <CharString index="40">
            15 -13 6 -12 -15 -10 -6 -20 -97 78 -73 125 112 88 57 153 vhcurveto
            505 vlineto
            15 -12 7 -12 vhcurveto
            -176 hlineto
            -15 -6 -12 -11 -13 7 -12 14 hvcurveto
            endchar
          </CharString>
          <CharString index="41">
            -35 -6 44 -17 -21 220 40 145 73 -45 45 return
          </CharString>
          <CharString index="42">
            rmoveto
            35 30 9 22 20 hvcurveto
            -72 vlineto
            -50 -30 -22 -49 -43 -35 20 32 12 -10 4 -11 -12 -8 -4 -14 -44 40 -44 78 69 52 30 80 vhcurveto
            154 vlineto
            79 -52 31 -67 -68 -52 -31 -79 vhcurveto
            -11 vlineto
            -79 51 -23 62 vhcurveto
            85 99 rmoveto
            -48 -32 -17 -46 -49 -29 19 50 vhcurveto
            11 vlineto
            50 29 23 49 48 30 -23 -50 vhcurveto
            endchar
          </CharString>
          <CharString index="43">
            -39 callgsubr
            320 hlineto
            11 10 9 13 13 -10 10 -11 hvcurveto
            -320 35 callsubr
            hvcurveto
            endchar
          </CharString>
          <CharString index="44">
            38 28 18 38 50 24 -32 -30 vhcurveto
            -84 -190 -39 -83 vvcurveto
            -49 vlineto
            -9 11 -6 8 vhcurveto
            201 hlineto
            8 7 return
          </CharString>
          <CharString index="45">
            -202 617 -21 22 -21 100 -20 hstemhm
            hintmask 01100000
            132 26 callsubr
            hintmask 10100000
            -47 callgsubr
          </CharString>
          <CharString index="46">
            rmoveto
            -19 -14 -13 -19 -19 14 -14 19 19 return
          </CharString>
          <CharString index="47">
            -8 4 -9 12 47 32 -18 -44 vhcurveto
            -9 vlineto
            -50 -28 -21 -52 vhcurveto
            return
          </CharString>
          <CharString index="48">
            -22 callgsubr
            245 -53 callgsubr
            return
          </CharString>
          <CharString index="49">
            -19 -17 -40 -81 hhcurveto
            -93 -48 53 86 hvcurveto
            114 vlineto
            86 49 53 91 vhcurveto
            return
          </CharString>
          <CharString index="50">
            -15 -6 45 -45 85 141 41 173 44 return
          </CharString>
          <CharString index="51">
            -15 callgsubr
            -14 -10 -9 -12 vhcurveto
            -723 -98 callsubr
            return
          </CharString>
          <CharString index="52">
            -22 -16 -16 -19 -20 16 -17 22 20 17 17 20 19 -17 16 -20 hvcurveto
            return
          </CharString>
          <CharString index="53">
            0 48 295 -11 callgsubr
            return
          </CharString>
          <CharString index="54">
            -8 5 7 -4 7 hhcurveto
            14 14 12 13 4 -1 4 -3 3 hvcurveto
            -252 380 223 278 rlineto
            4 3 1 5 4 vvcurveto
            13 -14 13 -13 -6 -7 -2 -6 -4 vhcurveto
            -307 -387 rlineto
            374 -97 callgsubr
            endchar
          </CharString>
          <CharString index="55">
            465 768 rmoveto
            -7 -6 -2 -8 -4 hvcurveto
            -37 -71 rlineto
            31 -36 -48 13 -54 hhcurveto
            -114 -87 -25 callsubr
            hvcurveto
            -317 vlineto
            -52 10 -41 17 -31 vhcurveto
            -37 -73 rlineto
            -2 -4 0 -3 -4 vvcurveto
            -10 9 -9 11 9 7 4 9 5 vhcurveto
            27 53 rlineto
            return
          </CharString>
          <CharString index="56">
            -49 callgsubr
            hintmask 10111000
            51 -41 callsubr
            8 -13 -42 callsubr
            -430 -98 callsubr
            264 vlineto
            hintmask 11011000
            91 67 55 68 vhcurveto
            endchar
          </CharString>
          <CharString index="57">
            39 -22 -45 37 -66 hhcurveto
            -98 -82 -82 -101 hvcurveto
            -116 vlineto
            -97 83 -88 95 61 53 35 41 22 vhcurveto
            -48 vlineto
            return
          </CharString>
          <CharString index="58">
            3 2 vvcurveto
            11 -11 7 -9 -6 -7 -4 -7 -3 vhcurveto
            -21 -44 -16 -45 -15 vvcurveto
            -23 19 -18 21 vhcurveto
            endchar
          </CharString>
          <CharString index="59">
            21 -4 callgsubr
            return
          </CharString>
          <CharString index="60">
            3 4 1 return
          </CharString>
          <CharString index="61">
            rmoveto
            67 52 30 80 hvcurveto
            154 vlineto
            return
          </CharString>
          <CharString index="62">
            76 rmoveto
            -23 -17 -19 -22 -18 12 -16 17 -5 hvcurveto
            -19 -51 rlineto
            -1 -4 0 -2 -3 vvcurveto
            -10 10 -6 10 7 7 4 7 3 vhcurveto
            34 84 1 12 7 vvcurveto
            27 -21 15 -20 vhcurveto
            return
          </CharString>
          <CharString index="63">
            12 -10 9 -14 vhcurveto
            -289 -471 rmoveto
            69 60 68 74 64 66 -51 -86 vhcurveto
            -150 vlineto
            return
          </CharString>
          <CharString index="64">
            rmoveto
            -10 10 -5 10 11 10 5 10 vhcurveto
            71 31 vlineto
            8 8 return
          </CharString>
          <CharString index="65">
            -14 -10 -8 -12 vhcurveto
            return
          </CharString>
          <CharString index="66">
            vlineto
            12 -11 return
          </CharString>
          <CharString index="67">
            -20 hstem
            79 50 305 50 vstem
            return
          </CharString>
          <CharString index="68">
            -46 -35 -36 -39 vhcurveto
            return
          </CharString>
          <CharString index="69">
            -21 432 46 return
          </CharString>
          <CharString index="70">
            rmoveto
            -24 -17 -18 -22 -21 17 -19 24 22 18 19 21 22 -18 18 -22 hvcurveto
            endchar
          </CharString>
          <CharString index="71">
            -35 61 hhcurveto
            95 83 88 97 hvcurveto
            116 9 callsubr
            -98 -66 -45 -37 -39 -22 25 callgsubr
            vhcurveto
            289 -587 rmoveto
            -71 return
          </CharString>
          <CharString index="72">
            hstemhm
            39 68 -50 50 285 32 -32 50 return
          </CharString>
          <CharString index="73">
            48 296 46 152 195 -48 48 return
          </CharString>
          <CharString index="74">
            91 -6 4 callsubr
            return
          </CharString>
          <CharString index="75">
            -38 callsubr
            -6 -20 return
          </CharString>
          <CharString index="76">
            46 392 46 return
          </CharString>
          <CharString index="77">
            55 358 rmoveto
            -217 163 -106 141 139 171 104 223 217 -163 106 -141 -139 -171 -104 -223 vhcurveto
            return
          </CharString>
          <CharString index="78">
            hvcurveto
            -560 vlineto
            -13 10 -8 13 14 12 8 13 vhcurveto
            408 134 vlineto
            11 9 10 12 11 -9 10 -11 hvcurveto
            -134 110 hlineto
            return
          </CharString>
          <CharString index="79">
            rmoveto
            -171 -114 -117 -157 -159 -106 119 165 171 114 117 157 159 106 -119 -165 vhcurveto
            return
          </CharString>
          <CharString index="80">
            hstem
            -14 callgsubr
            vstem
            return
          </CharString>
          <CharString index="81">
            -11 vhcurveto
            -275 vlineto
            return
          </CharString>
          <CharString index="82">
            -57 -153 return
          </CharString>
          <CharString index="83">
            -5 -6 19 callsubr
            return
          </CharString>
          <CharString index="84">
            48 -48 132 520 86 -48 48 return
          </CharString>
          <CharString index="85">
            -17 -15 callsubr
            return
          </CharString>
          <CharString index="86">
            -6 -6 vvcurveto
            -12 return
          </CharString>
          <CharString index="87">
            -21 174 46 517 -20 return
          </CharString>
          <CharString index="88">
            hstem
            61 49 268 49 vstem
            return
          </CharString>
          <CharString index="89">
            -3 38 -37 -21 356 38 -14 38 298 38 37 -20 hstemhm
            43 2 callsubr
            186 2 callsubr
            return
          </CharString>
          <CharString index="90">
            -3 35 -34 -21 207 36 115 36 return
          </CharString>
          <CharString index="91">
            44 -44 91 322 71 -44 44 return
          </CharString>
          <CharString index="92">
            -19 -22 -22 17 -19 return
          </CharString>
          <CharString index="93">
            317 vlineto
            return
          </CharString>
          <CharString index="94">
            -18 -23 -17 12 -16 17 -6 hvcurveto
            -19 -51 2 callgsubr
            -3 -2 vvcurveto
            -11 10 -7 10 5 7 4 7 return
          </CharString>
          <CharString index="95">
            98 86 88 97 return
          </CharString>
          <CharString index="96">
            -214 -21 229 -31 callsubr
            return
          </CharString>
          <CharString index="97">
            11 11 9 13 13 -12 callgsubr
            hvcurveto
            return
          </CharString>
          <CharString index="98">
            21 3 callgsubr
            return
          </CharString>
          <CharString index="99">
            7 15 vhcurveto
            return
          </CharString>
          <CharString index="100">
            rmoveto
            10 112 rlineto
            135 hlineto
            10 4 9 10 return
          </CharString>
          <CharString index="101">
            -15 callgsubr
            vhcurveto
            return
          </CharString>
          <CharString index="102">
            -5 -8 callgsubr
            return
          </CharString>
          <CharString index="103">
            38 149 38 return
          </CharString>
          <CharString index="104">
            111 vhcurveto
            return
          </CharString>
          <CharString index="105">
            13 -19 hvcurveto
            endchar
          </CharString>
          <CharString index="106">
            13 callsubr
            244 -20 hstem
            return
          </CharString>
          <CharString index="107">
            12 callgsubr
            243 -20 hstem
            return
          </CharString>
          <CharString index="108">
            240 -39 callgsubr
            return
          </CharString>
          <CharString index="109">
            42 155 41 return
          </CharString>
          <CharString index="110">
            49 269 49 return
          </CharString>
          <CharString index="111">
            48 689 -20 return
          </CharString>
          <CharString index="112">
            50 303 return
          </CharString>
          <CharString index="113">
            -32 -56 -73 -75 -72 -61 11 callgsubr
            endchar
          </CharString>
          <CharString index="114">
            vlineto
            -12 11 -10 14 13 12 10 12 vhcurveto
            return
          </CharString>
          <CharString index="115">
            hstemhm
            48 49 269 48 return
          </CharString>
          <CharString index="116">
            vlineto
            101 -82 82 return
          </CharString>
          <CharString index="117">
            -13 9 -10 return
          </CharString>
          <CharString index="118">
            -26 -21 -21 -25 -24 21 -21 26 24 21 21 24 25 -21 21 -24 hvcurveto
            return
          </CharString>
          <CharString index="119">
            36 callgsubr
            2 vvcurveto
            return
          </CharString>
          <CharString index="120">
            195 35 callgsubr
            return
          </CharString>
          <CharString index="121">
            0 48 635 48 return
          </CharString>
          <CharString index="122">
            257 -6 45 -45 85 141 40 146 73 -45 45 -1 -20 return
          </CharString>
          <CharString index="123">
            35 152 36 115 36 hstem
            50 31 155 41 vstem
            158 return
          </CharString>
          <CharString index="124">
            13 -12 callgsubr
            vhcurveto
            -135 -6 rlineto
            239 vlineto
            11 -12 10 -13 return
          </CharString>
          <CharString index="125">
            -21 22 -21 341 46 296 48 return
          </CharString>
          <CharString index="126">
            -31 callsubr
            219 -20 -27 callsubr
            return
          </CharString>
          <CharString index="127">
            111 54 51 100 124 22 -80 -46 3 vhcurveto
            endchar
          </CharString>
          <CharString index="128">
            -21 86 39 246 -20 hstem
            174 41 vstem
            174 return
          </CharString>
          <CharString index="129">
            360 -20 57 -20 hstemhm
            84 41 return
          </CharString>
          <CharString index="130">
            22 -26 callgsubr
            return
          </CharString>
          <CharString index="131">
            -75 -56 73 32 vhcurveto
            150 vlineto
            return
          </CharString>
          <CharString index="132">
            hintmask 1011101010000000
            -12 -8 -10 -13 -12 8 -9 12 hvcurveto
            return
          </CharString>
          <CharString index="133">
            655 rmoveto
            104 -55 rlineto
            -1 3 3 -2 3 hhcurveto
            return
          </CharString>
          <CharString index="134">
            -73 0 46 381 45 return
          </CharString>
          <CharString index="135">
            hlineto
            28 179 rlineto
            hintmask 11010000
            13 -9 11 -16 return
          </CharString>
          <CharString index="136">
            vlineto
            12 -10 8 -14 vhcurveto
            -289 -177 rmoveto
            return
          </CharString>
          <CharString index="137">
            86 65 51 64 74 61 -68 -69 vhcurveto
            endchar
          </CharString>
          <CharString index="138">
            -6 13 12 13 6 15 vhcurveto
            return
          </CharString>
          <CharString index="139">
            15 -21 737 -20 return
          </CharString>
          <CharString index="140">
            -14 -3 callgsubr
            return
          </CharString>
          <CharString index="141">
            -21 156 -20 hstem
            return
          </CharString>
          <CharString index="142">
            hlineto
            -12 -9 -10 -13 return
          </CharString>
          <CharString index="143">
            472 rmoveto
            -13 -11 -8 -12 hvcurveto
            -50 vlineto
            return
          </CharString>
          <CharString index="144">
            -67 callgsubr
            hvcurveto
            -14 callsubr
            return
          </CharString>
        <CharString name=".notdef">
          -138 106 -21 303 -20 hstem
          56 214 vstem
          60 119 rmoveto
          -2 -4 -2 -4 -5 vvcurveto
          -11 11 -10 13 7 6 3 7 5 vhcurveto
          66 101 66 -101 rlineto
          -7 4 7 -3 6 hhcurveto
          13 10 10 11 5 -1 4 -3 4 hvcurveto
          -75 117 76 118 rlineto
          -47 callsubr
          4 4 vvcurveto
          13 -11 9 -12 -6 -8 -4 -6 -4 vhcurveto
          -66 -103 -66 103 rlineto
          6 -5 -6 4 -7 hhcurveto
          -13 -11 -10 -12 -4 2 -4 2 -4 hvcurveto
          77 -118 rlineto
          endchar
        </CharString>
        <CharString name="A">
          -23 callgsubr
          hstem
          -106 callsubr
          endchar
        </CharString>
        <CharString name="AE">
          231 -54 callsubr
          hstem
          76 49 239 50 vstem
          414 683 rmoveto
          236 hlineto
          13 7 12 13 11 -6 12 -14 hvcurveto
          -373 hlineto
          -112 -89 -25 callsubr
          hvcurveto
          -494 vlineto
          -15 7 -12 17 22 3 12 15 vhcurveto
          316 239 -321 -57 callgsubr
          262 hlineto
          14 6 12 11 13 -7 12 -13 hvcurveto
          -236 295 154 37 callgsubr
          -154 hlineto
          -289 132 rmoveto
          111 57 51 95 vhcurveto
          87 -294 -239 hlineto
          endchar
        </CharString>
        <CharString name="AEacute">
          231 -54 callsubr
          222 -20 hstem
          76 49 239 50 vstem
          421 910 -107 callsubr
          93 -172 rmoveto
          236 hlineto
          13 7 12 13 11 -6 12 -14 hvcurveto
          -373 hlineto
          -112 -89 -25 callsubr
          hvcurveto
          -494 vlineto
          -15 7 -12 17 22 3 12 15 vhcurveto
          316 239 -321 -57 callgsubr
          262 hlineto
          14 6 12 11 13 -7 12 -13 hvcurveto
          -236 295 154 37 callgsubr
          -154 hlineto
          -289 132 rmoveto
          111 57 51 95 vhcurveto
          87 -294 -239 hlineto
          endchar
        </CharString>
        <CharString name="Aacute">
          -23 callgsubr
          237 -20 hstem
          -106 callsubr
          -65 691 -94 callsubr
        </CharString>
        <CharString name="Abreve">
          -23 callgsubr
          139 -38 callgsubr
          153 -4 callsubr
          hintmask 11101110
          -106 callsubr
          -55 749 rmoveto
          hintmask 11110110
          -39 callsubr
          hintmask 11101110
          -88 callsubr
        </CharString>
        <CharString name="Acircumflex">
          64 21 -21 737 -20 237 -20 hstem
          -106 callsubr
          -130 692 -107 callgsubr
          endchar
        </CharString>
        <CharString name="Adieresis">
          -23 callgsubr
          137 65 hstem
          174 65 52 65 vstem
          -106 callsubr
          -188 699 -105 callgsubr
          endchar
        </CharString>
        <CharString name="Agrave">
          -23 callgsubr
          237 -20 hstem
          -106 callsubr
          -92 636 -105 callsubr
        </CharString>
        <CharString name="Amacron">
          -23 callgsubr
          182 42 hstem
          -106 callsubr
          -259 699 rmoveto
          -95 callsubr
          endchar
        </CharString>
        <CharString name="Aogonek">
          64 -198 31 188 -20 callsubr
          hstemhm
          384 34 -34 123 hintmask 11111000
          481 -167 rmoveto
          9 callgsubr
          51 32 38 41 38 hvcurveto
          hintmask 11110100
          9 4 7 7 8 3 -1 1 2 vvcurveto
          -212 691 rlineto
          12 -4 -12 6 -12 hhcurveto
          -13 -11 -6 -12 -4 hvcurveto
          -214 -691 2 callgsubr
          -2 -2 vvcurveto
          -14 15 -8 13 10 8 4 11 4 vhcurveto
          48 159 rlineto
          288 hlineto
          49 -159 rlineto
          -44 -39 -30 -47 -56 -70 callsubr
          vhcurveto
          -347 387 rmoveto
          132 427 129 -427 rlineto
          endchar
        </CharString>
        <CharString name="Aring">
          -23 callgsubr
          122 27 129 30 hstem
          174 28 125 29 vstem
          -106 callsubr
          -130 805 -80 callgsubr
          endchar
        </CharString>
        <CharString name="Atilde">
          -23 callgsubr
          154 10 callgsubr
          hintmask 11101000
          -106 callsubr
          -193 687 rmoveto
          hintmask 11110000
          -90 callsubr
          hintmask 11101000
          -89 callgsubr
          endchar
        </CharString>
        <CharString name="B">
          66 0 48 325 46 264 48 hstemhm
          79 50 285 50 -32 50 hintmask 11110100
          79 21 rmoveto
          -11 9 -10 15 vhcurveto
          182 hlineto
          111 86 53 151 hvcurveto
          18 vlineto
          103 -41 45 -62 26 vhcurveto
          hintmask 11111000
          51 22 34 59 86 vvcurveto
          140 -90 28 -115 vhcurveto
          -156 hlineto
          -12 -12 -7 -15 hvcurveto
          50 -661 rmoveto
          325 152 vlineto
          hintmask 11110100
          94 57 -40 -110 hvcurveto
          -17 vlineto
          -110 -57 -48 -94 vhcurveto
          -152 635 rmoveto
          131 hlineto
          hintmask 11111000
          90 64 -21 -103 -106 -48 -34 -102 hvcurveto
          -135 hlineto
          endchar
        </CharString>
        <CharString name="C">
          -27 callgsubr
          hstemhm
          -48 callgsubr
          hintmask 01101100
          425 557 rmoveto
          -85 callgsubr
          hintmask 10011100
          -66 callgsubr
          endchar
        </CharString>
        <CharString name="CR">
          -466 endchar
        </CharString>
        <CharString name="Cacute">
          -27 callgsubr
          223 -20 hstemhm
          -48 callgsubr
          hintmask 01101110
          336 911 -107 callsubr
          189 -299 rmoveto
          -85 callgsubr
          hintmask 10011110
          -66 callgsubr
          endchar
        </CharString>
        <CharString name="Ccaron">
          -27 callgsubr
          257 -20 hstemhm
          -48 callgsubr
          hintmask 01101110
          173 981 -106 callgsubr
          153 -326 rmoveto
          -85 callgsubr
          hintmask 10011110
          -66 callgsubr
          endchar
        </CharString>
        <CharString name="Ccedilla">
          51 34 callgsubr
          57 48 494 195 -48 48 hstemhm
          72 50 230 37 36 50 hintmask 11110111
          425 557 rmoveto
          -10 5 -11 20 16 9 6 27 84 -70 78 -129 -111 -93 -46 callgsubr
          91 -57 110 vhcurveto
          -21 -84 -80 callsubr
          15 60 rlineto
          107 12 59 72 75 vvcurveto
          28 -9 6 -17 -17 -6 -9 -12 -1 vhcurveto
          -50 -8 -12 -77 -126 hhcurveto
          -103 -54 50 112 hvcurveto
          -14 callsubr
          hintmask 11101111
          20 callsubr
        </CharString>
        <CharString name="Ccircumflex">
          51 -6 48 494 195 -48 48 0 123 100 -20 hstemhm
          -48 callgsubr
          hintmask 10011110
          273 912 -107 callgsubr
          256 -299 rmoveto
          hintmask 11001110
          -85 callgsubr
          -50 -8 -12 -77 -126 hhcurveto
          -103 -54 50 112 hvcurveto
          -14 callsubr
          hintmask 10101110
          20 callsubr
        </CharString>
        <CharString name="Cdotaccent">
          -27 callgsubr
          123 65 hstemhm
          72 50 118 66 119 50 hintmask 01101111
          425 557 rmoveto
          -85 callgsubr
          hintmask 10011111
          -66 callgsubr
          -152 362 -81 callgsubr
        </CharString>
        <CharString name="D">
          88 14 callsubr
          hstem
          79 5 callsubr
          50 vstem
          103 731 rmoveto
          -14 -10 -10 -11 hvcurveto
          -689 vlineto
          -78 callgsubr
          635 hlineto
          endchar
        </CharString>
        <CharString name="Dcaron">
          88 14 callsubr
          257 -20 hstem
          79 5 callsubr
          50 vstem
          178 981 -106 callgsubr
          -174 -152 rmoveto
          -14 -10 -10 -11 hvcurveto
          -689 vlineto
          -78 callgsubr
          635 hlineto
          endchar
        </CharString>
        <CharString name="Dcroat">
          -73 callgsubr
        </CharString>
        <CharString name="Delta">
          32 0 4 callsubr
          hstem
          278 718 rmoveto
          12 -4 -10 7 -15 hhcurveto
          -13 -11 -6 -13 -4 hvcurveto
          -195 -688 rlineto
          -1 -4 -1 -3 -3 vvcurveto
          -13 10 -7 13 vhcurveto
          403 hlineto
          14 9 7 13 3 0 3 -1 4 hvcurveto
          -390 18 rmoveto
          167 600 165 -600 rlineto
          endchar
        </CharString>
        <CharString name="E">
          37 -54 callsubr
          hstem
          79 50 -79 callsubr
          endchar
        </CharString>
        <CharString name="Eacute">
          37 -54 callsubr
          223 -20 hstem
          79 50 vstem
          342 911 -107 callsubr
          -113 -173 -104 callgsubr
          endchar
        </CharString>
        <CharString name="Ebreve">
          37 -54 callsubr
          125 -38 callgsubr
          79 50 37 -4 callsubr
          hintmask 11101111
          -89 callsubr
          224 580 rmoveto
          hintmask 11110111
          -39 callsubr
          hintmask 11101111
          -88 callsubr
        </CharString>
        <CharString name="Ecaron">
          37 -54 callsubr
          257 -20 hstem
          79 50 vstem
          179 981 -106 callgsubr
          -149 -200 -104 callgsubr
          endchar
        </CharString>
        <CharString name="Ecircumflex">
          37 -54 callsubr
          0 123 100 -20 hstemhm
          79 50 hintmask 11011100
          280 912 -107 callgsubr
          hintmask 11101100
          -47 -173 -104 callgsubr
          endchar
        </CharString>
        <CharString name="Edieresis">
          37 -54 callsubr
          123 65 hstem
          79 50 59 65 52 65 vstem
          221 919 -105 callgsubr
          -209 -236 -104 callgsubr
          endchar
        </CharString>
        <CharString name="Edotaccent">
          37 -54 callsubr
          123 65 hstem
          79 50 119 61 -79 callsubr
          152 530 -81 callgsubr
        </CharString>
        <CharString name="Egrave">
          37 -54 callsubr
          223 -20 hstem
          79 50 -79 callsubr
          189 467 -105 callsubr
        </CharString>
        <CharString name="Emacron">
          37 -54 callsubr
          168 42 hstem
          79 50 -79 callsubr
          21 530 rmoveto
          -95 callsubr
          endchar
        </CharString>
        <CharString name="Eng">
          98 -235 46 210 -21 731 -40 callsubr
          355 -189 rmoveto
          -12 -10 -9 -13 -12 8 -12 17 93 33 78 111 hvcurveto
          756 -97 callgsubr
          -591 vlineto
          -289 571 rlineto
          17 -9 -14 24 -18 hhcurveto
          -13 -12 -5 -16 hvcurveto
          -59 callgsubr
          591 vlineto
          294 -576 rlineto
          9 -17 3 -11 -8 vvcurveto
          -47 vlineto
          -82 -9 -61 -71 vhcurveto
          endchar
        </CharString>
        <CharString name="Eogonek">
          37 -198 31 167 48 295 -11 callgsubr
          hstemhm
          79 50 233 34 -34 118 hintmask 11111010
          129 683 rmoveto
          330 hlineto
          13 8 12 13 11 -6 12 -15 hvcurveto
          -356 hlineto
          -12 -12 -7 -15 hvcurveto
          -687 -57 callgsubr
          317 hlineto
          -35 -36 -23 -42 -49 -70 callsubr
          vhcurveto
          hintmask 11111100
          9 callgsubr
          51 31 38 41 37 hvcurveto
          hintmask 11111010
          8 4 4 8 9 vvcurveto
          13 -8 12 -13 vhcurveto
          -330 295 159 37 callgsubr
          -159 hlineto
          endchar
        </CharString>
        <CharString name="Eth">
          -73 callgsubr
        </CharString>
        <CharString name="Euro">
          107 -6 48 -48 196 68 44 102 44 88 195 -48 48 hstemhm
          35 137 -50 50 302 50 hintmask 1011011010000000
          172 258 rmoveto
          187 hlineto
          11 11 9 13 12 -12 callgsubr
          hvcurveto
          -187 102 187 hlineto
          11 11 9 12 13 -12 callgsubr
          hvcurveto
          -187 73 hlineto
          111 56 51 95 87 64 -43 -83 vhcurveto
          hintmask 1011100110000000
          -14 11 -7 14 15 10 7 19 96 -77 73 -125 -113 -87 4 callgsubr
          -73 -67 vlineto
          25 callsubr
          hintmask 1011100110000000
          67 -102 -67 hlineto
          25 callsubr
          hintmask 0111100110000000
          67 -57 hlineto
          -146 85 -61 115 125 77 73 97 19 -10 7 -15 -14 -10 -7 -14 -1 vhcurveto
          hintmask 1011101010000000
          -84 -64 -43 -87 -98 -53 56 103 vhcurveto
          endchar
        </CharString>
        <CharString name="F">
          26 21 -21 343 -11 callgsubr
          hstem
          79 50 vstem
          79 21 rmoveto
          -15 13 -6 12 13 12 6 15 vhcurveto
          322 159 vlineto
          15 6 12 10 13 -8 11 -13 hvcurveto
          -159 294 329 hlineto
          13 8 12 13 11 -7 12 -14 hvcurveto
          -355 hlineto
          -12 -12 -7 -15 hvcurveto
          endchar
        </CharString>
        <CharString name="G">
          70 -6 -34 callsubr
          hstemhm
          -48 callgsubr
          hintmask 11101100
          425 557 rmoveto
          -100 callgsubr
          hintmask 11011100
          -40 callgsubr
          endchar
        </CharString>
        <CharString name="Gbreve">
          70 -6 -34 callsubr
          125 -38 callgsubr
          72 50 38 -4 callsubr
          40 50 hintmask 1110101111000000
          425 557 rmoveto
          -100 callgsubr
          hintmask 1101011111000000
          -40 callgsubr
          -78 412 rmoveto
          hintmask 1110101111000000
          -39 callsubr
          hintmask 1110011111000000
          -88 callsubr
        </CharString>
        <CharString name="Gcircumflex">
          70 -6 -34 callsubr
          0 123 100 -20 hstemhm
          -48 callgsubr
          hintmask 11001111
          271 912 -107 callgsubr
          258 -299 rmoveto
          hintmask 11100111
          -100 callgsubr
          hintmask 11010111
          -40 callgsubr
          endchar
        </CharString>
        <CharString name="Gcommaaccent">
          70 -128 -21 143 -34 callsubr
          hstemhm
          -48 callgsubr
          hintmask 11110110
          330 -104 callsubr
          195 703 rmoveto
          -100 callgsubr
          hintmask 11101110
          -40 callgsubr
          endchar
        </CharString>
        <CharString name="Gdotaccent">
          70 -6 -34 callsubr
          123 65 hstemhm
          72 50 118 66 119 50 hintmask 11101111
          425 557 rmoveto
          -100 callgsubr
          hintmask 11011111
          -40 callgsubr
          -152 362 -81 callgsubr
        </CharString>
        <CharString name="H">
          97 21 -21 356 46 329 -40 callsubr
          434 -93 callgsubr
          -308 -305 308 -97 callgsubr
          -59 callgsubr
          334 305 vlineto
          endchar
        </CharString>
        <CharString name="Hbar">
          99 21 -21 356 46 140 42 -42 189 hstemhm
          80 50 305 50 hintmask 11101100
          435 22 rmoveto
          -92 callgsubr
          520 39 vlineto
          11 9 9 11 12 -9 10 -11 hvcurveto
          -39 126 hlineto
          hintmask 11011100
          -99 callgsubr
          hintmask 11101100
          -126 -305 126 vlineto
          hintmask 11011100
          -99 callgsubr
          hintmask 11101100
          -126 -40 vlineto
          -12 -8 -10 -12 -11 8 -9 12 hvcurveto
          40 -520 hlineto
          -92 callgsubr
          334 305 vlineto
          -305 46 rmoveto
          140 305 -140 vlineto
          endchar
        </CharString>
        <CharString name="Hcircumflex">
          97 21 -21 356 46 329 -20 243 -40 callsubr
          282 912 -107 callgsubr
          256 -834 rmoveto
          -92 callgsubr
          -77 callsubr
          -308 -305 308 -97 callgsubr
          -59 callgsubr
          334 305 vlineto
          endchar
        </CharString>
        <CharString name="I">
          -36 callgsubr
          hstem
          79 50 vstem
          79 -93 callgsubr
          endchar
        </CharString>
        <CharString name="IJ">
          242 -6 48 -48 196 -169 -21 683 48 hstemhm
          79 50 100 5 callsubr
          50 hintmask 00111110
          79 -93 callgsubr
          503 -27 rmoveto
          -479 vlineto
          hintmask 10011110
          0 callgsubr
          hintmask 01011110
          -67 callsubr
        </CharString>
        <CharString name="Iacute">
          -36 callgsubr
          243 -20 hstem
          79 50 vstem
          79 -93 callgsubr
          86 201 -94 callsubr
        </CharString>
        <CharString name="Ibreve">
          -36 callgsubr
          145 -38 callgsubr
          -8 38 49 50 50 38 hintmask 11011110
          79 -93 callgsubr
          100 259 rmoveto
          hintmask 11101110
          -39 callsubr
          hintmask 11011110
          -88 callsubr
        </CharString>
        <CharString name="Icircumflex">
          -36 callgsubr
          243 -20 hstem
          79 50 vstem
          79 -93 callgsubr
          26 202 -107 callgsubr
          endchar
        </CharString>
        <CharString name="Idieresis">
          -36 callgsubr
          143 65 hstem
          13 65 1 50 1 65 cntrmask 00011100
          79 -93 callgsubr
          -33 209 -105 callgsubr
          endchar
        </CharString>
        <CharString name="Idotaccent">
          -36 callgsubr
          143 65 hstem
          79 50 vstem
          79 -93 callgsubr
          25 209 -81 callgsubr
        </CharString>
        <CharString name="Igrave">
          -36 callgsubr
          243 -20 hstem
          79 50 vstem
          79 -93 callgsubr
          63 146 -105 callsubr
        </CharString>
        <CharString name="Imacron">
          -36 callgsubr
          188 42 hstem
          79 50 vstem
          79 -93 callgsubr
          -104 209 rmoveto
          -95 callsubr
          endchar
        </CharString>
        <CharString name="Iogonek">
          -257 -194 31 894 -20 hstem
          16 34 30 50 vstem
          113 -163 rmoveto
          9 callgsubr
          49 29 38 39 36 hvcurveto
          7 3 5 6 10 vvcurveto
          -77 callsubr
          -688 vlineto
          -4 0 -3 2 -3 vhcurveto
          -40 -38 -26 -45 -52 -70 callsubr
          vhcurveto
          endchar
        </CharString>
        <CharString name="Itilde">
          -36 callgsubr
          160 10 callgsubr
          79 50 hintmask 11011000
          79 -93 callgsubr
          -38 197 rmoveto
          hintmask 11101000
          -90 callsubr
          hintmask 11011000
          -89 callgsubr
          endchar
        </CharString>
        <CharString name="J">
          37 -6 48 -48 196 493 48 hstemhm
          24 5 callsubr
          50 hintmask 10111000
          377 683 rmoveto
          -479 vlineto
          0 callgsubr
          hintmask 01111000
          -67 callsubr
        </CharString>
        <CharString name="Jcircumflex">
          37 -6 48 641 48 0 123 100 -20 hstemhm
          24 5 callsubr
          50 hintmask 10111100
          252 912 -107 callgsubr
          hintmask 11011100
          229 -173 rmoveto
          -479 vlineto
          0 callgsubr
          -67 callsubr
        </CharString>
        <CharString name="K">
          48 20 -21 22 -4 callgsubr
          hstemhm
          79 50 hintmask 01110000
          26 callgsubr
          239 vlineto
          90 112 242 -362 rlineto
          hintmask 10110000
          -53 callsubr
        </CharString>
        <CharString name="Kcommaaccent">
          48 23 callgsubr
          731 -20 hstemhm
          79 50 hintmask 10111000
          317 -104 callsubr
          -138 168 rmoveto
          -92 callgsubr
          239 vlineto
          90 112 242 -362 rlineto
          hintmask 11011000
          -53 callsubr
        </CharString>
        <CharString name="L">
          -9 33 callgsubr
          hstem
          79 50 vstem
          424 hmoveto
          13 6 12 12 12 -6 12 -13 hvcurveto
          -295 662 hlineto
          -99 callgsubr
          -688 -57 callgsubr
          endchar
        </CharString>
        <CharString name="Lacute">
          -9 33 callgsubr
          243 -20 hstem
          79 50 vstem
          320 911 -107 callsubr
          204 -856 rmoveto
          13 6 12 12 12 -6 12 -13 hvcurveto
          -295 662 hlineto
          -99 callgsubr
          -688 -57 callgsubr
          endchar
        </CharString>
        <CharString name="Lcaron">
          -9 33 callgsubr
          30 -20 hstemhm
          79 50 162 81 hintmask 10111000
          332 741 -83 callsubr
          92 -741 rmoveto
          13 6 12 12 12 -6 12 -13 hvcurveto
          -295 662 hlineto
          hintmask 11011000
          -99 callgsubr
          -688 -57 callgsubr
          endchar
        </CharString>
        <CharString name="Lcommaaccent">
          -9 -128 -21 149 48 683 -20 hstem
          79 50 vstem
          313 -104 callsubr
          211 146 rmoveto
          13 6 12 12 12 -6 12 -13 hvcurveto
          -295 662 hlineto
          -99 callgsubr
          -688 -57 callgsubr
          endchar
        </CharString>
        <CharString name="Ldot">
          -9 0 48 333 80 270 -20 hstem
          79 50 159 81 vstem
          424 hmoveto
          13 6 12 12 12 -6 12 -13 hvcurveto
          -295 662 hlineto
          -99 callgsubr
          -688 -57 callgsubr
          226 461 -37 callsubr
        </CharString>
        <CharString name="Lslash">
          -3 33 callgsubr
          hstem
          85 50 vstem
          430 hmoveto
          13 6 12 12 12 -6 12 -13 hvcurveto
          -295 276 hlineto
          128 72 rlineto
          6 4 4 7 7 vvcurveto
          12 -10 11 -12 -3 -3 0 -2 -3 vhcurveto
          -107 -61 rlineto
          336 -97 callgsubr
          -364 vlineto
          -71 -40 rlineto
          -7 -3 -3 -7 -6 vvcurveto
          -13 11 -12 10 3 3 1 2 3 vhcurveto
          51 28 rlineto
          -274 -57 callgsubr
          endchar
        </CharString>
        <CharString name="M">
          193 -48 callsubr
          hstem
          79 50 401 50 vstem
          530 617 rmoveto
          -595 vlineto
          -37 callgsubr
          13 12 13 -8 callsubr
          685 vlineto
          18 -12 6 -13 -18 -15 -24 -17 -9 vhcurveto
          -184 -358 -183 358 rlineto
          17 -9 -16 24 -17 hhcurveto
          -13 -12 -6 -18 hvcurveto
          -685 vlineto
          -92 callgsubr
          596 vlineto
          177 -341 rlineto
          -15 7 6 -6 10 hhcurveto
          5 10 7 14 8 hvcurveto
          endchar
        </CharString>
        <CharString name="N">
          97 21 -21 731 -40 callsubr
          459 hmoveto
          -96 callgsubr
          endchar
        </CharString>
        <CharString name="Nacute">
          97 -48 callsubr
          243 -40 callsubr
          340 911 -107 callsubr
          219 -856 rmoveto
          -96 callgsubr
          endchar
        </CharString>
        <CharString name="Ncaron">
          97 -48 callsubr
          277 -40 callsubr
          182 981 -106 callgsubr
          178 -883 rmoveto
          -96 callgsubr
          endchar
        </CharString>
        <CharString name="Ncommaaccent">
          97 28 callgsubr
          731 -40 callsubr
          339 -104 callsubr
          220 146 rmoveto
          -96 callgsubr
          endchar
        </CharString>
        <CharString name="Ntilde">
          97 -48 callsubr
          160 10 callgsubr
          79 50 305 50 hintmask 11011100
          459 hmoveto
          -96 callgsubr
          -242 907 rmoveto
          hintmask 11101100
          -90 callsubr
          hintmask 11011100
          -89 callgsubr
          endchar
        </CharString>
        <CharString name="O">
          -31 callgsubr
          hstem
          -48 callgsubr
          vstem
          273 -91 callgsubr
          endchar
        </CharString>
        <CharString name="OE">
          376 0 48 -33 -21 349 -11 callgsubr
          hstemhm
          72 5 callsubr
          49 hintmask 01111100
          269 -6 rmoveto
          66 59 21 51 34 hvcurveto
          -44 vlineto
          hintmask 10111100
          -37 callgsubr
          12 vhcurveto
          347 hlineto
          14 6 12 11 13 -7 12 -13 hvcurveto
          -325 295 154 hlineto
          14 6 12 10 13 -7 11 -13 hvcurveto
          -154 294 325 hlineto
          13 7 12 13 11 -6 12 -14 hvcurveto
          -347 hlineto
          -12 -12 -7 -15 hvcurveto
          -50 vlineto
          51 -34 -59 21 -66 hhcurveto
          -112 -85 -25 callsubr
          hvcurveto
          -317 vlineto
          hintmask 01111100
          -153 85 -57 112 vhcurveto
          156 210 rmoveto
          -84 callsubr
          -72 callsubr
          endchar
        </CharString>
        <CharString name="Oacute">
          -31 callgsubr
          223 -20 hstem
          -48 callgsubr
          vstem
          339 911 -107 callsubr
          34 -862 rmoveto
          37 callsubr
          153 -89 57 -113 -114 -87 -46 callgsubr
          87 -18 callgsubr
          vhcurveto
          152 210 rmoveto
          -84 callsubr
          -72 callsubr
          endchar
        </CharString>
        <CharString name="Obreve">
          -31 callgsubr
          125 -38 callgsubr
          72 50 38 -4 callsubr
          40 50 hintmask 11011111
          273 -91 callgsubr
          -78 448 rmoveto
          hintmask 11101111
          -39 callsubr
          hintmask 11011111
          -88 callsubr
        </CharString>
        <CharString name="Ocircumflex">
          -31 callgsubr
          0 123 100 -20 hstemhm
          -48 callgsubr
          hintmask 10111100
          273 912 -107 callgsubr
          104 -862 rmoveto
          37 callsubr
          153 -89 57 -113 -114 -87 -46 callgsubr
          87 -18 callgsubr
          vhcurveto
          152 210 rmoveto
          -84 callsubr
          hintmask 11011100
          -72 callsubr
          endchar
        </CharString>
        <CharString name="Odieresis">
          -31 callgsubr
          123 65 hstem
          72 50 60 65 52 65 61 50 vstem
          215 919 -105 callgsubr
          -59 -925 rmoveto
          37 callsubr
          153 -89 57 -113 -114 -87 -46 callgsubr
          87 -18 callgsubr
          vhcurveto
          152 210 rmoveto
          -84 callsubr
          -72 callsubr
          endchar
        </CharString>
        <CharString name="Ograve">
          -31 callgsubr
          223 -20 hstem
          -48 callgsubr
          vstem
          273 -91 callgsubr
          -114 335 -105 callsubr
        </CharString>
        <CharString name="Ohungarumlaut">
          -31 callgsubr
          223 -20 hstem
          -48 callgsubr
          vstem
          295 915 -100 callsubr
          -77 -863 rmoveto
          37 callsubr
          153 -89 57 -113 -114 -87 -46 callgsubr
          87 -18 callgsubr
          vhcurveto
          152 210 rmoveto
          -84 callsubr
          -72 callsubr
          endchar
        </CharString>
        <CharString name="Omacron">
          -31 callgsubr
          168 42 hstem
          -48 callgsubr
          vstem
          143 919 rmoveto
          -95 callsubr
          130 -925 rmoveto
          37 callsubr
          153 -89 57 -113 -114 -87 -46 callgsubr
          87 -18 callgsubr
          vhcurveto
          152 210 rmoveto
          -84 callsubr
          -72 callsubr
          endchar
        </CharString>
        <CharString name="Omega">
          74 0 47 636 48 hstemhm
          57 168 -156 51 196 167 -62 50 hintmask 11101000
          316 hmoveto
          147 hlineto
          12 8 11 13 13 -9 10 -11 hvcurveto
          -106 36 hlineto
          hintmask 11010100
          67 25 47 61 111 vvcurveto
          241 vlineto
          153 -87 57 -114 -113 -88 4 callgsubr
          -241 vlineto
          -111 46 -61 69 -25 vhcurveto
          -36 -106 vlineto
          hintmask 11101000
          -11 -10 -10 -13 -13 9 -11 12 hvcurveto
          147 123 hlineto
          hintmask 11010100
          -69 14 -36 51 92 vvcurveto
          241 vlineto
          111 55 51 95 95 56 -51 -111 vhcurveto
          -241 vlineto
          hintmask 11101000
          -91 -37 -51 -68 -15 vhcurveto
          endchar
        </CharString>
        <CharString name="Oslash">
          81 -6 48 -44 -21 706 48 37 -20 hstemhm
          -48 callgsubr
          hintmask 01111100
          -52 callsubr
          hintmask 10111100
          -35 36 51 -14 58 hhcurveto
          37 callsubr
          56 -12 43 -21 32 vhcurveto
          42 82 rlineto
          -47 callsubr
          3 4 vvcurveto
          14 10 callsubr
          vhcurveto
          -40 -564 rmoveto
          -111 -57 -51 -95 -53 -41 16 33 -26 vhcurveto
          260 505 rlineto
          8 -21 4 -25 -29 vvcurveto
          -303 -317 rmoveto
          -14 callsubr
          111 56 51 95 49 39 -14 -29 26 vhcurveto
          -257 -501 rlineto
          -5 19 -3 21 25 vvcurveto
          endchar
        </CharString>
        <CharString name="Oslashacute">
          81 -6 48 -44 -21 706 48 37 -20 206 -20 hstemhm
          -48 callgsubr
          hintmask 01111110
          -52 callsubr
          hintmask 10111110
          -35 36 51 -14 58 hhcurveto
          37 callsubr
          56 -12 43 -21 32 vhcurveto
          42 82 rlineto
          -47 callsubr
          3 4 vvcurveto
          14 10 callsubr
          vhcurveto
          -40 -564 rmoveto
          -111 -57 -51 -95 -53 -41 16 33 -26 vhcurveto
          260 505 rlineto
          8 -21 4 -25 -29 vvcurveto
          -303 -317 rmoveto
          -14 callsubr
          111 56 51 95 49 39 -14 -29 26 vhcurveto
          -257 -501 rlineto
          -5 19 -3 21 25 vvcurveto
          214 707 -94 callsubr
        </CharString>
        <CharString name="Otilde">
          -31 callgsubr
          140 10 callgsubr
          -48 callgsubr
          hintmask 11011100
          273 -91 callgsubr
          -216 386 rmoveto
          hintmask 11101100
          -90 callsubr
          hintmask 11011100
          -89 callgsubr
          endchar
        </CharString>
        <CharString name="P">
          53 21 -21 301 46 336 48 hstem
          79 50 304 50 vstem
          26 callgsubr
          279 152 vlineto
          113 89 58 152 hvcurveto
          11 vlineto
          152 -88 57 -113 vhcurveto
          -180 hlineto
          -14 -1 -9 -9 -11 vvcurveto
          202 -27 rmoveto
          95 57 -51 -111 hvcurveto
          -11 vlineto
          -111 -57 -52 -95 vhcurveto
          -152 336 hlineto
          endchar
        </CharString>
        <CharString name="Q">
          81 -88 -21 792 48 hstem
          72 50 130 43 130 50 cntrmask 00111000
          274 -109 rmoveto
          10 11 7 15 hvcurveto
          82 vlineto
          103 6 77 59 144 vvcurveto
          -14 callsubr
          153 -89 57 -113 -114 -87 4 callgsubr
          -317 vlineto
          -145 77 -58 103 -6 vhcurveto
          -82 vlineto
          -15 11 -7 11 vhcurveto
          151 313 rmoveto
          -102 -49 -51 -81 -7 vhcurveto
          78 vlineto
          15 -11 6 -10 -11 -11 -6 -15 vhcurveto
          -79 vlineto
          -83 7 -47 51 103 vvcurveto
          -14 callsubr
          -72 callsubr
          endchar
        </CharString>
        <CharString name="R">
          -1 callgsubr
          hstemhm
          79 50 304 50 hintmask 01111100
          26 callgsubr
          319 139 vlineto
          157 -307 rlineto
          hintmask 10111100
          -88 callgsubr
        </CharString>
        <CharString name="Racute">
          -1 callgsubr
          223 -20 hstemhm
          79 50 304 50 hintmask 01111110
          344 911 -107 callsubr
          -165 -834 rmoveto
          -92 callgsubr
          319 139 vlineto
          157 -307 rlineto
          hintmask 10111110
          -88 callgsubr
        </CharString>
        <CharString name="Rcaron">
          -1 callgsubr
          257 -20 hstemhm
          79 50 304 50 hintmask 01111110
          177 981 -106 callgsubr
          -197 -861 rmoveto
          -92 callgsubr
          319 139 vlineto
          157 -307 rlineto
          hintmask 10111110
          -88 callgsubr
        </CharString>
        <CharString name="Rcommaaccent">
          50 -128 -21 169 18 callsubr
          hstemhm
          79 50 304 50 hintmask 10111110
          306 -104 callsubr
          -127 168 rmoveto
          -92 callgsubr
          319 139 vlineto
          157 -307 rlineto
          hintmask 11011110
          -88 callgsubr
        </CharString>
        <CharString name="S">
          21 -6 -23 callsubr
          -35 callsubr
          hintmask 10101010
          233 42 rmoveto
          hintmask 01011001
          -75 callgsubr
          14 callgsubr
          hintmask 10100110
          -83 callgsubr
        </CharString>
        <CharString name="Sacute">
          21 -6 -23 callsubr
          222 -20 -35 callsubr
          hintmask 1010110100000000
          304 911 -107 callsubr
          29 -814 rmoveto
          hintmask 0101110010000000
          -75 callgsubr
          14 callgsubr
          hintmask 1010101100000000
          -83 callgsubr
        </CharString>
        <CharString name="Scaron">
          21 -6 -23 callsubr
          256 -20 -35 callsubr
          hintmask 1010110100000000
          141 981 -106 callgsubr
          -7 -841 rmoveto
          hintmask 0101110010000000
          -75 callgsubr
          14 callgsubr
          hintmask 1010101100000000
          -83 callgsubr
        </CharString>
        <CharString name="Scedilla">
          21 34 callgsubr
          57 -23 callsubr
          hstemhm
          39 68 -50 50 218 37 30 32 -32 50 hintmask 1110101011000000
          233 42 rmoveto
          hintmask 1101011010100000
          -130 -18 84 -23 hhcurveto
          -10 -13 -15 -13 -32 71 -72 128 hvcurveto
          8 hlineto
          -21 -84 -80 callsubr
          15 60 rlineto
          95 14 65 62 124 281 -335 -120 201 vvcurveto
          14 callgsubr
          hintmask 1110100111000000
          -83 callgsubr
        </CharString>
        <CharString name="Scircumflex">
          21 -6 48 604 86 -48 48 0 122 100 -20 -35 callsubr
          hintmask 1001110010000000
          240 912 -107 callgsubr
          97 -814 rmoveto
          -75 callgsubr
          hintmask 1010110100000000
          14 callgsubr
          hintmask 1100101100000000
          -83 callgsubr
        </CharString>
        <CharString name="Scommaaccent">
          21 -128 -21 143 -23 callsubr
          -35 callsubr
          hintmask 1101010100000000
          314 -104 callsubr
          19 188 rmoveto
          hintmask 1010110010000000
          -75 callgsubr
          14 callgsubr
          hintmask 1101001100000000
          -83 callgsubr
        </CharString>
        <CharString name="T">
          2 21 -21 683 48 hstem
          210 50 vstem
          36 731 -63 callgsubr
        </CharString>
        <CharString name="Tbar">
          4 21 -21 343 44 296 48 hstem
          211 50 vstem
          37 731 rmoveto
          -13 -8 -12 -12 -12 8 -12 13 hvcurveto
          174 -296 -139 hlineto
          -13 -7 -11 -11 -11 7 -11 13 hvcurveto
          139 -321 hlineto
          -37 callgsubr
          13 12 13 -8 callsubr
          321 137 vlineto
          15 6 12 11 11 -7 10 -14 hvcurveto
          -137 296 172 hlineto
          15 6 13 12 12 -7 11 -14 hvcurveto
          endchar
        </CharString>
        <CharString name="Tcaron">
          2 21 -21 683 48 257 -20 hstem
          210 50 vstem
          134 981 -106 callgsubr
          -197 -152 -63 callgsubr
        </CharString>
        <CharString name="Tcommaaccent">
          2 28 callgsubr
          683 48 hstem
          210 50 vstem
          294 -104 callsubr
          -158 877 -63 callgsubr
        </CharString>
        <CharString name="Thorn">
          22 0 180 -46 46 392 47 114 -20 hstemhm
          79 49 264 49 hintmask 10111100
          103 733 rmoveto
          -13 -11 -7 -13 hvcurveto
          -691 vlineto
          -11 11 -11 14 13 11 11 11 vhcurveto
          190 vlineto
          hintmask 01111100
          -46 18 66 -32 62 hhcurveto
          81 86 56 98 hvcurveto
          178 vlineto
          98 -83 55 -89 -72 -46 -36 -40 -23 vhcurveto
          169 vlineto
          13 -10 8 -15 vhcurveto
          289 -445 rmoveto
          -72 -64 -36 -63 -79 -58 57 50 vhcurveto
          179 vlineto
          63 65 43 72 64 63 -35 -71 vhcurveto
          endchar
        </CharString>
        <CharString name="U">
          -33 callsubr
          -78 callsubr
          endchar
        </CharString>
        <CharString name="Uacute">
          -33 callsubr
          243 -20 hstem
          76 50 305 50 vstem
          342 911 -107 callsubr
          189 -652 rmoveto
          -111 -58 -51 -95 -95 -57 -25 callgsubr
          506 -97 callgsubr
          -506 vlineto
          -153 88 -18 callgsubr
          114 -21 callgsubr
          506 vlineto
          15 -13 6 -12 -13 -12 -6 -15 vhcurveto
          endchar
        </CharString>
        <CharString name="Ubreve">
          -33 callsubr
          145 -38 callgsubr
          76 50 39 -4 callsubr
          41 50 hintmask 11011111
          431 204 rmoveto
          -111 -58 -51 -95 -95 -57 -25 callgsubr
          506 -97 callgsubr
          -506 vlineto
          -153 88 -18 callgsubr
          114 -21 callgsubr
          506 vlineto
          15 -13 6 -12 -13 -12 -6 -15 vhcurveto
          -79 259 rmoveto
          hintmask 11101111
          -39 callsubr
          hintmask 11011111
          -88 callsubr
        </CharString>
        <CharString name="Ucircumflex">
          -33 callsubr
          243 -20 hstem
          76 50 305 50 vstem
          277 912 -107 callgsubr
          258 -652 rmoveto
          -111 -58 -51 -95 -95 -57 -25 callgsubr
          506 -97 callgsubr
          -506 vlineto
          -153 88 -18 callgsubr
          114 -21 callgsubr
          506 vlineto
          15 -13 6 -12 -13 -12 -6 -15 vhcurveto
          endchar
        </CharString>
        <CharString name="Udieresis">
          -33 callsubr
          143 65 hstem
          76 50 61 65 52 65 62 50 vstem
          220 919 -105 callgsubr
          94 -715 rmoveto
          -111 -58 -51 -95 -95 -57 -25 callgsubr
          506 -97 callgsubr
          -506 vlineto
          -153 88 -18 callgsubr
          114 -21 callgsubr
          506 vlineto
          15 -13 6 -12 -13 -12 -6 -15 vhcurveto
          endchar
        </CharString>
        <CharString name="Ugrave">
          -60 callgsubr
          -116 146 -105 callsubr
        </CharString>
        <CharString name="Uhungarumlaut">
          -60 callgsubr
          -121 205 -100 callsubr
          endchar
        </CharString>
        <CharString name="Umacron">
          -33 callsubr
          188 42 -78 callsubr
          -283 209 rmoveto
          -95 callsubr
          endchar
        </CharString>
        <CharString name="Uogonek">
          91 -198 31 161 4 callsubr
          hstem
          76 50 116 34 155 50 vstem
          431 204 rmoveto
          -111 -58 -51 -95 -95 -57 -25 callgsubr
          506 -97 callgsubr
          -506 vlineto
          -153 88 -18 callgsubr
          5 6 0 1 6 vhcurveto
          -33 -36 -20 -40 -46 -70 callsubr
          9 callgsubr
          51 32 38 40 37 vhcurveto
          78 21 55 61 120 vvcurveto
          506 vlineto
          15 -13 6 -12 -13 -12 -6 -15 vhcurveto
          endchar
        </CharString>
        <CharString name="Uring">
          -33 callsubr
          128 27 129 30 hstem
          76 50 61 28 125 29 62 50 vstem
          278 1025 -80 callgsubr
          91 -729 rmoveto
          -111 -58 -51 -95 -95 -57 -25 callgsubr
          506 -97 callgsubr
          -506 vlineto
          -153 88 -18 callgsubr
          114 -21 callgsubr
          506 vlineto
          15 -13 6 -12 -13 -12 -6 -15 vhcurveto
          endchar
        </CharString>
        <CharString name="Utilde">
          -33 callsubr
          160 10 callgsubr
          76 50 305 50 hintmask 11011100
          431 204 rmoveto
          -111 -58 -51 -95 -95 -57 -25 callgsubr
          506 -97 callgsubr
          -506 vlineto
          -153 88 -18 callgsubr
          114 -21 callgsubr
          506 vlineto
          15 -13 6 -12 -13 -12 -6 -15 vhcurveto
          -217 197 rmoveto
          hintmask 11101100
          -90 callsubr
          hintmask 11011100
          -89 callgsubr
          endchar
        </CharString>
        <CharString name="V">
          62 32 callsubr
          hstem
          237 12 rmoveto
          -12 4 11 -6 13 hhcurveto
          12 13 6 12 3 hvcurveto
          212 691 rlineto
          2 1 1 3 vvcurveto
          12 -15 10 -14 -9 -8 -4 -11 -3 vhcurveto
          -192 -632 -193 632 rlineto
          11 -4 -8 4 -10 hhcurveto
          -13 -15 -8 -14 -2 0 -2 1 -2 hvcurveto
          endchar
        </CharString>
        <CharString name="W">
          12 callgsubr
          hstem
          737 703 -102 callgsubr
          endchar
        </CharString>
        <CharString name="Wacute">
          0 callsubr
          444 911 -107 callsubr
          393 -153 -102 callgsubr
          endchar
        </CharString>
        <CharString name="Wcircumflex">
          0 callsubr
          381 912 -107 callgsubr
          460 -153 -102 callgsubr
          endchar
        </CharString>
        <CharString name="Wdieresis">
          12 callgsubr
          143 65 hstem
          290 65 52 65 vstem
          323 919 -105 callgsubr
          297 -216 -102 callgsubr
          endchar
        </CharString>
        <CharString name="Wgrave">
          0 callsubr
          737 703 -102 callgsubr
          -123 844 -105 callsubr
        </CharString>
        <CharString name="X">
          -1 20 -21 733 -20 hstem
          381 33 rmoveto
          -14 7 8 -20 15 hhcurveto
          14 14 11 14 4 -2 4 -2 5 hvcurveto
          -173 329 170 326 rlineto
          4 7 2 6 6 vvcurveto
          13 -12 8 -16 -15 -9 -21 -14 -8 vhcurveto
          -146 -283 -145 283 rlineto
          16 -8 -10 19 -14 hhcurveto
          -16 -12 -8 -13 -6 2 -6 4 -7 hvcurveto
          169 -326 -172 -329 rlineto
          -2 -5 -2 -4 -4 vvcurveto
          -14 15 -11 13 15 8 20 14 7 vhcurveto
          148 286 rlineto
          endchar
        </CharString>
        <CharString name="Y">
          54 -48 callsubr
          hstem
          235 50 vstem
          -101 callsubr
          endchar
        </CharString>
        <CharString name="Yacute">
          54 -48 callsubr
          243 -20 hstem
          235 50 vstem
          -101 callsubr
          87 635 -94 callsubr
        </CharString>
        <CharString name="Ycircumflex">
          54 -48 callsubr
          243 -20 hstem
          235 50 vstem
          -101 callsubr
          25 636 -107 callgsubr
          endchar
        </CharString>
        <CharString name="Ydieresis">
          54 -48 callsubr
          143 65 hstem
          169 65 1 50 1 65 cntrmask 00011100
          -101 callsubr
          -33 643 -105 callgsubr
          endchar
        </CharString>
        <CharString name="Ygrave">
          54 -48 callsubr
          243 -20 hstem
          235 50 vstem
          -101 callsubr
          62 580 -105 callsubr
        </CharString>
        <CharString name="Z">
          8 14 callsubr
          hstem
          432 692 -86 callsubr
          endchar
        </CharString>
        <CharString name="Zacute">
          8 14 callsubr
          223 -20 hstem
          293 911 -107 callsubr
          239 -164 -86 callsubr
          endchar
        </CharString>
        <CharString name="Zcaron">
          8 14 callsubr
          257 -20 hstem
          129 981 -106 callgsubr
          204 -191 -86 callsubr
          endchar
        </CharString>
        <CharString name="Zdotaccent">
          8 14 callsubr
          123 65 hstem
          198 66 vstem
          432 692 -86 callsubr
          140 871 -81 callgsubr
        </CharString>
        <CharString name="a">
          -66 callsubr
          hstemhm
          33 49 238 49 hintmask 10110110
          -61 callgsubr
          hintmask 10101110
          -97 callsubr
          hintmask 01110110
          -84 callgsubr
          hintmask 10110110
          -76 callgsubr
          endchar
        </CharString>
        <CharString name="a.ss01">
          -25 -6 44 182 39 146 73 hstemhm
          33 49 238 49 vstemhm
          197 478 rmoveto
          -63 -67 -23 -24 -9 8 -17 14 hvcurveto
          hintmask 11111000
          13 29 28 62 hhcurveto
          93 34 -77 -70 hvcurveto
          -27 -54 vlineto
          -140 -93 -26 -109 -89 63 -41 74 68 50 35 41 38 hvcurveto
          -46 5 21 -30 53 hhcurveto
          13 12 9 16 13 -9 8 -11 1 hvcurveto
          -28 -13 22 38 hvcurveto
          185 vlineto
          99 -45 93 -127 vhcurveto
          123 -332 rmoveto
          -44 -71 -64 -74 -51 -42 29 59 85 87 9 102 vhcurveto
          49 hlineto
          endchar
        </CharString>
        <CharString name="aacute">
          -66 callsubr
          219 -20 -90 callgsubr
          -56 434 -94 callsubr
        </CharString>
        <CharString name="abreve">
          -66 callsubr
          121 -38 callgsubr
          33 49 16 -4 callsubr
          -3 49 hintmask 1011010111000000
          -61 callgsubr
          hintmask 1010110110100000
          -97 callsubr
          hintmask 0111010110100000
          -84 callgsubr
          hintmask 1011001110100000
          -76 callgsubr
          hintmask 1011001111000000
          -35 492 rmoveto
          hintmask 1011010111000000
          -39 callsubr
          hintmask 1011001111000000
          -88 callsubr
        </CharString>
        <CharString name="acircumflex">
          -35 -6 44 -17 -21 38 182 0 40 0 145 0 73 -45 45 27 callgsubr
          33 49 238 49 hintmask 1001000111100000
          204 655 -107 callgsubr
          96 -121 rmoveto
          -62 -67 -24 -22 hvcurveto
          hintmask 1000101011100000
          -10 8 -17 14 vhcurveto
          -97 callsubr
          hintmask 0101010011100000
          -84 callgsubr
          hintmask 0110010011100000
          -76 callgsubr
          endchar
        </CharString>
        <CharString name="acute">
          -323 617 -21 101 -20 hstem
          132 654 -94 callsubr
        </CharString>
        <CharString name="adieresis">
          -66 callsubr
          119 65 hstemhm
          33 49 28 65 52 65 28 49 hintmask 1011011111000000
          143 -92 callsubr
          -64 -184 rmoveto
          -62 -67 -24 -22 -10 8 -17 14 hvcurveto
          hintmask 1010111111000000
          -97 callsubr
          hintmask 0111011111000000
          -84 callgsubr
          hintmask 1011011111000000
          -76 callgsubr
          endchar
        </CharString>
        <CharString name="ae">
          15 callsubr
          hstemhm
          33 49 236 53 266 48 hintmask 1010011110000000
          503 478 rmoveto
          -68 -58 -41 -55 -30 hvcurveto
          hintmask 1011001110000000
          18 callgsubr
          hintmask 1010101110000000
          -41 callgsubr
          hintmask 0111001110000000
          13 -12 11 -10 vhcurveto
          hintmask 1010011110000000
          -24 callgsubr
          hintmask 1010101110000000
          -35 callgsubr
        </CharString>
        <CharString name="aeacute">
          15 callsubr
          239 -20 hstemhm
          33 49 236 53 266 48 hintmask 1010011111000000
          423 654 -107 callsubr
          180 -121 rmoveto
          -68 -58 -41 -55 -30 hvcurveto
          hintmask 1011001111000000
          18 callgsubr
          hintmask 1010101111000000
          -41 callgsubr
          hintmask 0111001111000000
          13 -12 11 -10 vhcurveto
          hintmask 1010011111000000
          -24 callgsubr
          hintmask 1010101111000000
          -35 callgsubr
        </CharString>
        <CharString name="agrave">
          -66 callsubr
          219 -20 -90 callgsubr
          -80 379 -105 callsubr
        </CharString>
        <CharString name="amacron">
          -66 callsubr
          164 42 -90 callgsubr
          -240 442 rmoveto
          -95 callsubr
          endchar
        </CharString>
        <CharString name="ampersand">
          136 -10 47 -22 -21 640 114 -43 43 hstemhm
          38 51 4 54 341 44 hintmask 10101110
          261 -10 rmoveto
          96 63 44 59 40 hvcurveto
          86 -92 rlineto
          hintmask 01011110
          -5 5 5 -2 5 hhcurveto
          11 12 9 12 4 -2 4 -4 5 hvcurveto
          -94 102 rlineto
          42 85 6 102 38 vvcurveto
          20 -6 9 -15 -17 -6 -7 -17 vhcurveto
          -1 -49 -6 -77 -30 -69 -213 236 rcurveline
          -48 52 -43 52 72 vvcurveto
          77 46 51 77 vhcurveto
          hintmask 10101110
          94 11 -71 23 hhcurveto
          13 10 10 13 24 -48 67 -107 -94 -79 -60 -107 -79 43 -54 40 -49 hvcurveto
          -68 -30 -70 -64 -104 vvcurveto
          -113 80 -98 143 vhcurveto
          8 47 rmoveto
          -116 -64 80 89 92 68 41 48 27 hvcurveto
          223 -240 rlineto
          -52 -31 -48 -37 -80 hhcurveto
          endchar
        </CharString>
        <CharString name="aogonek">
          -35 -198 31 161 44 182 40 145 73 -45 45 hstemhm
          33 49 168 34 36 49 hintmask 11110111
          347 -167 rmoveto
          9 callgsubr
          51 31 38 41 37 hvcurveto
          8 3 5 8 9 vvcurveto
          264 vlineto
          99 -45 93 -128 -62 -67 -24 -22 -10 8 -17 14 vhcurveto
          hintmask 11101111
          -97 callsubr
          -3 0 -3 1 -2 vhcurveto
          -43 -40 -29 -46 -55 -70 callsubr
          vhcurveto
          -27 313 rmoveto
          -76 callgsubr
          endchar
        </CharString>
        <CharString name="approxequal">
          -23 136 43 -7 43 123 43 -7 42 hstemhm
          hintmask 10010000
          158 374 rmoveto
          hintmask 10100000
          55 25 -36 51 hhcurveto
          30 54 18 36 9 -7 10 -10 hvcurveto
          -17 -5 -30 -45 hhcurveto
          hintmask 01010000
          -52 -27 35 -50 hhcurveto
          -34 -55 -23 -31 -11 6 -11 10 hvcurveto
          15 13 34 43 hhcurveto
          -202 vmoveto
          hintmask 10100000
          55 25 -36 51 hhcurveto
          30 54 18 36 9 -7 10 -10 hvcurveto
          -17 -5 -30 -45 hhcurveto
          hintmask 01100000
          -52 -27 36 -50 hhcurveto
          -34 -55 -24 -31 -11 6 -11 10 hvcurveto
          15 13 34 43 hhcurveto
          endchar
        </CharString>
        <CharString name="aring">
          -66 callsubr
          104 27 129 30 hstemhm
          33 49 29 28 125 29 27 49 hintmask 1011011111100000
          -61 callgsubr
          hintmask 1010111111100000
          -97 callsubr
          hintmask 0111011111100000
          -84 callgsubr
          hintmask 1011011111100000
          -76 callgsubr
          -118 548 -80 callgsubr
          endchar
        </CharString>
        <CharString name="arrowdown">
          20 callgsubr
          162 rmoveto
          -5 1 -5 5 -5 vhcurveto
          211 -212 rlineto
          -7 7 6 -3 6 hhcurveto
          7 6 3 7 7 hvcurveto
          211 212 rlineto
          4 5 2 5 5 vvcurveto
          12 -11 12 -13 -5 -5 -2 -4 -4 vhcurveto
          -176 -176 rlineto
          531 vlineto
          13 -10 8 -13 -13 -9 -8 -13 vhcurveto
          -531 vlineto
          -176 176 rlineto
          4 -3 -6 2 -5 hhcurveto
          -12 -12 -10 -14 hvcurveto
          endchar
        </CharString>
        <CharString name="arrowleft">
          30 callgsubr
          307 477 rmoveto
          -5 -5 -2 -4 -5 hvcurveto
          -212 -211 rlineto
          -7 -7 -3 -7 -6 vvcurveto
          -6 3 -6 7 -7 vhcurveto
          212 -211 rlineto
          -5 5 5 -1 5 hhcurveto
          14 10 12 12 5 -2 6 -4 3 hvcurveto
          -176 176 rlineto
          531 hlineto
          13 8 9 13 13 -8 10 -13 hvcurveto
          -531 hlineto
          176 176 rlineto
          4 4 2 5 5 vvcurveto
          13 -12 11 -12 vhcurveto
          endchar
        </CharString>
        <CharString name="arrowright">
          30 callgsubr
          464 477 rmoveto
          -12 -12 -11 -13 -5 2 -5 4 -4 hvcurveto
          176 -176 rlineto
          -531 hlineto
          -13 -8 -10 -13 -13 8 -9 13 hvcurveto
          531 hlineto
          -176 -176 rlineto
          -4 -3 -2 -6 -5 vvcurveto
          -12 10 -12 14 5 5 1 5 5 vhcurveto
          212 211 rlineto
          7 7 3 6 6 vvcurveto
          7 -3 6 -7 7 vhcurveto
          -212 211 rlineto
          4 -5 -5 2 -5 hhcurveto
          endchar
        </CharString>
        <CharString name="arrowup">
          20 callgsubr
          319 rmoveto
          -14 12 -10 12 5 6 2 4 3 vhcurveto
          176 176 rlineto
          -531 vlineto
          -13 9 -8 13 13 10 8 13 vhcurveto
          531 vlineto
          176 -176 rlineto
          -4 4 5 -2 5 hhcurveto
          13 11 12 12 5 -2 5 -4 5 hvcurveto
          -211 212 rlineto
          7 -7 -6 3 -7 hhcurveto
          -6 -6 -3 -7 -7 hvcurveto
          -211 -212 rlineto
          -5 -5 -1 -5 -5 vvcurveto
          endchar
        </CharString>
        <CharString name="asciicircum">
          -62 callsubr
        </CharString>
        <CharString name="asciitilde">
          -65 219 10 callgsubr
          hintmask 01000000
          136 255 rmoveto
          hintmask 10000000
          -90 callsubr
          hintmask 01000000
          -89 callgsubr
          endchar
        </CharString>
        <CharString name="asterisk">
          -44 416 -21 336 -20 hstem
          191 39 vstem
          242 540 rmoveto
          130 37 rlineto
          10 3 4 8 9 vvcurveto
          11 -9 14 -12 -1 -3 -1 -1 -3 vhcurveto
          -130 -46 5 136 rlineto
          14 -11 7 -11 -11 -11 -7 -14 vhcurveto
          5 -135 -130 45 rlineto
          2 -2 -3 0 -1 hhcurveto
          -13 -9 -13 -12 -9 4 -8 9 -3 hvcurveto
          131 -38 -82 -109 rlineto
          -3 -4 -2 -4 -5 vvcurveto
          -14 16 -8 10 5 5 2 5 4 vhcurveto
          78 115 78 -114 rlineto
          -6 4 7 -2 4 hhcurveto
          13 12 10 13 4 -1 4 -2 3 hvcurveto
          endchar
        </CharString>
        <CharString name="at">
          244 -96 41 -41 72 71 27 154 37 85 66 -43 43 96 43 hstemhm
          57 41 111 45 196 44 131 41 hintmask 1011101111100000
          234 372 rmoveto
          -8 7 -14 12 vhcurveto
          hintmask 0111011111100000
          17 12 23 65 hhcurveto
          71 32 -28 -60 hvcurveto
          -20 -46 vlineto
          -121 -74 -20 -91 -80 56 -27 70 58 29 18 34 34 hvcurveto
          -32 9 38 -30 49 hhcurveto
          88 26 97 101 208 -108 112 -193 -220 -88 -152 -185 -219 130 -95 139 80 87 31 24 7 -8 10 -10 hvcurveto
          hintmask 1011101111100000
          -18 -36 -31 -90 hhcurveto
          -174 -59 133 141 152 65 141 199 178 85 -106 -175 -68 -13 -89 -57 -28 -30 22 29 -3 hvcurveto
          165 vlineto
          80 -49 46 -88 -56 -67 -19 -25 vhcurveto
          217 -206 rmoveto
          -36 -41 -45 -73 -47 -36 20 48 68 66 7 87 vhcurveto
          44 hlineto
          endchar
        </CharString>
        <CharString name="atilde">
          -66 callsubr
          136 10 callgsubr
          33 49 238 49 hintmask 1011010110000000
          -61 callgsubr
          hintmask 1010110110000000
          -97 callsubr
          hintmask 0111010110000000
          -84 callgsubr
          hintmask 1011001110000000
          -76 callgsubr
          -183 430 rmoveto
          hintmask 1011010110000000
          -90 callsubr
          hintmask 1011001110000000
          -89 callgsubr
          endchar
        </CharString>
        <CharString name="b">
          9 -6 46 -19 -38 callsubr
          288 -20 hstemhm
          66 49 264 49 hintmask 01111100
          90 24 callgsubr
          -723 vlineto
          -12 callgsubr
          14 13 11 11 11 vhcurveto
          48 vlineto
          hintmask 10111100
          -41 22 53 -36 callsubr
          -61 -68 -72 24 callsubr
          86 66 51 64 73 61 -68 -69 vhcurveto
          endchar
        </CharString>
        <CharString name="b.ss02">
          6 -8 callgsubr
          288 -20 hstem
          63 49 264 49 vstem
          425 295 rmoveto
          101 -82 82 -98 -66 -45 -37 -39 -22 25 callgsubr
          -42 callsubr
          -593 vlineto
          -113 89 -46 86 132 55 103 82 vhcurveto
          -49 hmoveto
          -52 -29 -87 -106 -71 -58 39 81 vhcurveto
          135 vlineto
          86 66 51 64 74 60 -68 -69 vhcurveto
          endchar
        </CharString>
        <CharString name="backslash">
          -122 21 -21 754 -20 hstem
          277 14 rmoveto
          -10 3 8 -4 9 hhcurveto
          11 10 8 11 3 0 2 -1 2 hvcurveto
          -250 717 rlineto
          7 -3 -7 4 -8 hhcurveto
          -12 -11 -9 -14 -2 1 -3 1 -3 hvcurveto
          endchar
        </CharString>
        <CharString name="bar">
          -274 0 -21 789 -20 hstem
          71 50 vstem
          96 768 rmoveto
          -15 -10 -9 -12 hvcurveto
          -747 vlineto
          -11 10 -10 15 13 12 10 11 vhcurveto
          747 vlineto
          12 -12 9 -13 vhcurveto
          endchar
        </CharString>
        <CharString name="braceleft">
          -169 -20 46 696 46 hstemhm
          32 110 -70 50 -50 205 -185 50 hintmask 11100000
          32 384 rmoveto
          hintmask 11000100
          -37 60 27 -32 vvcurveto
          hintmask 11001000
          -20 -20 -158 -33 vvcurveto
          -90 81 -61 99 14 11 9 15 9 -5 13 -15 vhcurveto
          hintmask 11010000
          -44 -91 23 82 hvcurveto
          hintmask 11100000
          36 20 154 23 vvcurveto
          22 -22 14 -12 4 vhcurveto
          12 3 22 15 23 vvcurveto
          hintmask 11010000
          20 -20 125 30 vvcurveto
          64 59 58 76 vhcurveto
          hintmask 11001000
          11 9 11 12 12 -9 11 -16 -98 -82 -76 -87 hvcurveto
          hintmask 11000100
          -30 20 -129 -19 vvcurveto
          hintmask 11100000
          -32 -60 26 -37 vvcurveto
          endchar
        </CharString>
        <CharString name="braceright">
          -169 -20 46 696 46 hstemhm
          20 206 -71 50 -50 110 -89 50 hintmask 11001000
          265 384 rmoveto
          hintmask 11010000
          37 -60 -26 32 vvcurveto
          hintmask 11100000
          19 21 129 30 vvcurveto
          87 -82 76 -98 -16 -10 -11 -12 -12 9 -11 12 vhcurveto
          hintmask 11000100
          76 59 -58 -64 hvcurveto
          hintmask 11010000
          -30 -21 -125 -20 vvcurveto
          -23 21 -15 13 -3 vhcurveto
          -13 -4 -21 -14 -22 vvcurveto
          hintmask 11000100
          -23 21 -154 -36 vvcurveto
          -82 -91 -23 -44 vhcurveto
          hintmask 11100000
          -16 -5 -13 -9 -15 12 -9 14 99 81 61 90 hvcurveto
          hintmask 11010000
          33 -21 158 20 vvcurveto
          hintmask 11001000
          32 60 -27 37 vvcurveto
          endchar
        </CharString>
        <CharString name="bracketleft">
          -173 -21 47 695 47 hstemhm
          71 50 -50 202 hintmask 11100000
          121 721 rmoveto
          132 hlineto
          hintmask 11010000
          11 9 11 13 12 -8 11 -12 hvcurveto
          -158 hlineto
          -13 -11 -9 -12 hvcurveto
          -747 vlineto
          -13 12 -8 12 vhcurveto
          158 hlineto
          12 8 11 12 13 -9 11 -11 hvcurveto
          hintmask 11100000
          -132 hlineto
          endchar
        </CharString>
        <CharString name="bracketright">
          -172 -21 47 695 47 hstemhm
          20 203 -50 50 hintmask 11010000
          173 26 rmoveto
          -132 hlineto
          hintmask 11100000
          -12 -9 -11 -13 -12 9 -11 12 hvcurveto
          158 hlineto
          12 12 8 13 hvcurveto
          747 -41 callsubr
          9 -13 vhcurveto
          -158 hlineto
          -12 -9 -11 -12 -13 9 -11 12 hvcurveto
          hintmask 11010000
          132 hlineto
          endchar
        </CharString>
        <CharString name="breve">
          -241 599 -38 callgsubr
          0 -4 callsubr
          hintmask 01110000
          187 712 rmoveto
          hintmask 10110000
          -39 callsubr
          hintmask 01110000
          -88 callsubr
        </CharString>
        <CharString name="brokenbar">
          -273 0 -21 789 -20 hstem
          72 49 vstem
          96 768 -32 callgsubr
          -277 vlineto
          -10 10 -10 14 13 12 10 10 vhcurveto
          277 vlineto
          12 -12 9 -13 vhcurveto
          -471 vmoveto
          -14 -10 -9 -11 hvcurveto
          -277 vlineto
          -11 10 -10 14 13 12 10 11 vhcurveto
          277 vlineto
          11 -12 9 -13 vhcurveto
          endchar
        </CharString>
        <CharString name="bullet">
          -158 201 197 hstem
          53 202 vstem
          155 398 rmoveto
          -55 -47 -46 -52 -53 47 -46 55 54 46 46 53 52 -46 46 -54 hvcurveto
          endchar
        </CharString>
        <CharString name="c">
          -17 callgsubr
          hstemhm
          49 49 hintmask 01101000
          237 -6 -34 callgsubr
          hintmask 10011000
          -58 callsubr
          hintmask 01101000
          -72 callgsubr
          endchar
        </CharString>
        <CharString name="cacute">
          -17 callgsubr
          219 -20 hstemhm
          49 49 hintmask 01101100
          276 654 -107 callsubr
          61 -605 -34 callgsubr
          hintmask 10011100
          -58 callsubr
          hintmask 01101100
          -72 callgsubr
          endchar
        </CharString>
        <CharString name="caron">
          -185 608 -21 144 -20 hstem
          42 724 -106 callgsubr
          endchar
        </CharString>
        <CharString name="caron.alt">
          -385 606 34 callsubr
          0 81 vstem
          41 741 -83 callsubr
          endchar
        </CharString>
        <CharString name="ccaron">
          -17 callgsubr
          253 -20 hstemhm
          49 49 hintmask 01101100
          115 724 -106 callgsubr
          23 -632 -34 callgsubr
          hintmask 10011100
          -58 callsubr
          hintmask 01101100
          -72 callgsubr
          endchar
        </CharString>
        <CharString name="ccedilla">
          -60 34 callgsubr
          58 45 -45 85 313 85 -46 46 hstemhm
          49 49 198 37 hintmask 11011011
          378 56 rmoveto
          11 -10 13 -12 vhcurveto
          hintmask 11100111
          -58 callsubr
          hintmask 11101011
          76 18 -39 17 hhcurveto
          13 10 12 12 23 -53 38 -82 -129 -59 -81 -104 hvcurveto
          -114 vlineto
          -101 54 -76 114 -7 vhcurveto
          -21 -85 -80 callsubr
          14 58 rlineto
          78 4 48 34 23 vvcurveto
          endchar
        </CharString>
        <CharString name="ccircumflex">
          -60 -6 46 353 85 -46 46 27 callgsubr
          49 49 hintmask 10011100
          215 655 -107 callgsubr
          126 -605 -34 callgsubr
          -19 -17 -40 -81 hhcurveto
          -93 -48 53 86 hvcurveto
          114 vlineto
          hintmask 10101100
          86 49 53 91 vhcurveto
          hintmask 11001100
          -72 callgsubr
          endchar
        </CharString>
        <CharString name="cdotaccent">
          -17 callgsubr
          119 65 hstemhm
          49 49 83 66 hintmask 01101110
          237 -6 -34 callgsubr
          hintmask 10011110
          -58 callsubr
          hintmask 01101110
          -72 callgsubr
          -23 668 -81 callgsubr
        </CharString>
        <CharString name="cedilla">
          -305 34 callgsubr
          72 -20 hstem
          124 37 vstem
          84 9 rmoveto
          -35 hlineto
          -25 -99 -80 callsubr
          endchar
        </CharString>
        <CharString name="cent">
          -58 61 -21 132 46 -46 85 220 84 -45 45 133 -20 hstemhm
          38 46 102 42 -42 181 hintmask 1011011100000000
          207 694 rmoveto
          -12 -9 -9 -11 hvcurveto
          -115 vlineto
          -103 -15 -45 -75 -93 vvcurveto
          -19 vlineto
          -95 48 -73 100 -15 vhcurveto
          -114 vlineto
          -11 9 -9 12 10 11 9 11 vhcurveto
          112 vlineto
          hintmask 1011011010000000
          69 1 70 28 32 vvcurveto
          13 -12 11 -13 vhcurveto
          hintmask 1100111100000000
          -18 -15 -38 -1 -81 hvcurveto
          298 vlineto
          hintmask 1101011100000000
          -1 80 17 -38 17 hhcurveto
          13 11 11 13 30 -63 29 -75 1 hvcurveto
          113 vlineto
          11 -11 9 -10 vhcurveto
          -123 -318 rmoveto
          72 33 50 69 14 vhcurveto
          -291 vlineto
          -69 13 -33 50 73 vvcurveto
          endchar
        </CharString>
        <CharString name="circumflex">
          -62 callsubr
        </CharString>
        <CharString name="colon">
          -267 -6 82 264 82 hstem
          59 81 vstem
          100 76 rmoveto
          -62 callgsubr
          346 vmoveto
          -62 callgsubr
          endchar
        </CharString>
        <CharString name="comma">
          -300 -59 34 callsubr
          42 81 vstem
          82 -45 callsubr
          endchar
        </CharString>
        <CharString name="commaaccent">
          -255 -128 -21 101 -20 hstem
          158 -104 callsubr
          endchar
        </CharString>
        <CharString name="copyright">
          258 35 39 94 38 -38 119 161 118 -39 39 80 39 hstemhm
          55 39 168 41 120 42 165 39 hintmask 1011011111000000
          -30 callsubr
          575 4 -28 callsubr
          -207 102 rmoveto
          -10 1 7 -6 13 hhcurveto
          15 6 5 19 52 -39 42 -63 -55 -46 -33 -85 hvcurveto
          -163 vlineto
          -85 45 -32 55 64 39 42 53 19 -6 5 -15 -12 -8 -5 -10 -1 vhcurveto
          hintmask 1101011111000000
          -26 -2 -5 -40 -51 hhcurveto
          -40 -22 25 54 hvcurveto
          163 vlineto
          hintmask 1100111111000000
          54 22 25 39 51 7 -41 -22 1 vhcurveto
          endchar
        </CharString>
        <CharString name="currency">
          17 290 43 276 43 hstem
          66 43 269 43 vstem
          243 652 rmoveto
          -44 -40 -17 -27 -31 hvcurveto
          -25 25 rlineto
          3 -3 -5 2 -4 hhcurveto
          -10 -10 -8 -10 -5 2 -5 3 -3 hvcurveto
          26 -27 rlineto
          -22 -30 -14 -38 -40 vvcurveto
          -40 14 -38 23 -31 vhcurveto
          -33 -33 rlineto
          -4 -4 -1 -4 -4 vvcurveto
          -9 9 -9 10 4 4 1 4 4 vhcurveto
          32 31 rlineto
          -28 32 39 -18 44 hhcurveto
          41 38 16 26 31 hvcurveto
          28 -27 rlineto
          -4 4 5 -1 4 hhcurveto
          9 9 9 9 4 -2 4 -3 4 hvcurveto
          -29 29 rlineto
          27 31 16 40 42 vvcurveto
          43 -16 40 -26 30 vhcurveto
          28 28 rlineto
          3 3 2 5 5 vvcurveto
          9 -9 9 -9 -5 -5 -1 -4 -4 vhcurveto
          -27 -27 rlineto
          25 -31 -38 15 -41 hhcurveto
          135 -180 rmoveto
          -71 -61 -68 -74 -74 -60 68 71 70 59 67 75 75 60 -68 -69 vhcurveto
          endchar
        </CharString>
        <CharString name="d">
          10 -6 46 -19 -38 callsubr
          288 -20 hstemhm
          48 49 264 49 hintmask 10111100
          386 766 rmoveto
          -14 -11 -9 -12 hvcurveto
          -343 vlineto
          -50 callsubr
          hintmask 01111100
          -11 11 -11 13 14 10 11 11 vhcurveto
          723 vlineto
          -44 callsubr
          hintmask 10111100
          6 callsubr
        </CharString>
        <CharString name="dagger">
          -58 0 -21 456 39 3 -20 274 -20 hstemhm
          178 50 -50 207 hintmask 11011000
          23 454 rmoveto
          -13 8 -9 12 vhcurveto
          135 6 rlineto
          -437 7 callsubr
          437 vlineto
          135 -6 rlineto
          hintmask 11010100
          11 11 9 13 hvcurveto
          hintmask 10111000
          17 callsubr
          -14 -11 -10 -11 vhcurveto
          -239 vlineto
          -135 6 rlineto
          -12 -8 -10 -13 hvcurveto
          endchar
        </CharString>
        <CharString name="daggerdbl">
          -29 0 -21 242 39 175 39 3 -20 274 -20 hstemhm
          37 206 -50 50 -50 207 hintmask 11101100
          37 241 rmoveto
          10 callsubr
          12 vhcurveto
          hintmask 11101010
          135 6 rlineto
          -223 7 callsubr
          223 vlineto
          135 -6 rlineto
          hintmask 11101001
          11 11 10 13 13 -11 9 -11 hvcurveto
          hintmask 11101100
          -135 -6 rlineto
          181 vlineto
          135 -6 rlineto
          hintmask 11101001
          11 11 9 13 hvcurveto
          hintmask 11011100
          17 callsubr
          vhcurveto
          hintmask 11101010
          -14 -11 -10 -11 hvcurveto
          -239 vlineto
          hintmask 11011100
          -135 6 rlineto
          -12 -9 -10 -13 -13 9 -9 12 hvcurveto
          hintmask 11101010
          135 6 rlineto
          -181 vlineto
          -135 6 rlineto
          hintmask 11101100
          -12 -9 -9 -13 hvcurveto
          endchar
        </CharString>
        <CharString name="dcaron">
          10 -6 46 -19 -38 callsubr
          288 -20 hstemhm
          48 49 264 49 61 81 hintmask 10111110
          512 741 -83 callsubr
          -126 25 rmoveto
          -14 -11 -9 -12 hvcurveto
          -343 vlineto
          -50 callsubr
          hintmask 01111110
          -11 11 -11 13 14 10 11 11 vhcurveto
          723 vlineto
          -44 callsubr
          hintmask 10111110
          6 callsubr
        </CharString>
        <CharString name="dcroat">
          10 -6 46 -19 -38 callsubr
          101 43 144 -20 hstemhm
          48 49 264 49 hintmask 10111110
          386 766 rmoveto
          -14 -11 -9 -12 hvcurveto
          -123 -129 vlineto
          -12 -8 -10 -12 -12 8 -9 12 hvcurveto
          129 -177 hlineto
          -50 callsubr
          hintmask 01111110
          -11 11 -11 13 14 10 11 11 vhcurveto
          557 53 vlineto
          11 9 9 12 12 -9 10 -11 hvcurveto
          -53 123 hlineto
          -44 callsubr
          hintmask 10111110
          6 callsubr
        </CharString>
        <CharString name="degree">
          -41 406 43 276 43 hstem
          35 43 269 43 vstem
          212 768 rmoveto
          -97 -80 -84 -96 -96 82 -86 95 95 83 87 95 99 -83 81 -95 hvcurveto
          135 -180 rmoveto
          -71 -61 -68 -74 -74 -60 68 71 70 59 67 75 75 60 -68 -69 vhcurveto
          endchar
        </CharString>
        <CharString name="dieresis">
          -284 597 65 hstem
          0 65 52 65 vstem
          33 -92 callsubr
          endchar
        </CharString>
        <CharString name="divide">
          -8 33 91 94 45 94 91 hstem
          179 92 cntrmask 11100000
          48 1 callsubr
          319 hlineto
          -10 callsubr
          -319 35 callsubr
          hvcurveto
          178 -116 rmoveto
          11 callsubr
          324 vmoveto
          11 callsubr
          endchar
        </CharString>
        <CharString name="dollar">
          23 -31 -21 56 48 -48 132 499 85 -48 48 48 -20 hstemhm
          41 237 -219 48 130 41 -41 188 -31 49 hintmask 1100111000100000
          237 -34 rmoveto
          -9 9 -9 12 10 10 9 9 vhcurveto
          40 vlineto
          98 12 67 60 120 vvcurveto
          138 -83 41 -82 29 vhcurveto
          266 vlineto
          hintmask 1101010101000000
          -4 77 32 -33 15 hhcurveto
          13 10 19 10 hvcurveto
          hintmask 1100111000100000
          27 -73 27 -74 2 vhcurveto
          30 vlineto
          9 -10 9 -10 vhcurveto
          hintmask 1101010110100000
          -12 -9 -9 -9 hvcurveto
          -31 vlineto
          -83 -5 -95 -36 -126 vvcurveto
          -128 91 -28 87 -29 vhcurveto
          -315 vlineto
          hintmask 1011011000100000
          1 -133 -19 83 -21 hhcurveto
          -11 -12 -15 -13 hvcurveto
          hintmask 1100110110100000
          -31 69 -73 127 vhcurveto
          157 190 rmoveto
          -81 -41 -47 -76 -11 vhcurveto
          297 vlineto
          63 -26 54 -36 -96 vvcurveto
          -287 363 rmoveto
          83 64 27 68 5 vhcurveto
          -252 vlineto
          -70 24 -62 26 87 vvcurveto
          endchar
        </CharString>
        <CharString name="dotaccent">
          -261 597 65 hstem
          75 66 vstem
          108 662 -81 callgsubr
        </CharString>
        <CharString name="dotlessi">
          -9 callsubr
          hstem
          66 49 vstem
          90 472 rmoveto
          33 callsubr
          -430 -98 callsubr
          430 -41 callsubr
          8 -14 vhcurveto
          endchar
        </CharString>
        <CharString name="dotlessj">
          -235 46 661 -20 hstem
          66 49 vstem
          90 472 rmoveto
          -58 callgsubr
        </CharString>
        <CharString name="e">
          -57 callsubr
          8 callsubr
          hintmask 01111100
          -50 callgsubr
          hintmask 10111100
          -68 callgsubr
        </CharString>
        <CharString name="eacute">
          -57 callsubr
          219 -20 1 callgsubr
          292 654 -107 callsubr
          40 -121 -82 callsubr
          hintmask 10111110
          -68 callgsubr
        </CharString>
        <CharString name="ebreve">
          -57 callsubr
          121 -38 callgsubr
          48 49 21 -4 callsubr
          23 48 hintmask 0111101111000000
          -50 callgsubr
          hintmask 1011011111000000
          -101 callgsubr
          -5 451 rmoveto
          hintmask 1011101111000000
          -39 callsubr
          hintmask 1011011111000000
          -88 callsubr
        </CharString>
        <CharString name="ecaron">
          -57 callsubr
          253 -20 1 callgsubr
          132 724 -106 callgsubr
          1 -148 -82 callsubr
          hintmask 10111110
          -68 callgsubr
        </CharString>
        <CharString name="ecircumflex">
          -15 -6 45 40 141 41 173 44 119 100 -20 8 callsubr
          vstemhm
          231 655 -107 callgsubr
          105 -121 -82 callsubr
          -21 -16 -40 -82 hhcurveto
          -93 -68 53 86 hvcurveto
          42 232 vlineto
          43 42 2 75 105 -85 76 -97 hvcurveto
          hintmask 11111110
          -135 -217 rmoveto
          41 vlineto
          71 59 61 76 80 54 -69 -68 -30 -11 -6 -45 vhcurveto
          endchar
        </CharString>
        <CharString name="edieresis">
          -57 callsubr
          119 65 hstemhm
          48 49 43 65 52 65 44 48 hintmask 0111111110000000
          173 -92 callsubr
          -58 -184 -82 callsubr
          hintmask 1011111110000000
          -68 callgsubr
        </CharString>
        <CharString name="edotaccent">
          -57 callsubr
          119 65 hstemhm
          48 49 101 66 102 48 hintmask 01111111
          -50 callgsubr
          hintmask 10111111
          -101 callgsubr
          -79 401 -81 callgsubr
        </CharString>
        <CharString name="egrave">
          -57 callsubr
          219 -20 1 callgsubr
          -50 callgsubr
          hintmask 10111110
          -101 callgsubr
          -41 338 -105 callsubr
        </CharString>
        <CharString name="eight">
          28 -6 46 334 47 264 46 hstemhm
          46 50 -31 50 265 50 -32 32 -32 50 hintmask 11101100
          247 731 rmoveto
          -103 -79 -42 -132 -87 35 -49 52 -23 hvcurveto
          hintmask 11110001
          -64 -26 -42 -57 -103 vvcurveto
          -12 vlineto
          -149 88 -57 113 114 87 57 149 vhcurveto
          12 vlineto
          103 -42 57 -63 26 vhcurveto
          hintmask 11110010
          52 23 35 49 87 vvcurveto
          132 -79 42 -104 vhcurveto
          151 -529 rmoveto
          -109 -56 -53 -94 -94 -58 52 110 vhcurveto
          13 vlineto
          110 57 49 94 94 57 -49 -110 vhcurveto
          -151 470 rmoveto
          hintmask 11101100
          83 50 -37 -94 -94 -50 -39 -83 -83 -49 39 94 94 49 37 83 hvcurveto
          endchar
        </CharString>
        <CharString name="eightinferior">
          -150 -3 16 callsubr
          -71 callsubr
          endchar
        </CharString>
        <CharString name="eightsuperior">
          -150 357 16 callsubr
          731 rmoveto
          -61 -47 -23 -66 -44 21 -25 30 -11 hvcurveto
          -37 -13 -25 -29 -53 vvcurveto
          -6 vlineto
          -75 53 -29 66 67 52 29 75 vhcurveto
          6 vlineto
          53 -24 29 -38 13 vhcurveto
          31 11 20 25 44 vvcurveto
          66 -46 23 -62 vhcurveto
          78 -266 rmoveto
          -49 -28 -24 -49 -49 -29 24 49 vhcurveto
          8 vlineto
          49 29 22 48 49 29 -22 -49 vhcurveto
          -78 222 rmoveto
          43 24 -16 -42 -40 -24 -17 -43 -42 -25 17 40 42 25 16 42 hvcurveto
          endchar
        </CharString>
        <CharString name="ellipsis">
          57 -6 82 hstem
          42 81 98 81 98 81 cntrmask 01110000
          83 76 rmoveto
          -62 callgsubr
          179 hmoveto
          -62 callgsubr
          179 hmoveto
          -62 callgsubr
          endchar
        </CharString>
        <CharString name="emacron">
          -57 callsubr
          164 42 1 callgsubr
          -50 callgsubr
          hintmask 10111110
          -101 callgsubr
          -208 401 rmoveto
          -95 callsubr
          endchar
        </CharString>
        <CharString name="emdash">
          274 21 callgsubr
          600 hlineto
          -10 callsubr
          -600 35 callsubr
          hvcurveto
          endchar
        </CharString>
        <CharString name="endash">
          -6 218 45 hstem
          49 240 -64 callsubr
        </CharString>
        <CharString name="eng">
          23 -235 46 210 -32 callsubr
          hstemhm
          66 49 263 49 hintmask 11101100
          248 478 rmoveto
          -67 -46 -37 -39 -21 hvcurveto
          hintmask 11011100
          -73 callsubr
          273 vlineto
          hintmask 11101100
          86 65 51 64 73 61 -68 -69 vhcurveto
          -341 vlineto
          -82 -10 -61 -70 -13 -10 -9 -13 -12 9 -12 16 93 34 78 -3 callsubr
          341 9 callsubr
          -97 vhcurveto
          endchar
        </CharString>
        <CharString name="eogonek">
          -15 -176 31 139 45 181 41 173 44 hstem
          48 49 168 34 67 48 vstem
          232 478 rmoveto
          -101 -83 -82 -98 hvcurveto
          -119 vlineto
          -111 86 -74 122 17 15 2 2 14 vhcurveto
          -23 -30 -14 -35 -38 -70 callsubr
          9 callgsubr
          48 28 37 38 35 vhcurveto
          22 12 13 15 10 vvcurveto
          10 -11 14 -12 vhcurveto
          -68 callgsubr
        </CharString>
        <CharString name="equal">
          -33 149 46 157 46 hstem
          70 171 -39 callgsubr
          251 hlineto
          11 10 9 13 13 -10 11 -11 hvcurveto
          -251 hlineto
          -12 -9 -11 -13 hvcurveto
          203 vmoveto
          -13 9 -9 12 vhcurveto
          251 hlineto
          11 10 9 13 13 -10 11 -11 hvcurveto
          -251 hlineto
          -12 -9 -11 -13 hvcurveto
          endchar
        </CharString>
        <CharString name="estimated">
          72 -6 42 -42 85 142 39 177 41 hstemhm
          55 97 251 86 hintmask 01111100
          278 478 rmoveto
          -120 -103 -97 -112 hvcurveto
          -61 vlineto
          -129 102 -85 145 108 65 40 21 10 -10 14 -10 vhcurveto
          hintmask 10111100
          -24 -19 -43 -109 hhcurveto
          -90 -61 55 88 hvcurveto
          42 253 vlineto
          42 42 3 73 105 -99 76 -112 hvcurveto
          -126 -218 rmoveto
          41 vlineto
          75 54 61 72 76 49 -69 -72 -30 -11 -6 -45 vhcurveto
          endchar
        </CharString>
        <CharString name="eth">
          9 -8 callgsubr
          253 -20 55 -20 hstem
          48 3 callsubr
          vstem
          401 692 rmoveto
          7 4 3 6 7 vvcurveto
          11 -11 11 -11 -3 -2 -1 -1 -3 vhcurveto
          -76 -44 rlineto
          54 -48 -56 27 -46 hhcurveto
          -23 -7 -15 -12 -10 5 -9 9 -2 hvcurveto
          39 45 -19 -40 38 hvcurveto
          -85 -49 rlineto
          -7 -3 -3 -7 -6 vvcurveto
          -11 10 -13 11 4 3 1 3 3 vhcurveto
          91 52 39 -53 30 -77 9 -102 rlinecurve
          53 -18 -66 31 -57 hhcurveto
          -98 -79 -85 -98 hvcurveto
          -116 vlineto
          -98 84 -87 99 -12 callsubr
          vhcurveto
          183 vlineto
          122 -36 98 -49 69 vhcurveto
          -233 -356 rmoveto
          69 58 68 75 74 62 -64 -69 vhcurveto
          -120 vlineto
          -71 -61 -68 -74 -75 -59 11 callgsubr
          endchar
        </CharString>
        <CharString name="exclam">
          -268 -6 82 670 -20 hstemhm
          67 52 -52 64 hintmask 11100000
          131 712 rmoveto
          22 -15 12 -18 -18 -13 -12 -22 vhcurveto
          -173 11 -192 -173 vvcurveto
          -12 10 -7 10 9 12 7 12 vhcurveto
          hintmask 11010000
          173 12 192 173 vvcurveto
          -32 -636 rmoveto
          -23 -22 callsubr
          23 22 18 19 22 22 -18 19 -22 hvcurveto
          endchar
        </CharString>
        <CharString name="exclamdown">
          -268 15 -21 670 82 hstem
          67 64 vstem
          67 29 rmoveto
          -23 14 -12 18 18 14 12 23 vhcurveto
          172 -11 192 173 vvcurveto
          12 -12 7 -9 -9 -12 -7 -12 vhcurveto
          -173 -11 -192 -172 vvcurveto
          32 635 rmoveto
          22 18 19 22 22 -18 19 -22 -23 -22 callsubr
          23 hvcurveto
          endchar
        </CharString>
        <CharString name="f">
          -170 21 -21 429 43 248 46 hstemhm
          66 49 -49 218 hintmask 11110000
          115 587 rmoveto
          70 1 56 63 76 hhcurveto
          13 hlineto
          hintmask 11101000
          13 10 9 13 13 -10 11 -13 hvcurveto
          -17 hlineto
          -96 -82 -83 -98 hvcurveto
          -564 vlineto
          -13 10 15 callgsubr
          hintmask 11110000
          14 12 8 13 hvcurveto
          408 148 vlineto
          hintmask 11101000
          12 9 10 12 11 -9 10 -12 hvcurveto
          hintmask 11110000
          -148 hlineto
          endchar
        </CharString>
        <CharString name="fi">
          25 21 -21 429 43 207 87 -46 46 hstemhm
          66 49 262 49 hintmask 11011100
          400 472 rmoveto
          -13 -3 callgsubr
          -430 vlineto
          -12 callgsubr
          13 14 12 11 11 vhcurveto
          430 vlineto
          12 -12 8 -14 vhcurveto
          -133 248 rmoveto
          hintmask 11101100
          83 26 -41 17 hhcurveto
          10 10 15 12 31 -77 29 -71 -131 -68 -95 -90 -29 callsubr
          hintmask 11011100
          53 34 85 118 vhcurveto
          endchar
        </CharString>
        <CharString name="five">
          1 -6 48 -48 193 191 46 259 48 hstemhm
          30 50 -4 48 259 50 hintmask 10110110
          115 424 rmoveto
          18 259 rlineto
          245 hlineto
          13 6 12 12 12 -6 12 -13 hvcurveto
          -273 hlineto
          -11 -7 -8 -14 -1 hvcurveto
          -19 -293 rlineto
          -3 -1 -12 -3 vvcurveto
          -11 4 -9 25 vhcurveto
          137 hlineto
          94 57 -50 -106 hvcurveto
          -19 vlineto
          -110 -57 -51 -95 vhcurveto
          hintmask 01111010
          -83 -68 45 78 14 -10 8 -16 -13 -11 -7 -19 -91 74 -76 127 113 89 57 152 hvcurveto
          19 vlineto
          147 -88 55 -113 vhcurveto
          endchar
        </CharString>
        <CharString name="fiveeighths">
          274 -17 callsubr
          -14 38 -38 108 81 35 112 38 37 -20 hstemhm
          32 2 callsubr
          206 31 155 41 hintmask 1011001111111000
          584 -71 callsubr
          -8 433 -87 callgsubr
          hintmask 0110101111111000
          -98 callgsubr
          -485 -187 -7 callsubr
          9 -4 10 -69 callsubr
          hintmask 1010011111111000
          11 -5 7 -16 -14 -7 -6 -17 -44 43 -41 -20 callgsubr
        </CharString>
        <CharString name="fiveinferior">
          -164 -3 7 callgsubr
          221 -7 callsubr
          10 -4 9 -69 callsubr
          hintmask 01111100
          11 -5 7 -16 -14 -7 -6 -17 -43 43 -42 -20 callgsubr
        </CharString>
        <CharString name="fivesuperior">
          -164 357 7 callgsubr
          581 -7 callsubr
          9 -4 10 -69 callsubr
          hintmask 01111100
          11 -5 7 -16 -14 -7 -6 -17 -44 43 -41 -20 callgsubr
        </CharString>
        <CharString name="fl">
          34 21 -21 429 43 254 40 hstem
          66 49 262 49 vstem
          377 22 rmoveto
          -11 11 -11 13 14 11 11 11 vhcurveto
          675 vlineto
          47 -39 -61 22 -56 hhcurveto
          -104 -100 -70 -115 -29 callsubr
          89 76 55 78 38 41 -14 -29 29 vhcurveto
          endchar
        </CharString>
        <CharString name="florin">
          -130 -137 48 454 43 313 47 hstem
          174 586 rmoveto
          71 10 67 64 75 hhcurveto
          11 hlineto
          13 10 11 14 12 -7 10 -11 hvcurveto
          -11 hlineto
          -98 -94 -83 -99 -14 hvcurveto
          -74 -530 rlineto
          -75 -11 -23 -70 -49 hhcurveto
          -20 hlineto
          -13 -11 -11 -15 -11 7 -11 12 hvcurveto
          21 hlineto
          84 37 93 100 14 hvcurveto
          43 309 rlineto
          151 hlineto
          13 10 11 13 10 -7 9 -12 hvcurveto
          -148 hlineto
          endchar
        </CharString>
        <CharString name="four">
          -37 21 -21 175 49 507 -20 hstem
          288 50 vstem
          288 22 rmoveto
          -92 callgsubr
          153 57 vlineto
          14 8 12 13 12 -7 12 -15 hvcurveto
          -57 215 hlineto
          14 -12 6 -13 -12 -13 -6 -14 vhcurveto
          -215 -215 vlineto
          240 474 rlineto
          2 4 1 4 4 vvcurveto
          12 -13 9 -11 -9 -10 -5 -12 -6 vhcurveto
          -254 -502 rlineto
          -2 -4 -2 -5 -6 vvcurveto
          -12 8 -10 14 vhcurveto
          257 hlineto
          endchar
        </CharString>
        <CharString name="fourinferior">
          -186 21 21 callsubr
          15 -43 callsubr
          10 9 -86 callgsubr
          endchar
        </CharString>
        <CharString name="foursuperior">
          -186 381 21 callsubr
          375 -43 callsubr
          9 10 -86 callgsubr
          endchar
        </CharString>
        <CharString name="fraction">
          -314 -2 -21 791 -20 hstem
          267 768 -87 callgsubr
          -98 callgsubr
          endchar
        </CharString>
        <CharString name="g">
          -33 callgsubr
          -41 58 31 callgsubr
          235 48 -18 49 hintmask 1101100100000000
          219 107 -79 callgsubr
          hintmask 1110010100000000
          -75 callsubr
          hintmask 1110100010000000
          -55 callgsubr
          hintmask 1110001100000000
          -85 callsubr
          hintmask 1110100010000000
          -70 callgsubr
          endchar
        </CharString>
        <CharString name="g.ss03">
          9 -237 46 -46 91 141 46 391 46 -6 -20 hstemhm
          47 49 264 49 hintmask 10101110
          385 36 callsubr
          hintmask 10110110
          39 -22 -46 37 -66 hhcurveto
          -98 -82 -82 -101 hvcurveto
          -115 vlineto
          -97 83 -88 95 60 53 35 41 22 vhcurveto
          -92 vlineto
          -85 -15 -85 -123 vhcurveto
          hintmask 01101110
          -88 -30 45 -19 hhcurveto
          -11 -9 -14 -11 -34 77 -32 78 138 51 98 111 hvcurveto
          480 29 callsubr
          hintmask 10110110
          69 61 68 73 65 65 -51 -86 vhcurveto
          -149 vlineto
          -32 -56 -73 -75 -71 -62 11 callgsubr
          endchar
        </CharString>
        <CharString name="gbreve">
          -33 callgsubr
          -41 58 104 31 -31 113 31 callgsubr
          17 -4 callsubr
          -7 48 -18 49 hintmask 1101101001010000
          219 107 -79 callgsubr
          hintmask 1110100101101000
          -75 callsubr
          hintmask 1110101001101000
          -55 callgsubr
          hintmask 1110100011010000
          -85 callsubr
          hintmask 1110011001101000
          -70 callgsubr
          -61 810 rmoveto
          hintmask 1110101001101000
          -39 callsubr
          hintmask 1110011001101000
          -88 callsubr
        </CharString>
        <CharString name="gcircumflex">
          -33 callgsubr
          17 102 100 -20 31 callgsubr
          235 48 -18 49 hintmask 1111101010000000
          234 655 -107 callgsubr
          89 -492 -79 callgsubr
          -75 callsubr
          hintmask 1111110001000000
          -55 callgsubr
          hintmask 1111100110000000
          -85 callsubr
          hintmask 1111110001000000
          -70 callgsubr
          endchar
        </CharString>
        <CharString name="gcommaaccent">
          -33 callgsubr
          522 -20 31 callgsubr
          80 81 74 48 -18 49 hintmask 1111010110000000
          286 654 -107 callsubr
          33 -492 -79 callgsubr
          -75 callsubr
          hintmask 1111100101000000
          -55 callgsubr
          hintmask 1111001110000000
          -85 callsubr
          hintmask 1111100101000000
          -70 callgsubr
          -145 942 rmoveto
          24 17 18 23 17 -12 17 -17 5 hvcurveto
          19 51 rlineto
          1 2 1 -49 callsubr
        </CharString>
        <CharString name="gdotaccent">
          -33 callgsubr
          -41 58 102 65 31 callgsubr
          96 66 73 48 -18 49 hintmask 1101110011000000
          219 107 -79 callgsubr
          hintmask 1110101011000000
          -75 callsubr
          hintmask 1110110010100000
          -55 callgsubr
          hintmask 1110100111000000
          -85 callsubr
          hintmask 1110110010100000
          -70 callgsubr
          -136 760 -81 callgsubr
        </CharString>
        <CharString name="germandbls">
          73 -20 43 -2 -21 429 43 249 47 hstemhm
          104 49 105 169 -46 46 24 46 hintmask 10111011
          324 -20 rmoveto
          87 86 68 150 hvcurveto
          18 vlineto
          103 -76 83 -66 13 vhcurveto
          48 22 24 79 72 vvcurveto
          124 -71 56 -93 -114 -45 -84 -98 vhcurveto
          -114 -77 vlineto
          -12 -8 -10 -12 -12 8 -9 12 hvcurveto
          77 hlineto
          hintmask 01111011
          -408 vlineto
          -13 10 -8 13 14 12 8 13 vhcurveto
          565 vlineto
          70 27 65 85 78 38 -56 -92 -51 -12 -86 -78 -4 vhcurveto
          hintmask 10111101
          -18 -1 -15 -3 -19 vvcurveto
          -18 12 -2 20 -2 vhcurveto
          120 -10 41 -89 -73 vvcurveto
          -19 vlineto
          -114 -54 -59 -82 vhcurveto
          -48 -20 20 -13 hhcurveto
          -10 -8 -12 -11 -34 80 -6 28 hvcurveto
          endchar
        </CharString>
        <CharString name="grave">
          -323 617 -21 101 -20 hstem
          111 599 -105 callsubr
        </CharString>
        <CharString name="greater">
          -70 92 -21 413 -20 hstem
          369 277 rmoveto
          9 -7 10 -6 4 vhcurveto
          -272 180 rlineto
          3 -4 -3 1 -4 hhcurveto
          -11 -13 -10 -14 -7 4 -7 6 -4 hvcurveto
          248 -165 -248 -164 rlineto
          -6 -4 -4 -7 -7 vvcurveto
          -14 13 -10 11 4 3 1 3 4 vhcurveto
          272 180 rlineto
          7 4 6 9 9 vvcurveto
          endchar
        </CharString>
        <CharString name="greaterequal">
          -31 63 45 418 -20 hstem
          71 211 rmoveto
          -7 -4 -4 -7 -7 vvcurveto
          -13 12 -11 12 4 3 1 3 4 vhcurveto
          272 152 rlineto
          7 4 6 9 9 vvcurveto
          9 -6 11 -7 4 vhcurveto
          -272 152 rlineto
          2 -4 -3 1 -4 hhcurveto
          -12 -12 -11 -13 -7 4 -7 7 -3 hvcurveto
          247 -138 rlineto
          62 -262 rmoveto
          13 -12 callgsubr
          vhcurveto
          -278 hlineto
          -11 -9 -10 -13 -13 9 -9 11 hvcurveto
          278 hlineto
          11 11 9 13 hvcurveto
          endchar
        </CharString>
        <CharString name="guillemotleft">
          -85 95 -21 407 -20 hstem
          88 277 -68 callsubr
          4 7 -3 7 hhcurveto
          14 14 12 12 3 -1 4 -2 3 hvcurveto
          66 169 -68 callsubr
          5 6 -3 7 hhcurveto
          15 13 12 12 3 -1 4 -2 3 hvcurveto
          endchar
        </CharString>
        <CharString name="guillemotright">
          -85 95 -21 407 -20 hstem
          201 -52 callgsubr
          -250 -169 rmoveto
          -2 -3 -1 -4 -3 vvcurveto
          -12 14 -12 14 7 7 3 7 4 vhcurveto
          92 171 rlineto
          5 8 3 6 8 vvcurveto
          7 -3 7 -5 8 vhcurveto
          -92 172 rlineto
          6 -4 -8 4 -8 hhcurveto
          -14 -12 -13 -11 -3 1 -4 2 -3 hvcurveto
          92 -170 rlineto
          endchar
        </CharString>
        <CharString name="guilsinglleft">
          -243 95 -21 407 -20 hstem
          88 277 -68 callsubr
          4 7 -3 7 hhcurveto
          14 14 12 12 3 -1 4 -2 3 hvcurveto
          endchar
        </CharString>
        <CharString name="guilsinglright">
          -243 95 -21 407 -20 hstem
          43 -52 callgsubr
          endchar
        </CharString>
        <CharString name="h">
          22 21 -38 callsubr
          288 -20 hstem
          66 49 263 49 vstem
          115 295 rmoveto
          -91 callsubr
          -45 -37 -39 -21 vhcurveto
          343 -56 callsubr
          endchar
        </CharString>
        <CharString name="hbar">
          22 21 -38 callsubr
          109 42 -42 179 hstemhm
          66 49 263 49 hintmask 11101100
          14 607 rmoveto
          -45 callgsubr
          31 -565 hlineto
          -12 callgsubr
          14 14 11 11 11 vhcurveto
          273 vlineto
          -91 callsubr
          -45 -37 -39 -21 vhcurveto
          185 137 vlineto
          11 11 8 12 12 -12 callgsubr
          hvcurveto
          -137 116 hlineto
          hintmask 11011100
          12 -11 9 -14 -14 -10 -9 -12 vhcurveto
          hintmask 11101100
          -116 -31 vlineto
          -13 -8 -10 -12 hvcurveto
          endchar
        </CharString>
        <CharString name="hcircumflex">
          22 21 -38 callsubr
          288 -20 206 -20 hstem
          66 49 263 49 vstem
          91 910 -107 callgsubr
          128 -559 rmoveto
          -91 callsubr
          -45 -37 -39 -21 vhcurveto
          343 -56 callsubr
          endchar
        </CharString>
        <CharString name="hungarumlaut">
          -182 617 -21 101 -20 hstem
          126 658 -100 callsubr
          endchar
        </CharString>
        <CharString name="hyphen">
          -66 21 callgsubr
          260 hlineto
          11 10 9 13 13 -10 10 -11 hvcurveto
          -260 35 callsubr
          hvcurveto
          endchar
        </CharString>
        <CharString name="i">
          -9 callsubr
          169 72 hstemhm
          52 75 -61 49 hintmask 11101000
          90 472 rmoveto
          33 callsubr
          -430 -98 callsubr
          430 -41 callsubr
          8 -14 vhcurveto
          221 vmoveto
          hintmask 11110000
          -55 callsubr
          endchar
        </CharString>
        <CharString name="iacute">
          -6 callgsubr
          152 654 -107 callsubr
          38 -127 rmoveto
          33 callsubr
          -430 -98 callsubr
          430 -41 callsubr
          8 -14 vhcurveto
          endchar
        </CharString>
        <CharString name="ibreve">
          -9 callsubr
          147 -38 callgsubr
          -22 38 50 49 50 38 cntrmask 00001110
          hintmask 11011110
          90 472 rmoveto
          33 callsubr
          -430 -98 callsubr
          430 -41 callsubr
          8 -14 vhcurveto
          75 240 rmoveto
          hintmask 11101110
          -39 callsubr
          hintmask 11011110
          -88 callsubr
        </CharString>
        <CharString name="icircumflex">
          -6 callgsubr
          90 655 -107 callgsubr
          104 -127 rmoveto
          33 callsubr
          -430 -98 callsubr
          430 -41 callsubr
          8 -14 vhcurveto
          endchar
        </CharString>
        <CharString name="idieresis">
          -9 callsubr
          145 65 hstem
          0 65 1 49 2 65 vstem
          33 -92 callsubr
          -60 -190 rmoveto
          33 callsubr
          -430 -98 callsubr
          430 -41 callsubr
          8 -14 vhcurveto
          endchar
        </CharString>
        <CharString name="igrave">
          -6 callgsubr
          90 472 rmoveto
          33 callsubr
          -430 -98 callsubr
          430 -41 callsubr
          8 -14 vhcurveto
          36 127 -105 callsubr
        </CharString>
        <CharString name="ij">
          -107 -235 46 210 3 callgsubr
          169 72 hstemhm
          52 75 -61 49 115 75 -61 49 hintmask 11110110
          90 472 rmoveto
          33 callsubr
          -430 -98 callsubr
          430 -41 callsubr
          8 -14 vhcurveto
          221 vmoveto
          hintmask 11111010
          -55 callsubr
          178 hmoveto
          -55 callsubr
          -221 vmoveto
          hintmask 11111001
          -58 callgsubr
        </CharString>
        <CharString name="imacron">
          -9 callsubr
          190 42 hstem
          66 49 vstem
          90 472 rmoveto
          33 callsubr
          -430 -98 callsubr
          430 -41 callsubr
          8 -14 vhcurveto
          -130 190 rmoveto
          -95 callsubr
          endchar
        </CharString>
        <CharString name="infinity">
          385 72 47 234 47 hstem
          61 48 634 47 vstem
          228 400 rmoveto
          -86 -81 -54 -110 -110 81 -54 86 73 78 45 73 46 hvcurveto
          -73 47 77 -45 73 hhcurveto
          87 81 54 110 110 -81 54 -86 -74 -77 -46 -73 -47 hvcurveto
          73 -46 -78 46 -73 hhcurveto
          222 -164 rmoveto
          80 37 73 37 62 hhcurveto
          65 56 -36 -81 -81 -56 -36 -65 -62 -73 37 80 -37 hvcurveto
          -48 hmoveto
          -80 -38 -73 -37 -62 hhcurveto
          -65 -55 36 81 81 55 36 65 62 73 -37 -80 38 hvcurveto
          endchar
        </CharString>
        <CharString name="integral">
          -136 -200 45 858 45 hstem
          140 50 vstem
          301 748 rmoveto
          -101 -60 -71 -80 hvcurveto
          -658 vlineto
          -76 -59 -18 -52 -16 -5 -13 -9 -14 11 -9 11 102 58 55 85 vhcurveto
          656 vlineto
          55 38 52 73 13 8 12 11 12 -10 10 -11 vhcurveto
          endchar
        </CharString>
        <CharString name="iogonek">
          -284 -196 31 637 -20 169 72 hstemhm
          -2 34 21 75 -61 49 hintmask 11110100
          95 -165 rmoveto
          9 callgsubr
          50 30 38 40 37 hvcurveto
          8 4 6 7 8 vvcurveto
          430 -41 callsubr
          8 -14 -42 callsubr
          -430 vlineto
          -3 0 -2 1 -3 vhcurveto
          -42 -39 -28 -46 -54 -70 callsubr
          vhcurveto
          -4 858 rmoveto
          hintmask 11111000
          -55 callsubr
          endchar
        </CharString>
        <CharString name="itilde">
          -9 callsubr
          162 10 callgsubr
          66 49 hintmask 11011000
          90 472 rmoveto
          33 callsubr
          -430 -98 callsubr
          430 -41 callsubr
          8 -14 vhcurveto
          -65 178 rmoveto
          hintmask 11101000
          -90 callsubr
          hintmask 11011000
          -89 callgsubr
          endchar
        </CharString>
        <CharString name="j">
          -235 46 661 -20 169 72 hstemhm
          52 75 -61 49 hintmask 11110000
          90 693 rmoveto
          -55 callsubr
          -221 vmoveto
          hintmask 11101000
          -58 callgsubr
        </CharString>
        <CharString name="jcircumflex">
          -235 46 661 -20 245 -20 hstemhm
          -37 152 -49 49 hintmask 11101000
          90 472 rmoveto
          33 callsubr
          -498 vlineto
          -82 -10 -61 -70 vhcurveto
          hintmask 11110000
          -13 -10 -9 -13 -12 9 -12 16 94 33 78 111 hvcurveto
          498 -41 callsubr
          8 -14 vhcurveto
          1 183 -107 callgsubr
          endchar
        </CharString>
        <CharString name="k">
          -21 20 -21 22 -21 473 -20 313 -20 hstemhm
          66 49 hintmask 01111000
          404 434 -51 callgsubr
          hintmask 10111000
          -7 5 6 -3 6 hhcurveto
          13 12 13 12 3 -1 5 -2 3 hvcurveto
          -180 264 rlineto
          endchar
        </CharString>
        <CharString name="kcommaaccent">
          -21 23 callgsubr
          473 -20 313 -20 hstemhm
          66 49 hintmask 10111100
          283 -104 callsubr
          221 580 -51 callgsubr
          hintmask 11011100
          -7 5 6 -3 6 hhcurveto
          13 12 13 12 3 -1 5 -2 3 hvcurveto
          -180 264 rlineto
          endchar
        </CharString>
        <CharString name="kgreenlandic">
          -21 20 -21 22 3 callgsubr
          21 -20 hstemhm
          66 49 hintmask 01011000
          404 434 rmoveto
          5 4 2 7 5 vvcurveto
          15 -14 8 -12 -5 -4 -2 -3 -3 vhcurveto
          -258 -226 rlineto
          hintmask 01101000
          210 -41 callsubr
          8 -14 -42 callsubr
          -430 -98 callsubr
          159 vlineto
          99 86 176 -258 rlineto
          hintmask 10011000
          -7 5 6 -3 6 hhcurveto
          13 12 13 12 3 -1 5 -2 3 hvcurveto
          -180 264 rlineto
          endchar
        </CharString>
        <CharString name="l">
          32 callgsubr
          hstem
          74 49 vstem
          98 766 -71 callgsubr
          endchar
        </CharString>
        <CharString name="lacute">
          32 callgsubr
          163 -20 hstem
          74 49 vstem
          162 866 -107 callsubr
          36 -45 -71 callgsubr
          endchar
        </CharString>
        <CharString name="lcaron">
          32 callgsubr
          hstem
          74 49 67 81 vstem
          231 741 -83 callsubr
          -133 25 -71 callgsubr
          endchar
        </CharString>
        <CharString name="lcommaaccent">
          -269 28 callgsubr
          766 -20 hstem
          74 49 vstem
          161 -104 callsubr
          37 912 -71 callgsubr
          endchar
        </CharString>
        <CharString name="ldot">
          -167 21 -21 260 80 426 -20 hstem
          74 49 83 81 vstem
          98 766 -71 callgsubr
          149 -426 -37 callsubr
        </CharString>
        <CharString name="less">
          -70 92 -21 413 -20 hstem
          27 277 rmoveto
          -9 6 -9 7 -4 vhcurveto
          272 -180 rlineto
          -3 3 4 -1 3 hhcurveto
          12 13 10 14 7 -4 7 -6 4 hvcurveto
          -248 164 248 165 rlineto
          6 4 4 7 7 vvcurveto
          14 -13 10 -12 -3 -4 -1 -3 -3 vhcurveto
          -272 -180 rlineto
          -7 -4 -6 -10 -9 vvcurveto
          endchar
        </CharString>
        <CharString name="lessequal">
          -31 63 45 418 -20 hstem
          117 347 rmoveto
          247 138 rlineto
          7 3 4 7 7 vvcurveto
          13 -13 11 -12 -3 -3 -1 -2 -4 vhcurveto
          -272 -152 rlineto
          -7 -4 -6 -11 -9 vvcurveto
          -9 5 -9 8 -4 vhcurveto
          272 -152 rlineto
          -3 4 3 -1 3 hhcurveto
          12 13 11 13 7 -4 7 -7 4 hvcurveto
          -309 -126 rmoveto
          -13 10 -9 12 vhcurveto
          278 hlineto
          11 9 9 13 13 -9 10 -11 hvcurveto
          -278 hlineto
          -12 -10 -10 -13 hvcurveto
          endchar
        </CharString>
        <CharString name="logicalnot">
          17 63 200 -45 45 hstemhm
          365 49 hintmask 01100000
          58 1 callsubr
          286 -134 hlineto
          hintmask 10100000
          -12 11 -9 14 14 10 9 12 vhcurveto
          156 vlineto
          13 -11 10 -10 vhcurveto
          -314 35 callsubr
          hvcurveto
          endchar
        </CharString>
        <CharString name="lozenge">
          -12 19 -21 734 -20 hstem
          266 697 rmoveto
          23 -12 -9 12 -18 hhcurveto
          -19 -8 -12 -23 -12 hvcurveto
          -146 -283 rlineto
          -10 -20 -7 -14 -15 vvcurveto
          -14 7 -14 10 -19 vhcurveto
          147 -284 rlineto
          -23 12 8 -13 18 hhcurveto
          16 10 14 22 12 hvcurveto
          147 284 rlineto
          10 19 7 14 14 vvcurveto
          15 -7 14 -10 20 vhcurveto
          -185 257 rmoveto
          156 -305 -156 -304 -157 304 rlineto
          endchar
        </CharString>
        <CharString name="lslash">
          -167 21 -21 766 -20 hstem
          119 49 vstem
          143 24 callgsubr
          -388 vlineto
          -91 -51 rlineto
          -7 -3 -3 -7 -6 vvcurveto
          -13 10 -12 11 3 3 1 2 3 vhcurveto
          71 40 rlineto
          -286 -98 callsubr
          313 vlineto
          105 60 rlineto
          6 3 5 7 8 vvcurveto
          11 -10 11 -12 -3 -3 0 -2 -3 vhcurveto
          -85 -48 rlineto
          360 -6 callsubr
          endchar
        </CharString>
        <CharString name="m">
          308 -26 callgsubr
          hstemhm
          66 49 249 49 250 49 hintmask 11011100
          364 21 rmoveto
          -15 13 -6 11 13 12 6 15 vhcurveto
          279 vlineto
          80 64 52 63 59 64 -46 -91 vhcurveto
          -273 vlineto
          -11 11 -11 13 14 11 11 11 vhcurveto
          273 vlineto
          117 -81 66 -85 -58 -59 -32 -68 -35 vhcurveto
          59 -26 -53 41 -67 hhcurveto
          -67 -45 -37 -39 -22 hvcurveto
          hintmask 10111100
          -73 callsubr
          273 vlineto
          hintmask 11011100
          86 64 51 63 67 55 -57 -76 vhcurveto
          endchar
        </CharString>
        <CharString name="m.ss04">
          304 21 -38 callsubr
          hstem
          62 49 250 49 249 49 vstem
          540 478 rmoveto
          -60 -59 -31 -68 -36 hvcurveto
          68 -38 -61 31 -59 hhcurveto
          -85 -80 -69 -114 hvcurveto
          5 callgsubr
          -11 10 -10 14 14 11 10 11 vhcurveto
          274 vlineto
          90 63 47 59 66 62 -58 -79 vhcurveto
          5 callgsubr
          -14 12 -7 12 13 12 7 14 vhcurveto
          274 vlineto
          79 61 58 65 60 63 -48 -89 vhcurveto
          5 callgsubr
          -10 11 -11 13 14 11 11 10 vhcurveto
          274 vlineto
          115 -81 68 -87 vhcurveto
          endchar
        </CharString>
        <CharString name="macron">
          -206 642 42 hstem
          662 vmoveto
          -95 callsubr
          endchar
        </CharString>
        <CharString name="minus">
          26 262 45 hstem
          65 284 -64 callsubr
        </CharString>
        <CharString name="mu">
          17 -214 -21 229 46 432 -20 hstem
          74 49 263 49 vstem
          257 -6 rmoveto
          101 77 83 100 hvcurveto
          274 vlineto
          14 -11 7 -14 -12 -12 -7 -14 vhcurveto
          5 callgsubr
          -69 -59 -68 -68 -70 -66 73 43 vhcurveto
          295 vlineto
          11 -11 10 -14 -14 -10 -10 -11 vhcurveto
          -665 vlineto
          -12 10 -9 14 12 11 9 12 vhcurveto
          278 vlineto
          -37 22 51 -33 63 hhcurveto
          endchar
        </CharString>
        <CharString name="multiply">
          -71 161 -21 270 -20 hstem
          333 164 rmoveto
          4 -2 5 -4 5 vhcurveto
          -99 97 99 97 rlineto
          3 3 2 6 6 vvcurveto
          12 -11 11 -12 -6 -5 -2 -3 -4 vhcurveto
          -97 -98 -96 98 rlineto
          3 -4 -5 2 -6 hhcurveto
          -12 -11 -11 -12 -6 2 -6 3 -3 hvcurveto
          99 -97 -99 -97 rlineto
          -4 -5 -2 -4 -5 vvcurveto
          -12 12 -12 12 5 4 2 4 5 vhcurveto
          97 97 98 -97 rlineto
          -4 5 4 -2 5 hhcurveto
          13 11 13 11 hvcurveto
          endchar
        </CharString>
        <CharString name="n">
          23 callsubr
          hstemhm
          66 49 263 49 hintmask 11011000
          115 295 rmoveto
          -91 callsubr
          -46 -37 -39 -21 vhcurveto
          hintmask 10111000
          -73 callsubr
          endchar
        </CharString>
        <CharString name="n.ss04">
          22 21 -38 callsubr
          -19 callsubr
          244 478 rmoveto
          -99 -84 -85 -98 hvcurveto
          5 callgsubr
          -11 11 -10 14 13 11 10 11 vhcurveto
          274 vlineto
          71 60 66 74 75 59 -67 -70 vhcurveto
          5 callgsubr
          -10 12 -11 12 15 10 11 10 vhcurveto
          274 vlineto
          97 -82 86 -101 vhcurveto
          endchar
        </CharString>
        <CharString name="nacute">
          23 callsubr
          245 -20 hstemhm
          66 49 263 49 hintmask 11011100
          303 654 -107 callsubr
          -88 -304 rmoveto
          -91 callsubr
          -46 -37 -39 -21 vhcurveto
          hintmask 10111100
          -73 callsubr
          endchar
        </CharString>
        <CharString name="ncaron">
          23 callsubr
          279 -20 hstemhm
          66 49 263 49 hintmask 11011100
          141 724 -106 callgsubr
          -125 -331 rmoveto
          -91 callsubr
          -46 -37 -39 -21 vhcurveto
          hintmask 10111100
          -73 callsubr
          endchar
        </CharString>
        <CharString name="ncommaaccent">
          22 -128 -21 170 -32 callsubr
          hstemhm
          66 49 263 49 hintmask 11101100
          294 -104 callsubr
          -79 441 rmoveto
          -91 callsubr
          -46 -37 -39 -21 vhcurveto
          hintmask 11011100
          -73 callsubr
          endchar
        </CharString>
        <CharString name="nine">
          44 -6 48 -48 193 110 46 341 47 hstemhm
          46 50 302 50 hintmask 10111100
          242 297 rmoveto
          65 57 22 49 34 hvcurveto
          -164 vlineto
          -111 -56 -51 -95 -83 -69 48 74 vhcurveto
          hintmask 01111100
          16 -13 7 -13 -14 -9 -7 -18 -88 72 -80 128 114 88 57 153 vhcurveto
          -14 callsubr
          153 -88 57 -114 -113 -87 4 callgsubr
          -26 vlineto
          -151 86 -47 110 vhcurveto
          156 190 rmoveto
          -105 -59 -39 -92 -95 -56 42 -3 callsubr
          27 vlineto
          110 56 51 94 95 57 -51 -110 vhcurveto
          endchar
        </CharString>
        <CharString name="nineinferior">
          -139 -3 17 callgsubr
          148 -65 callsubr
        </CharString>
        <CharString name="ninesuperior">
          -139 357 17 callgsubr
          508 -65 callsubr
        </CharString>
        <CharString name="notequal">
          4 0 -21 170 46 157 46 180 -20 hstem
          380 546 rmoveto
          2 4 1 3 4 vvcurveto
          12 -11 9 -9 -6 -5 -2 -6 -3 vhcurveto
          -79 -172 rlineto
          -194 hlineto
          -12 -8 -11 -13 -13 8 -9 12 hvcurveto
          171 hlineto
          -71 -157 rlineto
          -100 hlineto
          -12 -8 -11 -13 -13 8 -9 12 hvcurveto
          77 hlineto
          -63 -142 rlineto
          -2 -3 0 -5 -3 vvcurveto
          -10 9 -7 10 7 6 4 8 4 vhcurveto
          71 158 rlineto
          197 hlineto
          11 11 9 13 13 -11 11 -11 hvcurveto
          -173 hlineto
          71 157 rlineto
          102 hlineto
          11 11 9 13 13 -11 11 -11 hvcurveto
          -79 hlineto
          endchar
        </CharString>
        <CharString name="ntilde">
          23 callsubr
          162 10 callgsubr
          66 49 263 49 hintmask 11001110
          178 650 rmoveto
          hintmask 11010110
          -90 callsubr
          hintmask 11001110
          -89 callgsubr
          -63 -355 rmoveto
          -91 callsubr
          -46 -37 -39 -21 vhcurveto
          hintmask 10110110
          -73 callsubr
          endchar
        </CharString>
        <CharString name="numbersign">
          97 56 -21 226 40 169 40 -40 243 hstemhm
          hintmask 11010000
          238 713 rmoveto
          -9 -8 -5 -8 -1 hvcurveto
          hintmask 11100000
          -30 -190 rlineto
          -113 hlineto
          -9 -7 -9 -11 -12 7 -8 14 hvcurveto
          101 hlineto
          -25 -169 rlineto
          -113 hlineto
          -9 -7 -9 -11 -12 6 -8 15 hvcurveto
          100 hlineto
          -30 -202 rlineto
          -16 11 -8 13 8 10 5 13 2 vhcurveto
          32 208 rlineto
          130 hlineto
          -31 -202 rlineto
          -16 10 -8 13 10 10 6 11 2 vhcurveto
          31 209 rlineto
          115 hlineto
          9 8 9 10 13 -12 8 -10 hvcurveto
          -103 hlineto
          27 169 rlineto
          114 hlineto
          8 8 10 10 12 -12 8 -9 hvcurveto
          -103 28 callsubr
          -9 -8 -5 -8 -1 vhcurveto
          hintmask 11100000
          -30 -190 rlineto
          -131 28 callsubr
          vhcurveto
          -9 -243 rmoveto
          130 hlineto
          -26 -169 rlineto
          -130 hlineto
          endchar
        </CharString>
        <CharString name="o">
          -5 callsubr
          -27 callsubr
          -74 callsubr
          endchar
        </CharString>
        <CharString name="oacute">
          -24 callsubr
          291 654 -107 callsubr
          39 -121 rmoveto
          -100 -83 -85 -98 hvcurveto
          -116 vlineto
          -98 85 -87 98 -12 callsubr
          vhcurveto
          -13 callgsubr
          101 -86 82 -98 vhcurveto
          -77 callgsubr
          -56 callgsubr
          endchar
        </CharString>
        <CharString name="obreve">
          -5 callsubr
          121 -38 callgsubr
          47 49 22 -4 callsubr
          22 49 hintmask 11011111
          -74 callsubr
          -60 417 rmoveto
          hintmask 11101111
          -39 callsubr
          hintmask 11011111
          -88 callsubr
        </CharString>
        <CharString name="ocircumflex">
          -5 callsubr
          27 callgsubr
          -14 callgsubr
          hintmask 10111100
          230 655 -107 callgsubr
          104 -121 rmoveto
          -100 -83 -85 -98 hvcurveto
          -116 vlineto
          -98 85 -87 98 -12 callsubr
          vhcurveto
          -13 callgsubr
          101 -86 82 -98 vhcurveto
          -77 callgsubr
          hintmask 11011100
          -56 callgsubr
          endchar
        </CharString>
        <CharString name="odieresis">
          -5 callsubr
          119 65 hstem
          47 49 43 65 52 65 44 49 vstem
          172 -92 callsubr
          -59 -184 rmoveto
          -100 -83 -85 -98 hvcurveto
          -116 vlineto
          -98 85 -87 98 -12 callsubr
          vhcurveto
          -13 callgsubr
          101 -86 82 -98 vhcurveto
          -77 callgsubr
          -56 callgsubr
          endchar
        </CharString>
        <CharString name="oe">
          302 -6 45 -45 85 141 41 171 46 hstemhm
          -14 callgsubr
          268 48 hintmask 10111110
          230 478 rmoveto
          -100 -83 -85 -98 hvcurveto
          -116 vlineto
          -98 85 -87 98 67 61 42 58 31 vhcurveto
          -62 31 67 -38 85 hhcurveto
          85 59 39 21 hvcurveto
          hintmask 01111110
          15 -11 10 -12 vhcurveto
          hintmask 10111110
          -23 -13 -40 -79 hhcurveto
          -98 -66 53 86 hvcurveto
          42 232 vlineto
          45 39 2 77 102 -85 77 -96 -69 -61 -41 -58 -29 hvcurveto
          59 -31 -62 40 -67 hhcurveto
          -77 callgsubr
          -56 callgsubr
          49 -34 rmoveto
          45 vlineto
          69 60 59 74 81 53 -69 -68 -30 -10 -6 -45 vhcurveto
          endchar
        </CharString>
        <CharString name="ogonek">
          -351 -198 31 186 -20 hstem
          0 34 vstem
          97 -167 rmoveto
          9 callgsubr
          51 32 38 41 38 hvcurveto
          -29 16 rlineto
          -46 -41 -32 -48 -57 -70 callsubr
          vhcurveto
          endchar
        </CharString>
        <CharString name="ograve">
          -5 -6 46 392 46 219 -20 hstem
          47 49 269 49 vstem
          -74 callsubr
          -97 304 -105 callsubr
        </CharString>
        <CharString name="ohungarumlaut">
          -24 callsubr
          242 658 -100 callsubr
          -67 -122 rmoveto
          -100 -83 -85 -98 hvcurveto
          -116 vlineto
          -98 85 -87 98 -12 callsubr
          vhcurveto
          -13 callgsubr
          101 -86 82 -98 vhcurveto
          -77 callgsubr
          -56 callgsubr
          endchar
        </CharString>
        <CharString name="omacron">
          -5 callsubr
          164 42 -27 callsubr
          101 662 rmoveto
          -95 callsubr
          129 -184 rmoveto
          -100 -83 -85 -98 hvcurveto
          -116 vlineto
          -98 85 -87 98 -12 callsubr
          vhcurveto
          -13 callgsubr
          101 -86 82 -98 vhcurveto
          -77 callgsubr
          -56 callgsubr
          endchar
        </CharString>
        <CharString name="one">
          -246 -48 callsubr
          hstem
          98 50 vstem
          98 22 rmoveto
          -37 callgsubr
          13 12 13 -8 callsubr
          688 vlineto
          15 -11 6 -11 -13 -6 -7 -9 -5 vhcurveto
          -74 -122 rlineto
          -4 -5 -8 -14 -7 vvcurveto
          -12 9 -11 13 6 7 3 10 5 vhcurveto
          42 72 rlineto
          endchar
        </CharString>
        <CharString name="one.lnum">
          -78 33 callgsubr
          hstemhm
          172 50 -50 205 hintmask 11010000
          16 24 rmoveto
          -13 10 -11 12 vhcurveto
          317 hlineto
          11 11 11 13 13 -11 11 -11 hvcurveto
          hintmask 11100000
          -133 662 hlineto
          15 -10 6 -12 -13 -5 -7 -9 -6 vhcurveto
          -76 -126 rlineto
          -3 -4 -7 -12 -6 vvcurveto
          -12 10 -11 12 6 7 3 10 6 vhcurveto
          41 72 rlineto
          -581 -134 vlineto
          -12 -10 -11 -13 hvcurveto
          endchar
        </CharString>
        <CharString name="oneeighth">
          158 -17 callsubr
          22 callsubr
          235 31 155 41 hintmask 1011111110000000
          84 375 -94 callgsubr
          384 -297 -102 callsubr
          -7 433 -87 callgsubr
          hintmask 0111111110000000
          -98 callgsubr
          endchar
        </CharString>
        <CharString name="onehalf">
          147 -2 -21 23 13 callgsubr
          22 callsubr
          218 50 140 41 hintmask 1110111110000000
          352 284 -16 callgsubr
          hintmask 1101111110000000
          -63 callsubr
          10 9 10 -7 9 -8 hvcurveto
          -178 27 hlineto
          64 -42 callgsubr
          -268 91 -94 callgsubr
          377 6 callgsubr
          -98 callgsubr
          endchar
        </CharString>
        <CharString name="oneinferior">
          -303 21 -21 371 -20 hstem
          69 41 vstem
          69 15 -94 callgsubr
          endchar
        </CharString>
        <CharString name="onequarter">
          123 -2 -21 44 -21 86 39 606 -20 57 -20 hstem
          81 41 354 41 vstem
          81 375 -94 callgsubr
          393 6 callgsubr
          -98 callgsubr
          2 -753 -43 callsubr
          10 9 -86 callgsubr
          endchar
        </CharString>
        <CharString name="onesuperior">
          -303 381 -21 371 -20 hstem
          69 41 vstem
          69 375 -94 callgsubr
          endchar
        </CharString>
        <CharString name="onethird">
          158 22 callgsubr
          22 callsubr
          224 41 146 51 hintmask 1001101111100000
          467 35 -5 callgsubr
          hintmask 0101101111100000
          -95 callgsubr
          hintmask 1001011111100000
          -28 callgsubr
          -383 340 -94 callgsubr
          377 6 callgsubr
          hintmask 0011101111100000
          -98 callgsubr
          endchar
        </CharString>
        <CharString name="ordfeminine">
          -155 431 35 104 30 98 37 hstemhm
          37 44 -23 201 -44 44 hintmask 11101000
          144 735 rmoveto
          -40 -46 -16 -17 -10 6 -13 11 hvcurveto
          10 15 19 43 hhcurveto
          hintmask 11110100
          52 20 -44 -40 hvcurveto
          -14 -31 vlineto
          -87 -60 -18 -69 -54 37 -28 44 45 31 21 26 23 hvcurveto
          -26 vlineto
          -9 9 -8 11 13 9 8 9 vhcurveto
          162 vlineto
          63 -31 58 -84 vhcurveto
          71 -203 rmoveto
          -29 -41 -37 -40 -30 -23 16 35 46 50 7 55 vhcurveto
          29 hlineto
          endchar
        </CharString>
        <CharString name="ordmasculine">
          -141 430 40 225 40 hstem
          42 44 153 44 vstem
          163 735 rmoveto
          -67 -54 -55 -63 hvcurveto
          -67 vlineto
          -63 56 -57 65 64 56 57 63 vhcurveto
          67 vlineto
          65 -56 53 -64 vhcurveto
          76 -185 rmoveto
          -41 -34 -39 -42 -44 -33 39 41 vhcurveto
          67 vlineto
          40 33 38 44 43 33 -38 -40 vhcurveto
          endchar
        </CharString>
        <CharString name="oslash">
          -5 -11 -21 26 -31 callsubr
          31 -81 callsubr
          endchar
        </CharString>
        <CharString name="oslashacute">
          -5 -11 -21 26 46 392 46 219 -81 callsubr
          200 475 -94 callsubr
        </CharString>
        <CharString name="otilde">
          -5 callsubr
          136 10 callgsubr
          -14 callgsubr
          hintmask 11011100
          -74 callsubr
          -198 355 rmoveto
          hintmask 11101100
          -90 callsubr
          hintmask 11011100
          -89 callgsubr
          endchar
        </CharString>
        <CharString name="p">
          9 -11 callsubr
          -6 -20 hstemhm
          66 49 264 49 hintmask 11011100
          90 472 rmoveto
          33 callsubr
          -665 -98 callsubr
          283 vlineto
          -41 22 52 -35 61 hhcurveto
          95 83 88 97 hvcurveto
          -13 callgsubr
          hintmask 11101100
          101 -82 82 -98 -67 -45 -37 -39 -22 vhcurveto
          hintmask 11011100
          50 -41 callsubr
          8 -13 vhcurveto
          289 -293 rmoveto
          -71 -62 -68 -71 24 callsubr
          hintmask 11101100
          30 callsubr
        </CharString>
        <CharString name="paragraph">
          51 21 -21 691 40 hstem
          275 43 76 43 vstem
          231 731 rmoveto
          -110 -86 -56 -150 hvcurveto
          -12 vlineto
          -150 86 -57 110 vhcurveto
          44 -284 hlineto
          -15 11 -7 11 11 10 -8 callsubr
          669 76 -670 vlineto
          -15 11 -6 11 11 10 6 15 vhcurveto
          688 vlineto
          15 -10 7 -11 vhcurveto
          endchar
        </CharString>
        <CharString name="parenleft">
          -177 -20 47 694 47 hstemhm
          65 51 -51 204 hintmask 11010000
          245 -20 rmoveto
          15 9 9 15 10 -4 13 -16 hvcurveto
          hintmask 11100000
          -59 -74 21 99 hvcurveto
          440 vlineto
          66 48 68 85 vhcurveto
          hintmask 11010000
          11 9 11 13 12 -8 11 -16 -102 -78 -84 -97 hvcurveto
          -440 vlineto
          -107 76 -60 104 vhcurveto
          endchar
        </CharString>
        <CharString name="parenright">
          -177 -20 47 694 47 hstemhm
          20 204 -50 50 hintmask 11100000
          45 -20 rmoveto
          104 75 60 107 hvcurveto
          440 vlineto
          97 -77 84 -103 -15 -9 -11 -12 -13 10 -11 11 vhcurveto
          hintmask 11010000
          85 48 -68 -66 hvcurveto
          -440 vlineto
          -99 -74 -21 -59 vhcurveto
          hintmask 11100000
          -16 -5 -13 -10 -15 10 -9 15 hvcurveto
          endchar
        </CharString>
        <CharString name="partialdiff">
          17 -6 46 401 46 182 73 -47 47 hstemhm
          52 3 callsubr
          hintmask 11101100
          370 402 rmoveto
          54 -17 -66 31 -59 hhcurveto
          -96 -80 -85 -98 hvcurveto
          -125 vlineto
          -98 85 -87 98 99 85 89 97 vhcurveto
          192 vlineto
          245 -69 125 -147 -67 -63 -25 -21 -8 9 -19 12 vhcurveto
          hintmask 11011100
          15 29 26 60 hhcurveto
          131 40 -124 -169 1 hvcurveto
          -269 -98 rmoveto
          69 59 68 75 73 62 -65 -68 vhcurveto
          -129 vlineto
          -71 -60 -68 -75 -74 -60 11 callgsubr
          endchar
        </CharString>
        <CharString name="percent">
          282 -18 callsubr
          hintmask 1001111111000000
          162 357 -46 callsubr
          -96 callsubr
          346 -624 -46 callsubr
          hintmask 1010111111000000
          -96 callsubr
          -95 507 -87 callgsubr
          hintmask 0110111111000000
          -98 callgsubr
          endchar
        </CharString>
        <CharString name="period">
          -301 -6 82 hstem
          42 81 vstem
          83 76 rmoveto
          -62 callgsubr
          endchar
        </CharString>
        <CharString name="periodcentered">
          -289 260 80 hstem
          48 81 vstem
          89 340 -37 callsubr
        </CharString>
        <CharString name="perthousand">
          584 -18 callsubr
          67 2 callsubr
          hintmask 1001111111110000
          162 357 -46 callsubr
          -96 callsubr
          346 -624 -46 callsubr
          hintmask 1010111111110000
          -96 callsubr
          227 -264 -46 callsubr
          -96 callsubr
          -400 507 -87 callgsubr
          hintmask 0110111111110000
          -98 callgsubr
          endchar
        </CharString>
        <CharString name="pi">
          14 21 -21 425 47 hstem
          66 51 247 50 vstem
          90 472 rmoveto
          -12 -12 -7 -14 hvcurveto
          -430 vlineto
          -15 13 31 callsubr
          404 247 -404 vlineto
          -15 12 31 callsubr
          430 vlineto
          14 -12 7 -12 vhcurveto
          endchar
        </CharString>
        <CharString name="plus">
          -38 80 -21 159 45 -45 204 hstemhm
          33 204 -46 46 -46 204 hintmask 11010000
          214 59 rmoveto
          14 9 9 12 hvcurveto
          138 136 vlineto
          hintmask 11000100
          -10 callsubr
          hintmask 11010000
          -136 137 hlineto
          hintmask 10101000
          11 -9 11 -14 -13 -10 -11 -11 vhcurveto
          hintmask 11001000
          -137 -138 vlineto
          hintmask 11010000
          -12 -8 -10 -13 -13 8 -9 12 hvcurveto
          hintmask 11001000
          138 -138 hlineto
          -12 10 -9 13 vhcurveto
          endchar
        </CharString>
        <CharString name="plusminus">
          9 63 45 218 46 -46 203 hstemhm
          56 204 -45 45 -45 204 hintmask 11010000
          238 169 rmoveto
          13 9 9 12 hvcurveto
          136 137 vlineto
          hintmask 11000100
          11 11 9 14 13 -12 callgsubr
          hvcurveto
          hintmask 11010000
          -137 135 hlineto
          hintmask 10101000
          11 -9 11 -13 -13 -10 -11 -11 vhcurveto
          hintmask 11001000
          -135 -138 vlineto
          hintmask 11010000
          -12 -9 -10 -13 -14 9 -9 12 hvcurveto
          hintmask 11001000
          138 -136 hlineto
          -12 10 -9 13 vhcurveto
          hintmask 11010000
          -182 -84 -39 callgsubr
          320 hlineto
          hintmask 11000100
          -10 callsubr
          -320 hlineto
          hintmask 11010000
          -12 -9 -10 -13 hvcurveto
          endchar
        </CharString>
        <CharString name="product">
          95 21 -21 683 48 hstem
          79 51 302 50 vstem
          103 731 rmoveto
          -12 -12 -7 -15 hvcurveto
          -688 vlineto
          -15 13 31 callsubr
          662 302 -662 vlineto
          -15 13 -6 12 13 12 6 15 vhcurveto
          688 vlineto
          15 -12 7 -12 vhcurveto
          endchar
        </CharString>
        <CharString name="q">
          10 -11 callsubr
          -6 -20 hstemhm
          48 49 264 49 hintmask 11011100
          386 36 callsubr
          hintmask 11101100
          39 -22 -46 37 -66 hhcurveto
          -98 -82 -82 -101 hvcurveto
          -116 vlineto
          -97 83 -88 95 60 53 35 41 22 vhcurveto
          -283 vlineto
          -11 11 -11 14 14 10 11 11 vhcurveto
          hintmask 11011100
          665 29 callsubr
          hintmask 11101100
          69 61 68 73 65 65 -51 -86 vhcurveto
          -150 vlineto
          -32 -56 -73 -75 -71 -62 11 callgsubr
          endchar
        </CharString>
        <CharString name="q.ss02">
          6 -11 callsubr
          hstem
          48 49 264 49 vstem
          227 -6 rmoveto
          66 46 37 39 22 hvcurveto
          -284 vlineto
          -12 11 -9 14 14 10 8 12 vhcurveto
          502 vlineto
          145 -93 46 -86 -132 -51 -103 -82 vhcurveto
          -116 vlineto
          -100 82 -83 97 vhcurveto
          2 46 rmoveto
          -70 -62 68 69 hvcurveto
          -13 callgsubr
          52 25 87 107 71 61 -41 -112 vhcurveto
          -134 vlineto
          -40 -64 -65 -68 vhcurveto
          endchar
        </CharString>
        <CharString name="question">
          -75 -6 82 581 89 -44 44 hstemhm
          125 80 -61 43 122 46 hintmask 11010100
          355 566 rmoveto
          100 -60 80 -125 -79 -67 -38 -29 -13 11 -9 9 vhcurveto
          hintmask 10101100
          20 16 45 86 hhcurveto
          95 48 -53 -86 -111 -84 -48 -43 -48 hvcurveto
          -24 -27 -14 -35 -116 vvcurveto
          -17 9 -6 12 13 9 7 13 79 1 44 29 34 vhcurveto
          40 48 98 56 130 vvcurveto
          -190 -490 rmoveto
          hintmask 11010100
          -22 -18 -15 callsubr
          23 23 17 19 22 22 -18 19 -22 hvcurveto
          endchar
        </CharString>
        <CharString name="questiondown">
          -76 -6 44 -44 89 581 82 hstemhm
          36 46 104 80 -62 43 hintmask 01111000
          36 174 rmoveto
          -100 60 -80 125 79 66 38 29 13 -11 9 -8 vhcurveto
          hintmask 10110100
          -20 -16 -45 -86 hhcurveto
          -95 -48 53 86 112 84 47 43 48 hvcurveto
          24 27 14 35 116 vvcurveto
          17 -9 6 -12 -13 -9 -7 -13 -79 -1 -44 -29 -34 vhcurveto
          -40 -48 -98 -56 -130 vvcurveto
          190 490 rmoveto
          hintmask 10111000
          22 18 19 22 22 -17 19 -23 -23 -17 -19 -22 -22 18 -19 22 hvcurveto
          endchar
        </CharString>
        <CharString name="quotedbl">
          -204 578 190 hstem
          46 46 78 -30 callgsubr
          125 hmoveto
          -12 -16 -8 -11 hvcurveto
          10 -150 rlineto
          -10 5 -11 13 12 6 11 10 vhcurveto
          10 150 rlineto
          11 -16 8 -12 vhcurveto
          endchar
        </CharString>
        <CharString name="quotedblbase">
          -159 -80 156 hstem
          42 81 61 80 vstem
          224 76 rmoveto
          -23 -17 -19 -22 -18 11 -16 17 -5 hvcurveto
          -19 -51 rlineto
          -1 -3 0 -2 -3 vvcurveto
          -10 10 -7 10 6 7 4 7 3 vhcurveto
          21 44 15 44 16 vvcurveto
          22 -18 19 -22 vhcurveto
          -141 hmoveto
          -44 callgsubr
        </CharString>
        <CharString name="quotedblleft">
          -169 585 156 hstem
          37 80 61 81 vstem
          77 585 rmoveto
          23 17 18 23 17 -11 17 -17 5 hvcurveto
          19 51 rlineto
          1 2 0 3 2 vvcurveto
          11 -10 7 -10 -6 -6 -4 -7 -4 vhcurveto
          -21 -44 -15 -45 -15 vvcurveto
          -23 18 -18 22 vhcurveto
          141 hmoveto
          24 17 18 23 17 -12 17 -16 5 hvcurveto
          18 51 rlineto
          2 2 0 -49 callsubr
        </CharString>
        <CharString name="quotedblright">
          -170 585 156 hstem
          39 81 61 81 vstem
          222 741 rmoveto
          -19 callgsubr
          16 -6 hvcurveto
          -18 -51 rlineto
          -2 -2 0 -3 -2 vvcurveto
          -11 11 -7 9 6 7 4 7 3 vhcurveto
          21 44 16 38 callgsubr
          -19 18 -21 vhcurveto
          -142 hmoveto
          -24 -17 -13 callsubr
          3 vhcurveto
          21 44 16 38 callgsubr
          -18 18 -22 vhcurveto
          endchar
        </CharString>
        <CharString name="quoteleft">
          -311 606 34 callsubr
          36 81 vstem
          76 585 rmoveto
          24 17 18 23 17 -12 17 -17 5 hvcurveto
          19 51 rlineto
          1 2 1 -49 callsubr
        </CharString>
        <CharString name="quoteright">
          -312 606 34 callsubr
          39 81 vstem
          80 741 rmoveto
          -23 -18 -13 callsubr
          4 vhcurveto
          21 44 15 38 callgsubr
          -18 18 -22 vhcurveto
          endchar
        </CharString>
        <CharString name="quotesinglbase">
          -301 -59 34 callsubr
          42 81 vstem
          83 76 rmoveto
          -44 callgsubr
        </CharString>
        <CharString name="quotesingle">
          -328 599 -21 190 -20 hstem
          46 -30 callgsubr
          endchar
        </CharString>
        <CharString name="r">
          -147 -26 callgsubr
          hstemhm
          66 49 -49 242 hintmask 11001000
          286 432 -49 callgsubr
          hintmask 10110000
          51 -41 callsubr
          8 -13 -42 callsubr
          -430 -98 callsubr
          264 vlineto
          hintmask 11010000
          91 67 55 68 vhcurveto
          endchar
        </CharString>
        <CharString name="r.ss04">
          -152 21 -38 callsubr
          hstem
          60 49 vstem
          282 432 rmoveto
          11 9 10 14 13 -8 9 -13 hvcurveto
          -50 hlineto
          -102 -69 -104 -110 hvcurveto
          -243 vlineto
          -11 11 -10 13 14 11 10 11 vhcurveto
          242 vlineto
          85 49 84 76 vhcurveto
          endchar
        </CharString>
        <CharString name="racute">
          -147 -26 callgsubr
          245 -20 hstemhm
          66 49 -49 242 hintmask 11010100
          214 654 -107 callsubr
          172 -167 -51 callsubr
        </CharString>
        <CharString name="radical">
          132 -14 -21 757 46 hstem
          14 421 rmoveto
          -14 8 -9 12 vhcurveto
          37 hlineto
          137 -414 rlineto
          -13 4 12 -6 13 hhcurveto
          11 13 6 13 4 hvcurveto
          226 738 rlineto
          80 hlineto
          12 9 9 14 13 -9 10 -12 hvcurveto
          -102 hlineto
          -10 -8 -6 -10 -3 hvcurveto
          -212 -702 -122 375 rlineto
          12 -4 -8 7 -10 hhcurveto
          -58 hlineto
          -12 -8 -10 -13 hvcurveto
          endchar
        </CharString>
        <CharString name="rcaron">
          -147 -26 callgsubr
          279 -20 hstemhm
          66 49 -49 242 hintmask 11010100
          53 724 -106 callgsubr
          134 -194 -51 callsubr
        </CharString>
        <CharString name="rcommaaccent">
          -147 -128 -21 170 -32 callsubr
          hstemhm
          66 49 -49 242 hintmask 11100100
          127 -104 callsubr
          259 578 -49 callgsubr
          hintmask 11011000
          51 -41 callsubr
          8 -13 -42 callsubr
          -430 -98 callsubr
          264 vlineto
          hintmask 11101000
          91 67 55 68 vhcurveto
          endchar
        </CharString>
        <CharString name="registered">
          258 35 39 97 210 143 38 84 39 hstem
          55 39 176 41 123 40 156 39 vstem
          -30 callsubr
          215 -172 rmoveto
          -10 11 -5 10 10 10 5 10 vhcurveto
          160 51 vlineto
          72 -158 rlineto
          -9 4 5 -9 8 hhcurveto
          11 13 10 11 2 -1 2 -1 3 hvcurveto
          -68 153 rlineto
          40 9 29 29 66 vvcurveto
          81 -47 26 -56 vhcurveto
          -86 hlineto
          -9 -1 -6 -7 -7 vvcurveto
          101 -23 rmoveto
          37 26 -20 -52 -51 -26 -20 -37 hvcurveto
          -60 143 hlineto
          319 -162 -28 callsubr
          endchar
        </CharString>
        <CharString name="ring">
          -284 582 27 129 30 hstem
          0 28 125 29 vstem
          91 768 -80 callgsubr
          endchar
        </CharString>
        <CharString name="s">
          -87 -6 29 callgsubr
          203 31 -31 47 hintmask 10101100
          186 38 rmoveto
          hintmask 01011010
          -69 callgsubr
          hintmask 10101100
          -82 callgsubr
        </CharString>
        <CharString name="sacute">
          -87 -6 -16 callsubr
          219 -20 hstemhm
          47 46 203 31 -31 47 hintmask 10101110
          246 654 -107 callsubr
          40 -561 rmoveto
          hintmask 01011101
          -69 callgsubr
          hintmask 10101110
          -82 callgsubr
        </CharString>
        <CharString name="scaron">
          -87 -6 -16 callsubr
          253 -20 hstemhm
          36 57 -46 46 203 20 -20 47 hintmask 1010110100000000
          86 724 -106 callgsubr
          1 -588 rmoveto
          hintmask 0101110010000000
          -69 callgsubr
          hintmask 1010101100000000
          -82 callgsubr
        </CharString>
        <CharString name="scedilla">
          -87 34 callgsubr
          57 29 callgsubr
          167 37 -1 31 -31 47 hintmask 1110101100000000
          186 38 rmoveto
          hintmask 1101101100000000
          -92 -20 47 -20 hhcurveto
          -9 -9 -13 -10 -27 56 -39 89 -2 hvcurveto
          -21 -84 -80 callsubr
          14 59 rlineto
          hintmask 1110011001000000
          81 8 46 45 69 183 -250 -78 124 vvcurveto
          37 28 50 79 vhcurveto
          hintmask 1110101010000000
          -82 callgsubr
        </CharString>
        <CharString name="schwa">
          -16 -6 44 173 41 141 85 -45 45 hstemhm
          37 48 268 50 hintmask 11101100
          218 -6 rmoveto
          101 84 82 98 hvcurveto
          119 vlineto
          111 -87 74 -121 -90 -54 -40 -21 -10 10 -14 13 vhcurveto
          hintmask 11011100
          20 17 40 81 hhcurveto
          94 67 -53 -86 hvcurveto
          -42 -231 vlineto
          -44 -41 -2 -75 -105 85 -76 96 hvcurveto
          135 217 rmoveto
          -41 vlineto
          -71 -58 -61 -76 -80 -54 69 68 30 10 6 45 vhcurveto
          endchar
        </CharString>
        <CharString name="scircumflex">
          -87 -6 44 369 71 -44 44 27 callgsubr
          36 57 -46 46 203 21 -21 47 hintmask 1001110100000000
          185 655 -107 callgsubr
          105 -561 rmoveto
          -92 -20 47 -20 hhcurveto
          -9 -9 -13 -10 -27 59 -41 92 hvcurveto
          hintmask 1010101010000000
          99 57 47 77 hvcurveto
          183 -250 -78 124 vvcurveto
          37 28 50 79 vhcurveto
          hintmask 1100101100000000
          -82 callgsubr
        </CharString>
        <CharString name="scommaaccent">
          -87 -128 -21 143 29 callgsubr
          203 31 -31 47 hintmask 11010110
          251 -104 callsubr
          35 184 rmoveto
          hintmask 10101101
          -69 callgsubr
          hintmask 11010110
          -82 callgsubr
        </CharString>
        <CharString name="section">
          -3 -66 46 -46 190 421 186 -46 46 hstemhm
          50 47 -31 48 228 48 -32 50 hintmask 10100101
          66 415 rmoveto
          -228 292 102 -176 vvcurveto
          -86 -48 -47 -86 vhcurveto
          hintmask 01101001
          -104 -23 81 42 11 -6 10 -16 -14 -11 -7 -18 -90 70 -75 111 96 81 53 132 hvcurveto
          126 vlineto
          hintmask 10010110
          228 -294 -102 177 vvcurveto
          104 65 33 57 87 19 -72 -40 vhcurveto
          hintmask 10100110
          -21 10 -7 15 12 11 6 21 92 -53 67 -103 -71 -97 -36 -152 vhcurveto
          296 -329 rmoveto
          -72 83 -177 -34 150 vvcurveto
          31 vlineto
          72 -83 177 35 -150 vvcurveto
          endchar
        </CharString>
        <CharString name="semicolon">
          -264 -59 -21 420 82 hstem
          60 81 vstem
          100 -45 callsubr
          3 346 rmoveto
          -62 callgsubr
          endchar
        </CharString>
        <CharString name="seven">
          -16 20 -21 539 193 -48 48 hstemhm
          30 50 hintmask 11010000
          433 709 rmoveto
          11 -14 11 -10 vhcurveto
          -355 hlineto
          -12 -12 -11 -11 hvcurveto
          -149 7 callsubr
          hintmask 10110000
          123 303 -51 vlineto
          -308 -597 rlineto
          -2 -5 -2 -5 -3 vvcurveto
          -14 14 -9 16 7 7 5 7 4 vhcurveto
          308 602 rlineto
          4 6 2 7 5 vvcurveto
          endchar
        </CharString>
        <CharString name="seveneighths">
          273 -17 callsubr
          322 38 37 -20 hstemhm
          33 42 -42 238 205 31 155 41 hintmask 1011111011000000
          584 -71 callsubr
          -57 433 -87 callgsubr
          hintmask 0111110111000000
          -98 callgsubr
          -256 -52 rmoveto
          7 -11 8 -8 vhcurveto
          -200 hlineto
          -9 -10 -8 -7 hvcurveto
          -77 vlineto
          -8 9 -7 12 vhcurveto
          hintmask 1011111011000000
          10 11 7 8 hvcurveto
          54 155 -28 vlineto
          -167 -278 rlineto
          -1 -3 -1 -3 -2 vvcurveto
          -13 13 -7 12 6 6 3 4 2 vhcurveto
          165 283 rlineto
          hintmask 1011110111000000
          3 5 3 9 6 vvcurveto
          endchar
        </CharString>
        <CharString name="seveninferior">
          -178 20 19 callgsubr
          356 -43 callgsubr
          -12 13 -8 -7 callgsubr
        </CharString>
        <CharString name="sevensuperior">
          -178 380 19 callgsubr
          716 -43 callgsubr
          -13 13 -7 -7 callgsubr
        </CharString>
        <CharString name="six">
          45 -6 47 341 46 110 193 -48 48 hstemhm
          62 51 302 50 hintmask 11011100
          268 428 rmoveto
          -64 -57 -22 -49 -34 hvcurveto
          164 vlineto
          111 56 51 95 83 68 -48 -74 vhcurveto
          hintmask 11101100
          -16 14 -7 13 13 10 7 18 88 -72 80 -128 -114 -89 -46 callgsubr
          89 -57 113 114 87 57 153 vhcurveto
          26 vlineto
          151 -86 47 -111 vhcurveto
          -155 -190 rmoveto
          105 59 39 92 95 56 -42 -111 vhcurveto
          -27 vlineto
          -110 -56 -51 -95 -95 -56 51 110 vhcurveto
          endchar
        </CharString>
        <CharString name="sixinferior">
          -140 -3 16 callgsubr
          220 -64 callgsubr
        </CharString>
        <CharString name="sixsuperior">
          -140 357 16 callgsubr
          580 -64 callgsubr
        </CharString>
        <CharString name="slash">
          4 -2 -21 791 -20 hstem
          426 768 rmoveto
          -7 -6 -2 -8 -4 hvcurveto
          -386 -65 callgsubr
          -10 9 -9 11 9 7 4 9 5 vhcurveto
          383 744 rlineto
          -47 callsubr
          3 4 vvcurveto
          14 10 callsubr
          vhcurveto
          endchar
        </CharString>
        <CharString name="space">
          -266 endchar
        </CharString>
        <CharString name="sterling">
          7 0 48 319 44 310 47 hstem
          414 48 rmoveto
          -258 hlineto
          45 319 rlineto
          163 hlineto
          13 6 11 10 11 -6 12 -13 hvcurveto
          -156 hlineto
          25 174 rlineto
          71 10 67 65 79 hhcurveto
          21 hlineto
          15 8 12 11 12 -8 12 -15 hvcurveto
          -16 hlineto
          -102 -94 -83 -100 -14 hvcurveto
          -25 -174 rlineto
          -88 hlineto
          -12 -7 -11 -12 -12 7 -9 12 hvcurveto
          81 hlineto
          -44 -319 rlineto
          -61 hlineto
          -14 -8 -12 -12 -12 8 -12 14 hvcurveto
          367 hlineto
          12 7 12 12 12 -7 12 -12 hvcurveto
          endchar
        </CharString>
        <CharString name="summation">
          -9 -227 48 862 48 hstem
          258 252 rmoveto
          -225 -439 rlineto
          -3 -5 -2 -7 -5 vvcurveto
          10 callsubr
          15 vhcurveto
          358 hlineto
          14 7 12 12 12 -7 12 -14 hvcurveto
          -318 hlineto
          197 382 rlineto
          12 22 7 13 14 vvcurveto
          13 -7 13 -12 22 vhcurveto
          -197 383 rlineto
          318 hlineto
          14 7 12 12 12 -7 12 -14 hvcurveto
          -358 hlineto
          -15 -9 -10 -13 -5 2 -7 3 -5 hvcurveto
          endchar
        </CharString>
        <CharString name="t">
          -182 0 46 383 8 callgsubr
          hintmask 11110000
          113 429 rmoveto
          133 hlineto
          hintmask 11101000
          -9 callgsubr
          hintmask 11110000
          -74 callgsubr
          endchar
        </CharString>
        <CharString name="tbar">
          -178 0 46 230 44 109 8 callgsubr
          hintmask 11111000
          113 429 rmoveto
          133 hlineto
          hintmask 11110100
          -9 callgsubr
          hintmask 11111000
          -74 callgsubr
          133 133 vlineto
          hintmask 11110100
          10 9 10 12 12 -9 10 -10 hvcurveto
          hintmask 11111000
          -133 hlineto
          endchar
        </CharString>
        <CharString name="tcaron">
          -182 0 46 383 43 272 -20 hstem
          64 49 70 81 vstem
          224 744 -83 callsubr
          -111 -315 rmoveto
          133 hlineto
          -9 callgsubr
          -74 callgsubr
          endchar
        </CharString>
        <CharString name="tcommaaccent">
          -182 -128 -21 149 46 383 8 callgsubr
          hintmask 11111000
          195 -104 callsubr
          18 575 rmoveto
          133 hlineto
          hintmask 11110100
          -9 callgsubr
          hintmask 11111000
          -74 callgsubr
          endchar
        </CharString>
        <CharString name="thorn">
          9 -11 callsubr
          288 -20 hstem
          66 49 264 49 vstem
          90 24 callgsubr
          -958 -98 callsubr
          283 vlineto
          -41 22 52 -36 callsubr
          -62 -68 -71 24 callsubr
          30 callsubr
        </CharString>
        <CharString name="three">
          14 -6 48 -48 192 177 46 130 192 -47 47 hstemhm
          31 49 -31 50 267 49 -31 31 -31 50 hintmask 1011010100000000
          230 42 rmoveto
          -121 -29 78 42 hvcurveto
          hintmask 0111010001000000
          13 -6 11 -20 -15 -8 -7 -24 -73 65 -88 137 111 90 57 151 vhcurveto
          19 vlineto
          90 -43 50 -59 25 vhcurveto
          hintmask 1011001100000000
          45 22 38 54 94 vvcurveto
          128 -71 47 -105 -157 -33 -107 -51 -26 7 -8 18 17 8 11 17 vhcurveto
          hintmask 1010110100000000
          44 22 73 115 91 39 -47 -92 -102 -46 -34 -88 -14 -7 -11 -12 -11 7 -12 15 vhcurveto
          hintmask 1011010010000000
          92 59 -46 -96 hvcurveto
          -19 vlineto
          -110 -56 -50 -98 vhcurveto
          endchar
        </CharString>
        <CharString name="threeeighths">
          275 -17 callsubr
          -14 -10 callgsubr
          37 -20 hstemhm
          33 41 146 51 206 31 155 41 hintmask 1010101101111100
          151 395 -5 callgsubr
          hintmask 1010011101111100
          -95 callgsubr
          hintmask 1010101011111100
          -29 callgsubr
          hintmask 1011001101111100
          434 -24 -102 callsubr
          -8 433 -87 callgsubr
          hintmask 0111001101111100
          -98 callgsubr
          endchar
        </CharString>
        <CharString name="threeinferior">
          -157 -3 -10 callgsubr
          hstemhm
          32 41 146 51 hintmask 10110110
          150 35 -5 callgsubr
          hintmask 01110110
          -95 callgsubr
          hintmask 10101110
          -28 callgsubr
          endchar
        </CharString>
        <CharString name="threequarters">
          254 -2 -21 44 -21 86 39 232 -10 callgsubr
          37 -20 hstemhm
          34 41 146 51 335 41 hintmask 1111011011110000
          152 395 -5 callgsubr
          hintmask 1110111011110000
          -95 callgsubr
          hintmask 1111010111110000
          -29 callgsubr
          455 -380 -43 callsubr
          10 9 -86 callgsubr
          -9 682 -87 callgsubr
          -98 callgsubr
          endchar
        </CharString>
        <CharString name="threesuperior">
          -157 357 -10 callgsubr
          hstemhm
          32 41 146 51 hintmask 10110110
          150 395 -5 callgsubr
          hintmask 01110110
          -95 callgsubr
          hintmask 10101110
          -29 callgsubr
          endchar
        </CharString>
        <CharString name="tilde">
          -164 614 10 callgsubr
          hintmask 01000000
          87 650 rmoveto
          hintmask 10000000
          -90 callsubr
          hintmask 01000000
          -89 callgsubr
          endchar
        </CharString>
        <CharString name="trademark">
          147 493 -21 256 40 hstem
          131 42 117 42 168 41 vstem
          56 768 rmoveto
          -10 -4 -10 -9 -11 5 -10 9 hvcurveto
          75 -240 hlineto
          -10 10 -6 11 11 10 6 10 vhcurveto
          240 75 vlineto
          9 5 10 11 9 -5 10 -9 hvcurveto
          252 -89 rmoveto
          -191 vlineto
          -10 11 -6 10 10 10 6 10 vhcurveto
          259 vlineto
          15 -9 6 -11 -15 -9 -10 -18 -8 vhcurveto
          -74 -169 -72 169 rlineto
          17 -8 -9 11 -15 hhcurveto
          -10 -11 -6 -15 hvcurveto
          -259 vlineto
          -10 11 -6 10 10 11 6 10 vhcurveto
          193 vlineto
          69 -162 rlineto
          -9 3 6 -3 5 hhcurveto
          6 6 3 9 4 hvcurveto
          endchar
        </CharString>
        <CharString name="two">
          2 0 48 488 195 -48 48 hstemhm
          37 50 -33 50 274 50 hintmask 11001100
          54 570 rmoveto
          -25 7 -9 16 18 9 11 10 vhcurveto
          hintmask 10110100
          84 55 42 74 99 46 -75 -68 vhcurveto
          -183 -341 -71 -167 vvcurveto
          -97 vlineto
          -14 13 -8 11 vhcurveto
          356 hlineto
          10 10 12 12 13 -10 11 -10 hvcurveto
          -330 71 hlineto
          140 341 68 215 vvcurveto
          103 -78 86 -115 vhcurveto
          hintmask 11001100
          -104 -77 -70 -91 hvcurveto
          endchar
        </CharString>
        <CharString name="twoinferior">
          -163 0 13 callgsubr
          hstemhm
          35 50 140 41 hintmask 11011000
          44 284 -16 callgsubr
          hintmask 10111000
          -63 callsubr
          10 9 10 -7 9 -8 hvcurveto
          -178 27 hlineto
          64 -42 callgsubr
          endchar
        </CharString>
        <CharString name="twosuperior">
          -163 360 13 callgsubr
          hstemhm
          35 50 140 41 hintmask 11011000
          44 644 -16 callgsubr
          hintmask 10111000
          -63 callsubr
          9 10 10 -7 9 -8 hvcurveto
          -178 26 hlineto
          65 -42 callgsubr
          endchar
        </CharString>
        <CharString name="twothirds">
          270 22 callgsubr
          -11 13 callgsubr
          37 -20 hstemhm
          39 50 140 41 190 41 146 51 hintmask 1001100101111100
          578 35 -5 callgsubr
          hintmask 0101100101111100
          -95 callgsubr
          hintmask 1001010101111100
          -28 callgsubr
          -530 609 -16 callgsubr
          hintmask 0011001011111100
          -63 callsubr
          9 10 10 -7 9 -8 hvcurveto
          -178 26 hlineto
          65 -42 callgsubr
          533 124 -87 callgsubr
          -98 callgsubr
          endchar
        </CharString>
        <CharString name="u">
          22 -6 46 432 -53 callgsubr
          endchar
        </CharString>
        <CharString name="u.ss04">
          22 -6 46 -19 3 callgsubr
          hstemhm
          61 49 263 49 hintmask 10111000
          240 -6 rmoveto
          66 47 37 39 21 hvcurveto
          hintmask 01111000
          -49 vlineto
          -12 11 -9 13 14 10 9 12 vhcurveto
          430 vlineto
          11 -10 10 -14 -14 -11 -10 -26 callsubr
          hintmask 10111000
          -83 -65 -53 -64 -74 -60 68 69 vhcurveto
          274 vlineto
          14 -12 7 -12 -13 -12 -7 -14 vhcurveto
          5 callgsubr
          -100 82 -83 97 vhcurveto
          endchar
        </CharString>
        <CharString name="uacute">
          -22 callgsubr
          245 -20 -19 callsubr
          306 654 -107 callsubr
          38 -605 -103 callgsubr
          endchar
        </CharString>
        <CharString name="ubreve">
          -22 callgsubr
          147 -38 callgsubr
          61 49 21 -4 callsubr
          22 49 hintmask 11011111
          -93 callsubr
          74 718 rmoveto
          hintmask 11101111
          -39 callsubr
          hintmask 11011111
          -88 callsubr
        </CharString>
        <CharString name="ucircumflex">
          22 -6 46 432 125 100 -20 -19 callsubr
          244 655 -107 callgsubr
          104 -605 -103 callgsubr
          endchar
        </CharString>
        <CharString name="udieresis">
          -22 callgsubr
          145 65 hstem
          61 49 43 65 52 65 43 49 vstem
          186 -92 callsubr
          -59 -668 -103 callgsubr
          endchar
        </CharString>
        <CharString name="ugrave">
          -59 callsubr
          37 605 -105 callsubr
        </CharString>
        <CharString name="uhungarumlaut">
          -59 callsubr
          21 664 -100 callsubr
          endchar
        </CharString>
        <CharString name="umacron">
          -22 callgsubr
          190 42 -76 callsubr
          -130 668 rmoveto
          -95 callsubr
          endchar
        </CharString>
        <CharString name="underscore">
          -124 -45 45 hstem
          -10 -23 -64 callsubr
        </CharString>
        <CharString name="uni00A0">
          -266 endchar
        </CharString>
        <CharString name="uni00AD">
          -6 218 45 hstem
          49 240 -64 callsubr
        </CharString>
        <CharString name="uogonek">
          22 -198 31 161 46 432 -20 hstem
          61 49 82 34 152 49 vstem
          244 -6 rmoveto
          -32 -35 -20 -40 -46 -70 callsubr
          9 callgsubr
          51 32 38 40 37 vhcurveto
          74 24 55 71 80 vvcurveto
          275 vlineto
          11 -10 9 -14 -13 -12 -9 -26 callsubr
          -71 -59 -66 -75 -75 -59 67 70 vhcurveto
          274 vlineto
          11 -12 10 -12 -14 -11 -10 -11 vhcurveto
          5 callgsubr
          -97 82 -86 101 vhcurveto
          endchar
        </CharString>
        <CharString name="uring">
          -22 callgsubr
          130 27 129 30 hstem
          61 49 42 28 125 29 44 49 vstem
          243 768 -80 callgsubr
          -61 -682 -103 callgsubr
          endchar
        </CharString>
        <CharString name="utilde">
          -22 callgsubr
          162 10 callgsubr
          61 49 268 49 hintmask 11011100
          -93 callsubr
          -64 656 rmoveto
          hintmask 11101100
          -90 callsubr
          hintmask 11011100
          -89 callgsubr
          endchar
        </CharString>
        <CharString name="v">
          -59 35 callgsubr
          hstem
          180 7 rmoveto
          -9 4 8 -5 11 hhcurveto
          11 9 6 8 4 hvcurveto
          158 428 rlineto
          1 4 3 6 6 vvcurveto
          13 -17 9 -12 -13 -3 -8 -10 -4 vhcurveto
          -137 -372 -137 378 rlineto
          8 -3 -9 4 -8 hhcurveto
          -14 -14 -10 -13 -4 3 -8 1 -3 hvcurveto
          endchar
        </CharString>
        <CharString name="w">
          13 callsubr
          hstem
          639 436 -103 callsubr
          endchar
        </CharString>
        <CharString name="wacute">
          -1 callsubr
          394 654 -107 callsubr
          345 -163 -103 callsubr
          endchar
        </CharString>
        <CharString name="wcircumflex">
          -1 callsubr
          331 655 -107 callgsubr
          412 -163 -103 callsubr
          endchar
        </CharString>
        <CharString name="wdieresis">
          13 callsubr
          144 65 hstem
          240 65 52 65 vstem
          273 -92 callsubr
          249 -226 -103 callsubr
          endchar
        </CharString>
        <CharString name="wgrave">
          -1 callsubr
          639 436 -103 callsubr
          -117 592 -105 callsubr
        </CharString>
        <CharString name="x">
          -72 15 -21 484 -20 hstem
          25 18 rmoveto
          -13 15 -11 13 7 6 3 5 5 vhcurveto
          126 196 127 -196 rlineto
          -5 4 7 -3 6 hhcurveto
          13 15 12 12 4 -2 4 -2 3 hvcurveto
          -137 209 136 205 rlineto
          2 3 1 4 3 vvcurveto
          14 -15 11 -13 -5 -7 -3 -6 -4 vhcurveto
          -126 -191 -125 192 rlineto
          6 -4 -7 2 -6 hhcurveto
          -14 -14 -12 -13 -3 1 -4 2 -3 hvcurveto
          135 -204 -136 -210 rlineto
          -2 -3 -2 -4 -4 vvcurveto
          endchar
        </CharString>
        <CharString name="y">
          -58 -235 46 668 -20 hstem
          -99 callsubr
          endchar
        </CharString>
        <CharString name="yacute">
          -58 -235 46 886 -20 hstem
          -99 callsubr
          251 207 -94 callsubr
        </CharString>
        <CharString name="ycircumflex">
          -58 -235 46 886 -20 hstem
          -99 callsubr
          187 208 -107 callgsubr
          endchar
        </CharString>
        <CharString name="ydieresis">
          -58 -235 46 786 65 hstem
          114 65 52 65 vstem
          -99 callsubr
          128 215 -105 callgsubr
          endchar
        </CharString>
        <CharString name="yen">
          24 0 234 -43 43 76 43 379 -20 hstemhm
          77 188 -49 49 -49 196 hintmask 10111000
          77 331 rmoveto
          -12 8 -9 12 vhcurveto
          hintmask 10110100
          119 -76 -119 hlineto
          hintmask 01111000
          -12 -8 -10 -12 -13 8 -8 12 hvcurveto
          hintmask 01110100
          119 -170 hlineto
          hintmask 10111000
          -12 12 -9 13 14 10 9 12 vhcurveto
          hintmask 01111000
          170 126 vlineto
          hintmask 10110010
          10 11 8 13 12 -11 10 -10 hvcurveto
          hintmask 10111000
          -126 76 126 hlineto
          hintmask 10110010
          10 11 9 12 13 -11 9 -10 hvcurveto
          -114 hlineto
          186 348 36 callgsubr
          3 vvcurveto
          13 -13 10 -12 -9 -6 -5 -8 -5 vhcurveto
          -179 -335 -170 335 rlineto
          8 -4 -7 5 -9 hhcurveto
          -14 -12 -12 -11 -3 1 -3 1 -2 hvcurveto
          177 -348 rlineto
          -107 hlineto
          hintmask 10111000
          -12 -8 -9 -13 hvcurveto
          endchar
        </CharString>
        <CharString name="ygrave">
          -58 -235 46 886 -20 hstem
          -99 callsubr
          220 152 -105 callsubr
        </CharString>
        <CharString name="z">
          27 callsubr
          hstem
          94 46 -87 callsubr
          endchar
        </CharString>
        <CharString name="zacute">
          27 callsubr
          225 -20 hstem
          258 654 -107 callsubr
          -64 -553 -87 callsubr
          endchar
        </CharString>
        <CharString name="zcaron">
          27 callsubr
          259 -20 hstem
          93 724 -106 callgsubr
          -98 -580 -87 callsubr
          endchar
        </CharString>
        <CharString name="zdotaccent">
          27 callsubr
          125 65 hstem
          159 66 vstem
          94 46 -87 callsubr
          -155 616 -81 callgsubr
        </CharString>
        <CharString name="zero">
          61 -6 48 286 67 288 48 hstem
          62 50 118 67 118 50 cntrmask 00011100
          263 -91 callgsubr
          -151 -126 rmoveto
          -20 -14 -14 -19 -19 14 -15 20 18 15 15 19 19 -15 14 -18 hvcurveto
          endchar
        </CharString>
        <CharString name="zeroinferior">
          -132 -3 38 298 38 hstem
          48 2 callsubr
          vstem
          167 -3 -46 callsubr
          -96 callsubr
          endchar
        </CharString>
        <CharString name="zerosuperior">
          -132 357 38 298 38 hstem
          48 2 callsubr
          vstem
          167 357 -46 callsubr
          -96 callsubr
          endchar
        </CharString>
      <CharString index="0">
        rmoveto
        104 -55 rlineto
        -1 3 3 -2 3 hhcurveto
        10 9 9 11 8 -4 8 -7 4 hvcurveto
        -104 55 rlineto
        3 -5 -6 2 -6 hhcurveto
        -6 -6 -2 -3 -5 hvcurveto
        -104 -56 rlineto
        -8 -4 -3 -7 -6 vvcurveto
        10 callsubr
        11 2 3 2 1 3 vhcurveto
        return
      </CharString>
      <CharString index="1">
        rmoveto
        5 -5 -6 2 -4 hhcurveto
        -10 -7 -10 -9 -6 3 -6 7 -7 hvcurveto
        100 -96 rlineto
        -6 6 8 -4 7 hhcurveto
        7 6 4 6 7 hvcurveto
        101 96 rlineto
        6 7 4 6 6 vvcurveto
        9 -7 10 -10 -5 -6 -2 -5 -5 vhcurveto
        -98 -98 rlineto
        return
      </CharString>
      <CharString index="2">
        -61 callsubr
        13 14 19 19 -13 13 -19 hvcurveto
        117 hmoveto
        -20 -13 -13 -19 -19 13 -14 20 19 13 14 19 19 -13 13 -19 hvcurveto
        return
      </CharString>
      <CharString index="3">
        rmoveto
        330 hlineto
        13 8 12 13 11 -6 12 -15 hvcurveto
        -356 hlineto
        -12 -12 -7 -15 hvcurveto
        -687 -57 callgsubr
        356 hlineto
        15 6 12 11 13 -8 12 -13 hvcurveto
        -330 295 159 37 callgsubr
        -159 hlineto
        return
      </CharString>
      <CharString index="4">
        rmoveto
        100 83 85 98 hvcurveto
        275 vlineto
        11 -10 9 -14 -13 -12 -9 -26 callsubr
        -71 -59 -66 -75 -75 -59 67 70 vhcurveto
        274 vlineto
        11 -12 10 -12 -14 -11 -10 -11 vhcurveto
        5 callgsubr
        -97 82 -86 101 vhcurveto
        return
      </CharString>
      <CharString index="5">
        rmoveto
        1 3 0 1 3 vvcurveto
        13 -14 8 -13 -10 -10 -5 -10 -3 vhcurveto
        -175 -632 -105 379 rlineto
        13 -4 -13 7 -11 hhcurveto
        -12 -12 -7 -13 -3 hvcurveto
        -102 -379 -177 632 rlineto
        10 -3 -10 5 -10 hhcurveto
        -13 -14 -8 -13 -3 0 -1 1 -3 hvcurveto
        198 -691 rlineto
        -12 3 12 -6 13 hhcurveto
        13 12 6 12 3 hvcurveto
        103 374 103 -374 rlineto
        -12 2 13 -6 12 hhcurveto
        12 13 6 12 4 hvcurveto
        return
      </CharString>
      <CharString index="6">
        -21 -16 -40 -82 hhcurveto
        -93 -68 53 86 hvcurveto
        42 232 vlineto
        43 42 2 75 105 -85 76 -97 hvcurveto
        -135 -217 rmoveto
        41 vlineto
        71 59 61 76 80 54 -69 -68 -30 -11 -6 -45 vhcurveto
        return
      </CharString>
      <CharString index="7">
        -15 1 11 -6 13 hhcurveto
        14 11 7 19 96 -77 73 -126 -112 -88 -25 callsubr
        hvcurveto
        -317 vlineto
        -153 87 -18 callgsubr
        -67 callgsubr
        vhcurveto
        157 vlineto
        12 -8 11 -13 vhcurveto
        -177 hlineto
        -13 -7 -12 -11 -11 7 -12 13 hvcurveto
        148 -134 hlineto
        -84 callsubr
        return
      </CharString>
      <CharString index="8">
        15 -12 6 -13 -12 -13 -6 -15 vhcurveto
        return
      </CharString>
      <CharString index="9">
        -10 10 -9 11 8 8 4 9 4 vhcurveto
        384 744 rlineto
        2 4 1 3 4 vvcurveto
        14 10 callsubr
        vhcurveto
        return
      </CharString>
      <CharString index="10">
        vlineto
        -99 callgsubr
        return
      </CharString>
      <CharString index="11">
        13 12 7 15 hvcurveto
        -77 callsubr
        -591 vlineto
        -289 571 rlineto
        17 -9 -14 24 -18 hhcurveto
        -13 -12 -5 -16 hvcurveto
        -59 callgsubr
        591 vlineto
        294 -576 rlineto
        -17 9 12 -20 15 hhcurveto
        return
      </CharString>
      <CharString index="12">
        10 -5 6 -17 -13 -6 -3 -16 -39 38 -47 81 66 53 30 79 vhcurveto
        9 vlineto
        44 -24 25 -33 12 vhcurveto
        26 11 20 29 45 vvcurveto
        66 -43 24 -62 -91 -21 -54 -30 -16 4 -5 17 14 6 7 11 vhcurveto
        return
      </CharString>
      <CharString index="13">
        rmoveto
        -10 10 -5 11 10 10 5 10 vhcurveto
        341 vlineto
        9 -9 6 -8 -7 -4 -3 -3 -4 vhcurveto
        -49 -57 rlineto
        -3 -3 -5 -8 -6 vvcurveto
        -9 6 -8 10 -47 callsubr
        5 3 vhcurveto
        22 28 rlineto
        return
      </CharString>
      <CharString index="14">
        22 rmoveto
        -92 callgsubr
        -77 callsubr
        return
      </CharString>
      <CharString index="15">
        -15 13 -7 12 13 12 -8 callsubr
        return
      </CharString>
      <CharString index="16">
        -6 rmoveto
        37 callsubr
        153 -89 57 -113 -114 -87 -46 callgsubr
        87 -18 callgsubr
        vhcurveto
        152 210 rmoveto
        -84 callsubr
        -72 callsubr
        return
      </CharString>
      <CharString index="17">
        hstemhm
        33 49 238 49 hintmask 10110111
        -61 callgsubr
        hintmask 10101111
        -97 callsubr
        hintmask 01110111
        -84 callgsubr
        hintmask 10110111
        -76 callgsubr
        return
      </CharString>
      <CharString index="18">
        -52 -27 36 -50 hhcurveto
        -34 -55 -23 -31 -11 6 -10 10 hvcurveto
        15 13 33 43 hhcurveto
        return
      </CharString>
      <CharString index="19">
        -15 8 11 -20 12 hhcurveto
        17 10 12 13 4 -1 4 -2 4 hvcurveto
        -160 310 rlineto
        91 13 72 52 126 vvcurveto
        147 -98 47 -113 vhcurveto
        -171 hlineto
        -14 -8 -10 -11 hvcurveto
        193 -27 rmoveto
        95 66 -41 -106 -107 -66 -42 -95 hvcurveto
        -143 296 hlineto
        endchar
      </CharString>
      <CharString index="20">
        rmoveto
        -6 -7 -2 -8 -3 hvcurveto
        -387 -65 callgsubr
        return
      </CharString>
      <CharString index="21">
        10 -6 10 -10 hvcurveto
        -31 87 hlineto
        10 -10 4 -11 -10 -10 -4 -10 vhcurveto
        -87 -105 vlineto
        127 222 12 callsubr
        10 -11 7 -9 -7 -8 -4 -9 -4 vhcurveto
        -141 -247 rlineto
        -1 -3 -1 -4 -2 vvcurveto
        -10 6 -6 9 vhcurveto
        143 hlineto
        return
      </CharString>
      <CharString index="22">
        -10 5 -11 20 16 9 6 27 84 -70 78 -129 -111 -93 -46 callgsubr
        91 -57 110 130 72 79 83 28 -9 6 -17 -17 -6 -9 -12 -1 vhcurveto
        return
      </CharString>
      <CharString index="23">
        -12 11 -10 13 14 10 10 12 vhcurveto
        264 vlineto
        99 -45 93 -128 vhcurveto
        124 -332 rmoveto
        return
      </CharString>
      <CharString index="24">
        89 35 -38 17 hhcurveto
        13 10 19 10 30 -84 27 -79 -87 -117 -32 -145 hvcurveto
        -247 335 124 -240 vvcurveto
        -99 -57 -51 -102 vhcurveto
        endchar
      </CharString>
      <CharString index="25">
        60 31 -27 14 hhcurveto
        12 10 17 9 22 -66 23 -62 -108 -44 -71 -61 hvcurveto
        -166 249 80 -145 vvcurveto
        -41 -30 -36 -80 vhcurveto
        endchar
      </CharString>
      <CharString index="26">
        -61 callsubr
        14 14 19 19 -14 -2 callsubr
      </CharString>
      <CharString index="27">
        rmoveto
        -51 -40 -44 -48 -50 41 -44 50 48 43 44 50 49 -43 43 -48 hvcurveto
        62 -92 rmoveto
        -34 -28 -33 -34 -34 -29 34 33 29 28 33 35 34 28 -32 -30 vhcurveto
        return
      </CharString>
      <CharString index="28">
        rmoveto
        99 69 71 95 hvcurveto
        41 vlineto
        35 -8 34 -18 24 vhcurveto
        18 34 24 10 16 1 rrcurveto
        9 1 9 7 12 vvcurveto
        11 -8 12 -18 -24 -30 -25 -37 -19 vhcurveto
        return
      </CharString>
      <CharString index="29">
        -11 10 -10 14 vhcurveto
        177 hlineto
        -67 callgsubr
        hvcurveto
        311 vlineto
        153 -89 57 -113 vhcurveto
        -48 vmoveto
        95 57 -51 -111 hvcurveto
        -311 vlineto
        -111 -57 -51 -95 vhcurveto
        -151 return
      </CharString>
      <CharString index="30">
        135 -299 rmoveto
        -71 -61 -68 -74 -75 -59 11 callgsubr
        -13 callgsubr
        return
      </CharString>
      <CharString index="31">
        -44 -72 -64 -70 -54 -42 28 62 83 91 9 98 vhcurveto
        49 hlineto
        return
      </CharString>
      <CharString index="32">
        -130 -18 84 -23 hhcurveto
        -10 -13 -15 -13 -32 71 -72 128 118 86 61 142 hvcurveto
        281 -335 -120 201 vvcurveto
        return
      </CharString>
      <CharString index="33">
        -133 208 hlineto
        12 -12 9 -13 -11 -13 -9 -12 vhcurveto
        -537 vlineto
        -100 53 -43 99 vhcurveto
        25 hlineto
        14 9 11 12 13 -9 10 -14 hvcurveto
        -25 hlineto
        -76 -27 26 71 hvcurveto
        return
      </CharString>
      <CharString index="34">
        98 0 48 314 44 277 48 hstem
        89 5 callsubr
        50 vstem
        113 731 rmoveto
        -14 -10 -10 -11 hvcurveto
        -304 -68 vlineto
        -12 -8 -10 -12 -12 8 -10 12 hvcurveto
        68 -341 hlineto
        -78 callgsubr
        314 123 hlineto
        11 9 10 12 12 -9 10 -11 hvcurveto
        -123 277 hlineto
        endchar
      </CharString>
      <CharString index="35">
        76 18 -39 17 hhcurveto
        13 10 12 12 23 -53 38 -82 -129 -59 -81 -104 hvcurveto
        -114 vlineto
        -106 60 -79 128 vhcurveto
        return
      </CharString>
      <CharString index="36">
        -32 callgsubr
        -723 -98 callsubr
        723 -6 callsubr
        return
      </CharString>
      <CharString index="37">
        30 -412 rmoveto
        -59 -51 -38 -92 -94 -56 39 57 52 48 26 50 15 vhcurveto
        63 -8 132 6 -90 vvcurveto
        return
      </CharString>
      <CharString index="38">
        -92 -20 47 -20 hhcurveto
        -9 -9 -13 -10 -27 59 -41 92 99 57 47 77 hvcurveto
        183 -250 -78 124 vvcurveto
        37 28 50 79 vhcurveto
        return
      </CharString>
      <CharString index="39">
        -101 callgsubr
        endchar
      </CharString>
      <CharString index="40">
        113 89 57 153 return
      </CharString>
      <CharString index="41">
        -50 -8 -12 -77 -126 hhcurveto
        -103 -54 50 112 hvcurveto
        -14 callsubr
        111 54 51 100 124 22 -80 -46 3 vhcurveto
        return
      </CharString>
      <CharString index="42">
        -751 rlineto
        -2 -4 0 -3 -4 vvcurveto
        return
      </CharString>
      <CharString index="43">
        rmoveto
        -34 -31 -9 -23 -19 hvcurveto
        73 vlineto
        50 29 22 49 43 35 -20 -32 -13 11 -4 10 13 7 5 14 43 -40 45 -78 -68 -53 -31 -79 vhcurveto
        -133 vlineto
        -96 41 -35 79 67 52 30 80 vhcurveto
        11 vlineto
        78 -51 24 -62 vhcurveto
        -84 -99 rmoveto
        47 31 18 46 49 30 -19 -51 vhcurveto
        -11 vlineto
        -49 -30 -23 -48 -49 -29 23 49 vhcurveto
        endchar
      </CharString>
      <CharString index="44">
        rmoveto
        -13 -8 -12 -12 -12 8 -12 13 hvcurveto
        174 -661 hlineto
        -37 callgsubr
        13 12 13 -8 callsubr
        661 172 vlineto
        15 6 13 12 12 -7 11 -14 hvcurveto
        endchar
      </CharString>
      <CharString index="45">
        -24 -22 callsubr
        24 21 19 19 22 22 -19 19 -21 hvcurveto
        return
      </CharString>
      <CharString index="46">
        196 478 rmoveto
        -62 -67 -24 -22 -10 8 -17 14 hvcurveto
        return
      </CharString>
      <CharString index="47">
        -33 callsubr
        243 -20 -78 callsubr
        return
      </CharString>
      <CharString index="48">
        -688 vlineto
        -92 callgsubr
        return
      </CharString>
      <CharString index="49">
        33 callsubr
        -498 vlineto
        -82 -10 -61 -70 -13 -10 -9 -13 -12 9 -12 16 94 33 78 -3 callsubr
        498 -41 callsubr
        8 -14 vhcurveto
        endchar
      </CharString>
      <CharString index="50">
        vlineto
        -37 callgsubr
        12 vhcurveto
        return
      </CharString>
      <CharString index="51">
        69 59 68 75 75 60 -68 -69 vhcurveto
        return
      </CharString>
</ttFont>
